<?xml version="1.0" encoding="UTF-8" standalone="no"?>
<!-- Created with Inkscape (http://www.inkscape.org/) -->

<svg
   xmlns:dc="http://purl.org/dc/elements/1.1/"
   xmlns:cc="http://creativecommons.org/ns#"
   xmlns:rdf="http://www.w3.org/1999/02/22-rdf-syntax-ns#"
   xmlns:svg="http://www.w3.org/2000/svg"
   xmlns="http://www.w3.org/2000/svg"
   xmlns:sodipodi="http://sodipodi.sourceforge.net/DTD/sodipodi-0.dtd"
   xmlns:inkscape="http://www.inkscape.org/namespaces/inkscape"
   id="svg4136"
   version="1.1"
   inkscape:version="0.91 r13725"
   width="152"
   height="246"
   viewBox="0 0 152 246"
   sodipodi:docname="puz.png">
  <metadata
     id="metadata4142">
    <rdf:RDF>
      <cc:Work
         rdf:about="">
        <dc:format>image/svg+xml</dc:format>
        <dc:type
           rdf:resource="http://purl.org/dc/dcmitype/StillImage" />
        <dc:title></dc:title>
      </cc:Work>
    </rdf:RDF>
  </metadata>
  <defs
     id="defs4140" />
  <sodipodi:namedview
     pagecolor="#ffffff"
     bordercolor="#666666"
     borderopacity="1"
     objecttolerance="10"
     gridtolerance="10"
     guidetolerance="10"
     inkscape:pageopacity="0"
     inkscape:pageshadow="2"
     inkscape:window-width="1600"
     inkscape:window-height="837"
     id="namedview4138"
     showgrid="false"
     inkscape:zoom="2.7154472"
     inkscape:cx="76"
     inkscape:cy="123"
     inkscape:window-x="-8"
     inkscape:window-y="-8"
     inkscape:window-maximized="1"
     inkscape:current-layer="svg4136" />
  <g
     id="g4148"
     transform="translate(-0.36826405,-1.1047904)"
     style="fill:#000000">
    <path
       style="fill:#000000"
       d="m 8.2867242,242.69821 c -0.9102432,-1.00581 -1.6549876,-3.1672 -1.6549876,-4.8031 0,-1.81503 8.1852384,-20.03675 21.0000004,-46.74952 l 21,-43.77517 0,-26.92173 c 0,-18.0615 -0.344071,-26.921744 -1.045455,-26.921744 -0.575,0 -2.15,-1.104545 -3.5,-2.454545 -3.178863,-3.178864 -3.194943,-7.573163 -0.04113,-11.239691 l 2.413418,-2.805764 28.673167,0 28.673173,0 2.41341,2.805764 c 3.15382,3.666528 3.13774,8.060827 -0.0411,11.239691 -1.35,1.35 -2.925,2.454545 -3.5,2.454545 -0.70141,0 -1.04548,8.860244 -1.04548,26.921744 l 0,26.92173 21,43.77517 c 13.61608,28.38315 21,44.88208 21,46.92327 0,6.77999 3.42299,6.45809 -68.673756,6.45809 -61.716715,0 -65.1002624,-0.0928 -66.6712598,-1.82874 z M 96.175126,169.1916 c -1.838554,-4.03444 -4.512952,-9.64448 -5.943107,-12.46675 -1.868832,-3.68797 -2.600282,-6.68789 -2.600282,-10.66466 l 0,-5.53324 -5.671259,0 c -6.562994,0 -9.328741,-1.80799 -9.328741,-6.09828 0,-3.91169 3.278375,-5.90172 9.722506,-5.90172 l 5.277494,0 0,-8 0,-8 -5.928571,0 c -6.773992,0 -9.071429,-1.52329 -9.071429,-6.01472 0,-4.00142 3.222584,-5.98528 9.722506,-5.98528 l 5.277494,0 0,-3.500004 0,-3.5 -12.5,0 -12.5,0 0,29.033244 0,29.03325 -2.600282,5.13141 c -1.430155,2.82227 -4.104553,8.43231 -5.943107,12.46675 l -3.342825,7.33535 24.386214,0 24.386214,0 -3.342825,-7.33535 z M 80.728136,62.262204 C 72.348585,57.955787 72.019741,45.250173 80.14996,39.923049 c 3.200803,-2.097247 9.624817,-2.003711 12.97111,0.188865 7.53856,4.939455 7.14516,17.720377 -0.679089,22.062171 -2.949025,1.63646 -8.618058,1.679106 -11.713845,0.08812 z M 57.131737,57.109588 C 50.083758,53.963665 45.570919,45.028445 47.500483,38.040137 51.0302,25.256559 65.553127,21.271322 74.315125,30.681932 c 3.382784,3.633197 4.526214,7.426171 2.696474,8.94472 -2.626304,2.179639 -4.379862,6.649919 -4.379862,11.165422 0,4.011343 -0.285911,4.500789 -3.533927,6.04966 -4.209004,2.007134 -7.885118,2.089421 -11.966073,0.267854 z M 81.578778,17.970574 c -3.52033,-3.74722 -3.342032,-9.8469561 0.38145,-13.0497607 7.478709,-6.4329148 17.963459,1.2499019 14.134215,10.3569997 -2.441698,5.80709 -10.232213,7.252287 -14.515665,2.692761 z"
       id="path4162"
       inkscape:connector-curvature="0" />
    <path
       style="fill:#000000"
       d="m 8.6317366,242.52695 c -1.1,-1.1 -2,-3.12962 -2,-4.51028 0,-1.38065 9.4500004,-22.25857 21.0000004,-46.39538 l 21,-43.8851 0,-26.93564 0,-26.935645 -2.434055,-1.302666 C 41.249338,89.913965 40.54136,82.104511 44.968507,79.003617 c 3.120715,-2.185835 57.205743,-2.185835 60.326463,0 4.42715,3.100894 3.71917,10.910348 -1.22918,13.558622 l -2.43405,1.302666 0,26.935645 0,26.93564 21,43.8851 c 11.55,24.13681 21,45.01473 21,46.39538 0,1.38066 -0.9,3.41028 -2,4.51028 -1.95866,1.95866 -3.33333,2 -66.500003,2 -63.166667,0 -64.541344,-0.0413 -66.5000004,-2 z M 99.631737,176.13299 c 0,-0.21669 -2.697892,-5.95419 -5.995315,-12.75 -4.990639,-10.28545 -5.996101,-13.23582 -6,-17.60604 l -0.0047,-5.25 -5.277494,0 c -6.413471,0 -9.722506,-1.99332 -9.722506,-5.8567 0,-4.123 1.725868,-5.1433 8.7,-5.1433 l 6.3,0 0,-8.5 0,-8.5 -5.277494,0 c -6.413471,0 -9.722506,-1.99332 -9.722506,-5.8567 0,-4.123 1.725868,-5.1433 8.7,-5.1433 l 6.3,0 0,-4.000004 0,-4 -12.5,0 -12.5,0 -0.0047,28.750004 -0.0047,28.75 -5.995315,12.35604 c -3.297393,6.79581 -5.995285,12.53331 -5.995285,12.75 0,0.21668 11.025,0.39396 24.5,0.39396 13.475,0 24.5,-0.17728 24.5,-0.39396 z M 80.394308,61.961558 c -7.722603,-4.19024 -7.594708,-17.884456 0.204696,-21.917685 6.308438,-3.26222 13.672792,-0.902563 16.629567,5.328379 5.194789,10.947206 -6.319897,22.29434 -16.834263,16.589306 z M 59.131737,57.852903 C 55.960498,57.012981 50.766182,52.687614 49.130686,49.524913 46.834011,45.083635 47.201394,37.461298 49.905534,33.448626 56.422276,23.778432 68.37996,22.92628 74.852033,31.670841 c 3.744695,5.05954 3.920809,6.374915 1.196233,8.934522 -2.647582,2.487274 -4.870013,9.079454 -4.079759,12.10139 0.887851,3.395149 -7.202382,6.638454 -12.83677,5.14615 z M 82.086282,18.072401 c -3.410987,-3.410988 -3.410987,-9.6799222 0,-13.0909094 5.588303,-5.58830303 14.545455,-1.4396723 14.545455,6.7369314 0,5.19964 -3.48248,8.808523 -8.5,8.808523 -2.479237,0 -4.350786,-0.759877 -6.045455,-2.454545 z"
       id="path4160"
       inkscape:connector-curvature="0" />
    <path
       style="fill:#000000"
       d="m 8.6317366,242.52695 c -1.1,-1.1 -2,-3.10339 -2,-4.45198 0,-1.34859 9.4500004,-22.14493 21.0000004,-46.21408 l 21,-43.76209 0,-27.25074 c 0,-26.227293 -0.07511,-27.290946 -2,-28.321114 -5.225002,-2.796336 -6.143656,-8.856344 -1.974564,-13.025436 1.873708,-1.873708 3.430275,-1.974564 30.474564,-1.974564 27.044293,0 28.600863,0.100856 30.474563,1.974564 4.1691,4.169092 3.25044,10.2291 -1.97456,13.025436 -1.92489,1.030168 -2,2.093821 -2,28.321114 l 0,27.25074 21,43.76209 c 11.55,24.06915 21,44.86549 21,46.21408 0,1.34859 -0.9,3.35198 -2,4.45198 -1.95866,1.95866 -3.33333,2 -66.500003,2 -63.166667,0 -64.541344,-0.0413 -66.5000004,-2 z M 99.631737,176.17748 c 0,-0.19221 -2.7,-6.03638 -6,-12.98704 -4.85475,-10.22537 -6,-13.59442 -6,-17.65053 l 0,-5.01296 -5.277494,0 c -6.413471,0 -9.722506,-1.99332 -9.722506,-5.8567 0,-4.123 1.725868,-5.1433 8.7,-5.1433 l 6.3,0 0,-8.5 0,-8.5 -5.277494,0 c -6.413471,0 -9.722506,-1.99332 -9.722506,-5.8567 0,-4.123 1.725868,-5.1433 8.7,-5.1433 l 6.3,0 0,-4.000004 0,-4 -12.5,0 -12.5,0 0,28.512964 0,28.51296 -6,12.63757 c -3.3,6.95066 -6,12.79483 -6,12.98704 0,0.19221 11.025,0.34947 24.5,0.34947 13.475,0 24.5,-0.15726 24.5,-0.34947 z M 80.504541,61.90158 c -7.831625,-5.034408 -7.77651,-17.787469 0.09446,-21.857707 4.802428,-2.483432 9.479156,-1.941871 13.466954,1.559462 5.728849,5.029996 6.029265,12.134935 0.762351,18.029639 -3.447737,3.858687 -10.189236,4.92641 -14.323768,2.268606 z m -22.189,-4.81187 C 45.426972,52.453973 43.581722,36.545978 54.955067,28.118894 c 4.299109,-3.185426 12.268871,-2.903106 16.857976,0.597174 3.967694,3.026308 6.677562,8.348216 5.238993,10.288855 -4.059354,5.476091 -4.871416,7.315444 -5.033975,11.402151 -0.128161,3.221933 -0.728861,4.919908 -2.034097,5.749699 -3.15219,2.003976 -7.683398,2.366264 -11.668423,0.932937 z M 82.086282,18.072401 C 78.570873,14.556992 78.661935,8.3302308 82.27776,4.9791972 c 5.661314,-5.2467289 14.353977,-1.2814603 14.353977,6.5477488 0,7.85531 -9.127999,11.96291 -14.545455,6.545455 z"
       id="path4158"
       inkscape:connector-curvature="0" />
    <path
       style="fill:#000000"
       d="m 8.8060506,242.2125 c -1.1958727,-1.27295 -2.174314,-3.22776 -2.174314,-4.34401 0,-1.11626 9.4500004,-21.73427 21.0000004,-45.81781 l 21,-43.78824 0,-27.25274 0,-27.252734 -2.544635,-1.667309 c -1.399549,-0.91702 -2.95701,-2.751937 -3.461024,-4.077594 -1.143186,-3.006808 0.502941,-8.145703 3.045101,-9.506226 2.42876,-1.299833 56.492361,-1.299833 58.921121,0 2.54216,1.360523 4.18829,6.499418 3.0451,9.506226 -0.50402,1.325657 -2.06148,3.160574 -3.46103,4.077594 l -2.54463,1.667309 0,27.252734 0,27.25274 21,43.78824 c 11.55,24.08354 21,44.76461 21,45.95794 0,1.19334 -1.0415,3.14814 -2.31445,4.34402 l -2.31445,2.17431 -64.01124,0 -64.011235,0 -2.1743144,-2.31445 z M 99.631737,176.58328 c 0,-0.51901 -2.7,-6.65626 -6,-13.63832 -4.988874,-10.55535 -6,-13.59052 -6,-18.01065 l 0,-5.31598 -6.645606,-0.29569 c -7.671668,-0.34134 -9.436049,-1.8109 -7.795555,-6.49292 0.928293,-2.64938 1.350337,-2.81895 7.7116,-3.09846 l 6.729561,-0.29569 0,-8.45431 0,-8.45431 -4.75,-0.0147 c -6.161623,-0.0191 -9.665321,-1.80776 -10.054291,-5.13271 -0.484991,-4.14575 2.103467,-5.85255 8.87572,-5.85255 l 5.928571,0 0,-4.000004 0,-4 -12.5,0 -12.5,0 0,28.361674 0,28.36168 -6,12.69466 c -3.3,6.98206 -6,13.11931 -6,13.63832 0,0.56588 9.808372,0.94367 24.5,0.94367 14.691628,0 24.5,-0.37779 24.5,-0.94367 z M 82.050175,62.558093 c -1.144858,-0.463144 -3.282358,-2.269146 -4.75,-4.013339 -3.101273,-3.685654 -3.567787,-9.377978 -1.151511,-14.050541 3.486593,-6.742328 13.530388,-7.835548 18.712085,-2.036724 3.636438,4.069529 4.386487,7.565413 2.676076,12.472846 -2.315078,6.642313 -9.353362,10.108934 -15.48665,7.627758 z M 54.631231,55.276946 C 38.623082,44.349955 52.474897,18.89819 69.631737,27.71454 c 5.087446,2.614276 9.233718,8.784529 7.5,11.161085 -4.020656,5.511458 -4.804559,7.220347 -5.236642,11.415749 -0.269057,2.612464 -1.195609,5.295987 -2.066666,5.985572 -2.690678,2.130115 -11.456582,1.553304 -15.197198,-1 z M 82.268101,17.890582 C 76.564933,12.187415 80.573342,2.5269461 88.642919,2.5269461 c 3.031097,0 7.988818,5.2680126 7.988818,8.4888179 0,8.408545 -8.67691,12.561545 -14.363636,6.874818 z"
       id="path4156"
       inkscape:connector-curvature="0" />
    <path
       style="fill:#000000"
       d="m 9.0862821,242.0724 c -1.35,-1.35 -2.4545455,-3.19707 -2.4545455,-4.10462 0,-0.90754 9.4500004,-21.39837 21.0000004,-45.53517 l 21,-43.88511 0,-28.01027 c 0,-22.796848 -0.250342,-28.010284 -1.345012,-28.010284 -4.626531,0 -6.289979,-9.115377 -2.340537,-12.825686 2.262583,-2.125586 2.942202,-2.174314 30.325686,-2.174314 27.986846,0 28.013136,0.002 30.185556,2.314451 3.8366,4.083878 2.03672,12.685549 -2.65443,12.685549 -0.86714,0 -1.17126,7.27302 -1.17126,28.010284 l 0,28.01027 21,43.88511 c 11.55,24.1368 21,44.62763 21,45.53517 0,0.90755 -1.10455,2.75462 -2.45455,4.10462 l -2.45454,2.45455 -63.590913,0 -63.590909,0 -2.4545459,-2.45455 z M 98.96445,173.77695 c -0.860879,-2.0625 -3.412632,-7.35 -5.670562,-11.75 -3.281387,-6.3944 -4.211379,-9.4049 -4.633739,-15 l -0.528412,-7 -6.5,-0.28545 c -6.726455,-0.2954 -9,-1.64291 -9,-5.33425 0,-3.44941 2.817726,-4.8803 9.610361,-4.8803 l 6.467505,0 -0.288933,-8.75 -0.288933,-8.75 -6.980815,-0.5 c -6.503844,-0.46584 -7.045833,-0.68583 -7.932393,-3.21972 -0.752792,-2.15157 -0.567748,-3.14384 0.885803,-4.75 1.478753,-1.634 3.075826,-2.03028 8.182393,-2.03028 l 6.345012,0 0,-4.000004 0,-4 -13.5,0 -13.5,0 0,29.519984 0,29.51998 -4.383263,8.73002 c -2.410795,4.80151 -5.087833,10.41752 -5.948973,12.48002 l -1.565711,3.75 25.397947,0 25.397953,0 -1.56524,-3.75 z M 82.131737,62.163414 c -5.208347,-2.366698 -7,-5.23903 -7,-11.222225 0,-4.675819 0.402778,-5.77856 3.09338,-8.469162 6.281141,-6.281141 16.045109,-4.117624 19.234415,4.261995 3.661738,9.620893 -6.219923,19.568052 -15.327795,15.429392 z M 54.559404,55.123763 C 47.685983,50.453152 45.56817,39.205255 50.330319,32.66271 c 2.960052,-4.06671 10.08344,-7.351843 14.301418,-6.595466 5.016372,0.899547 9.37211,3.878592 11.530193,7.885909 1.710446,3.176106 1.735339,3.627568 0.290784,5.273627 -2.879582,3.281257 -4.820977,8.149866 -4.820977,12.089991 0,3.19716 -0.45319,4.095632 -2.547053,5.04966 -4.29759,1.958113 -10.609597,1.418107 -14.52528,-1.242668 z m 27.99541,-37.519894 c -1.994997,-1.994997 -2.923077,-3.924426 -2.923077,-6.076923 0,-4.013567 4.709409,-8.9999999 8.5,-8.9999999 3.790591,0 8.5,4.9864329 8.5,8.9999999 0,4.013567 -4.709409,9 -8.5,9 -1.599865,0 -3.814753,-1.160907 -5.576923,-2.923077 z"
       id="path4154"
       inkscape:connector-curvature="0" />
    <path
       style="fill:#000000"
       d="m 8.9905043,241.97663 c -1.9436162,-1.94362 -2.3968726,-3.16172 -1.9052859,-5.12036 0.3547704,-1.41352 9.8478706,-21.77116 21.0957776,-45.23919 l 20.450741,-42.66917 0,-28.21048 c 0,-23.916729 -0.219676,-28.210484 -1.443296,-28.210484 -2.161391,0 -4.556704,-4.021321 -4.556704,-7.649926 0,-2.271251 0.767593,-3.808703 2.634859,-5.277494 2.519099,-1.981523 3.831193,-2.07258 29.865141,-2.07258 26.033953,0 27.346043,0.09106 29.865143,2.07258 1.86727,1.468791 2.63486,3.006243 2.63486,5.277494 0,3.628605 -2.39531,7.649926 -4.5567,7.649926 -1.22362,0 -1.4433,4.293832 -1.4433,28.211084 l 0,28.21108 21,43.81344 c 11.55,24.09739 21,44.49786 21,45.33438 0,0.83651 -1.10455,2.62547 -2.45455,3.97547 l -2.45454,2.45455 -63.590913,0 -63.590909,0 -2.5503237,-2.55032 z M 100.63174,177.13299 c 0,-0.21669 -2.697895,-5.95419 -5.995318,-12.75 -5.365049,-11.05709 -5.995808,-13.01308 -6,-18.60604 l -0.0047,-6.25 -6.428571,0 c -8.746858,0 -12.140897,-3.50329 -7.916441,-8.17126 1.272069,-1.40562 3.123046,-1.82874 8,-1.82874 l 6.345012,0 0,-9 0,-9 -6.428571,0 c -8.746858,0 -12.140897,-3.50329 -7.916441,-8.17126 1.272069,-1.40562 3.123046,-1.82874 8,-1.82874 l 6.345012,0 0,-4.000004 0,-4 -13.5,0 -13.5,0 -0.0047,29.250004 -0.0047,29.25 -5.995315,12.35604 c -3.297393,6.79581 -5.995285,12.53331 -5.995285,12.75 0,0.21668 11.475,0.39396 25.5,0.39396 14.025,0 25.499998,-0.17728 25.499998,-0.39396 z M 81.901432,62.056343 C 76.067813,59.498666 72.994658,51.57406 75.7567,46.211205 c 3.40898,-6.618967 8.938135,-8.938215 15.1356,-6.348749 6.33993,2.648992 8.740867,9.418401 5.831574,16.442053 -2.319693,5.600234 -9.135622,8.245148 -14.822442,5.751834 z M 57.131737,56.562739 c -5.05849,-2.118075 -9.522925,-9.06749 -9.478038,-14.753674 0.03573,-4.526509 3.57102,-11.063543 7.169896,-13.257721 2.197511,-1.339788 5.059024,-2.018177 8.523346,-2.02066 4.439932,-0.0032 5.754984,0.470196 8.846275,3.184385 5.416983,4.756174 6.007128,7.199839 2.765223,11.450195 -1.886505,2.473335 -2.804054,5.072774 -3.11527,8.825636 -0.368476,4.443327 -0.841825,5.502242 -2.873344,6.427864 -2.816514,1.28329 -8.939281,1.357755 -11.838088,0.143975 z M 82.554814,17.603869 C 78.908677,13.957733 78.708477,9.7118271 82.002145,5.8827098 85.057583,2.3305515 90.621829,2.0725937 93.881232,5.3319966 c 3.341734,3.3417345 3.055758,9.6754674 -0.577986,12.8010824 -3.731409,3.209623 -7.179363,3.03986 -10.748432,-0.52921 z"
       id="path4152"
       inkscape:connector-curvature="0" />
    <path
       style="fill:#000000"
       d="M 10.858214,243.4985 C 8.055298,242.35872 6.6590233,238.87226 7.6694264,235.53617 8.0874107,234.1561 17.699925,213.71255 29.030568,190.10605 l 20.601169,-42.92089 0,-26.80343 0,-26.803424 -2.878819,-1.488695 c -4.850245,-2.508159 -5.626572,-8.148183 -1.666636,-12.10812 l 2.454546,-2.454545 27.590909,0 27.590913,0 2.45454,2.454545 c 3.95994,3.959937 3.18361,9.599961 -1.66663,12.10812 l -2.87882,1.488695 0,26.818334 0,26.81834 21.11725,43.90598 c 11.61449,24.1483 21.13949,45.16492 21.16667,46.70361 0.0272,1.53869 -0.71647,3.56369 -1.65254,4.5 -1.56258,1.56297 -6.87871,1.7186 -64.916669,1.90041 -36.903495,0.1156 -64.160999,-0.18677 -65.488237,-0.72648 z m 89.773526,-66.41522 c 0,-0.24401 -2.700003,-6.15626 -6.000003,-13.13832 -5.20713,-11.01713 -6,-13.46926 -6,-18.55634 l 0,-5.86167 -6.476947,0 c -5.80526,0 -6.646821,-0.25926 -8.11501,-2.5 -1.517417,-2.31587 -1.517417,-2.68413 0,-5 1.468189,-2.24074 2.30975,-2.5 8.11501,-2.5 l 6.476947,0 0,-9 0,-9 -6.443296,0 c -5.524701,0 -6.665229,-0.31685 -8,-2.22251 -2.003332,-2.86015 -1.964214,-3.36998 0.443296,-5.77749 1.559774,-1.55977 3.333333,-2 8.057498,-2 l 6.057498,0 -0.307498,-4.250004 -0.307498,-4.25 -13,0 -13,0 -0.5,30.000004 -0.5,30 -5.75,11.83031 c -3.1625,6.50666 -5.75,12.01916 -5.75,12.25 0,0.23083 11.475,0.41969 25.5,0.41969 14.025,0 25.500003,-0.19965 25.500003,-0.44367 z M 78.864756,59.744619 c -9.716999,-9.077037 0.396854,-25.283393 12.264159,-19.651988 4.326797,2.0532 6.502822,5.896284 6.502822,11.484655 0,3.385888 -0.625792,4.775452 -3.4,7.54966 -2.857969,2.857969 -4.116476,3.4 -7.894245,3.4 -3.535135,0 -5.129879,-0.593772 -7.472736,-2.782327 z M 56.04304,55.695406 C 48.395242,50.884732 45.865699,42.806543 49.594901,35.103039 55.001022,23.935484 69.628834,23.508855 75.951258,34.33434 c 1.909536,3.269578 1.908869,3.321238 -0.07097,5.496602 -3.112462,3.419842 -4.24855,6.229697 -4.24855,10.507818 0,4.895451 -1.661772,6.367341 -7.783179,6.893834 -3.468905,0.298355 -5.533989,-0.108334 -7.805518,-1.537188 z M 84.631737,19.23294 C 78.485026,16.123877 78.403525,7.420636 84.492459,4.3598421 c 4.500103,-2.2621183 8.711789,-0.7972046 10.899845,3.791198 1.487077,3.1184329 1.481738,3.6445759 -0.07001,6.8986249 -0.923927,1.937495 -2.836567,3.962495 -4.250312,4.5 -3.226449,1.226693 -3.406351,1.217846 -6.440245,-0.316725 z"
       id="path4150"
       inkscape:connector-curvature="0" />
  </g>
  <path
     style="fill:#000000"
     d=""
     id="path4146"
     inkscape:connector-curvature="0" />
</svg>
