<?xml version="1.0" encoding="UTF-8" standalone="no"?>
<!-- Created with Inkscape (http://www.inkscape.org/) -->

<svg
   xmlns:dc="http://purl.org/dc/elements/1.1/"
   xmlns:cc="http://creativecommons.org/ns#"
   xmlns:rdf="http://www.w3.org/1999/02/22-rdf-syntax-ns#"
   xmlns:svg="http://www.w3.org/2000/svg"
   xmlns="http://www.w3.org/2000/svg"
   xmlns:sodipodi="http://sodipodi.sourceforge.net/DTD/sodipodi-0.dtd"
   xmlns:inkscape="http://www.inkscape.org/namespaces/inkscape"
   version="1.1"
   id="svg10"
   width="2780"
   height="3720"
   viewBox="0 0 2780 3720"
   sodipodi:docname="map.png"
   inkscape:version="0.92.1 r15371">
  <metadata
     id="metadata16">
    <rdf:RDF>
      <cc:Work
         rdf:about="">
        <dc:format>image/svg+xml</dc:format>
        <dc:type
           rdf:resource="http://purl.org/dc/dcmitype/StillImage" />
        <dc:title></dc:title>
      </cc:Work>
    </rdf:RDF>
  </metadata>
  <defs
     id="defs14" />
  <sodipodi:namedview
     pagecolor="#ffffff"
     bordercolor="#666666"
     borderopacity="1"
     objecttolerance="10"
     gridtolerance="10"
     guidetolerance="10"
     inkscape:pageopacity="0"
     inkscape:pageshadow="2"
     inkscape:window-width="1600"
     inkscape:window-height="837"
     id="namedview12"
     showgrid="false"
     inkscape:zoom="0.16"
     inkscape:cx="3710.9201"
     inkscape:cy="1933.3385"
     inkscape:window-x="-8"
     inkscape:window-y="-8"
     inkscape:window-maximized="1"
     inkscape:current-layer="svg10" />
  <path
     style="fill:#429bda"
     d="m 1393.75,16 c -78.4472,0 -143.7271,5.020501 -216,16.613281 C 802.35861,92.82716 469.77131,306.81587 258.59961,624 132.67801,813.13681 56.633581,1029.164 36.300781,1255.5 c -4.1034,45.6779 -4.550781,57.7526 -4.550781,123 0,65.2474 0.447381,77.3221 4.550781,123 21.6853,241.3905 106.760189,470.923 247.775389,668.5 21.3557,29.9215 50.80944,67.6441 72.08594,92.3223 5.606,6.5023 10.59785,12.889 11.09375,14.1933 0.7968,2.0958 1020.93974,1437.2795 1024.82424,1441.7696 1.4825,1.7137 1.6121,1.7137 3.2304,0 3.1751,-3.3625 1024.0313,-1439.3983 1024.9336,-1441.7715 0.4955,-1.3033 5.4878,-7.6891 11.0938,-14.1914 21.2765,-24.6782 50.7302,-62.4008 72.0859,-92.3223 141.0016,-197.5579 226.0922,-427.1328 247.7754,-668.5 4.1034,-45.6779 4.5508,-57.7526 4.5508,-123 0,-65.2474 -0.4474,-77.3221 -4.5508,-123 C 2730.8675,1029.1771 2654.8147,813.12582 2528.9004,624 2303.6861,285.72353 1940.2505,65.380148 1537.75,23.085938 1488.8696,17.949648 1449.2454,16 1393.75,16 Z m -2,500.64453 c 48.726,0 78.2347,2.02567 122.7285,8.42969 151.7743,21.84499 294.957,84.5349 414.2715,181.3789 53.3426,43.29661 105.3887,97.32848 146.459,152.04688 93.3107,124.3188 151.3878,271.5368 167.4629,424.5 3.6934,35.1448 4.0783,44.0364 4.0683,94 -0.01,53.926 -0.7054,66.4766 -6.0547,109 -23.7901,189.1176 -109.277,363.6543 -244.4277,499.0469 -43.3383,43.4159 -84.0337,76.7092 -135.0078,110.4472 -90.0949,59.6307 -186.824,100.0593 -294,122.8809 -30.6637,6.5294 -65.1573,11.5788 -104,15.2246 -12.716,1.1935 -30.4851,1.7132 -65,1.9004 -26.125,0.1417 -49.525,0.09 -52,-0.1133 -2.475,-0.2036 -11.25,-0.8382 -19.5,-1.4101 -45.981,-3.1878 -96.4705,-11.4081 -144.5,-23.5293 -133.5692,-33.709 -254.4004,-98.0174 -359.5,-191.3301 -15.7273,-13.9635 -50.27876,-48.2813 -64.66406,-64.2266 C 646.78004,1831.5142 574.10756,1680.8993 547.28516,1518 528.08856,1401.4142 532.91324,1280.2681 561.27344,1166.7363 592.52274,1041.6387 651.86523,924.4153 733.76562,826 870.40513,661.80791 1060.8702,554.67661 1268.75,525.08594 c 45.3186,-6.45087 74.3273,-8.44141 123,-8.44141 z"
     id="path84"
     inkscape:connector-curvature="0" />
</svg>
