<?xml version="1.0" encoding="UTF-8" standalone="no"?>
<!-- Created with Inkscape (http://www.inkscape.org/) -->

<svg
   xmlns:dc="http://purl.org/dc/elements/1.1/"
   xmlns:cc="http://creativecommons.org/ns#"
   xmlns:rdf="http://www.w3.org/1999/02/22-rdf-syntax-ns#"
   xmlns:svg="http://www.w3.org/2000/svg"
   xmlns="http://www.w3.org/2000/svg"
   xmlns:sodipodi="http://sodipodi.sourceforge.net/DTD/sodipodi-0.dtd"
   xmlns:inkscape="http://www.inkscape.org/namespaces/inkscape"
   id="svg5810"
   version="1.1"
   inkscape:version="0.91 r13725"
   width="98"
   height="120"
   viewBox="0 0 98 120"
   sodipodi:docname="mappp.png">
  <metadata
     id="metadata5816">
    <rdf:RDF>
      <cc:Work
         rdf:about="">
        <dc:format>image/svg+xml</dc:format>
        <dc:type
           rdf:resource="http://purl.org/dc/dcmitype/StillImage" />
        <dc:title></dc:title>
      </cc:Work>
    </rdf:RDF>
  </metadata>
  <defs
     id="defs5814" />
  <sodipodi:namedview
     pagecolor="#ffffff"
     bordercolor="#666666"
     borderopacity="1"
     objecttolerance="10"
     gridtolerance="10"
     guidetolerance="10"
     inkscape:pageopacity="0"
     inkscape:pageshadow="2"
     inkscape:window-width="1600"
     inkscape:window-height="837"
     id="namedview5812"
     showgrid="false"
     inkscape:zoom="5.5625733"
     inkscape:cx="39.267243"
     inkscape:cy="69.527964"
     inkscape:window-x="-8"
     inkscape:window-y="-8"
     inkscape:window-maximized="1"
     inkscape:current-layer="svg5810" />
  <path
     style="fill:#000000"
     d="M 30.23054,95.365323 C 20.344259,81.663027 10.77186,67.611659 8.9585426,64.14006 -0.08376147,46.828563 3.3657286,26.63561 17.70112,12.961967 c 17.460183,-16.6541946 43.648545,-16.6541946 61.108728,0 C 92.570973,26.087855 96.35366,45.42092 88.512047,62.549261 86.686626,66.536504 53.028276,114.9222 48.858306,119.55365 48.499316,119.95237 40.116821,109.06762 30.23054,95.365323 Z M 56.42793,70.833334 C 67.628689,67.507066 75.746316,56.356739 75.723753,44.328701 75.694531,28.750482 63.982399,17.203702 48.210322,17.203702 c -25.644752,0 -37.229324,30.950003 -17.939892,47.92924 7.584718,6.676336 16.401253,8.597685 26.1575,5.700392 z"
     id="path6360"
     inkscape:connector-curvature="0" />
</svg>
