<svg id="Новости" xmlns="http://www.w3.org/2000/svg" width="43" height="54" viewBox="0 0 43 54">
  <metadata><?xpacket begin="﻿" id="W5M0MpCehiHzreSzNTczkc9d"?>
<x:xmpmeta xmlns:x="adobe:ns:meta/" x:xmptk="Adobe XMP Core 5.6-c138 79.159824, 2016/09/14-01:09:01        ">
   <rdf:RDF xmlns:rdf="http://www.w3.org/1999/02/22-rdf-syntax-ns#">
      <rdf:Description rdf:about=""/>
   </rdf:RDF>
</x:xmpmeta>
                                                                                                    
                                                                                                    
                                                                                                    
                                                                                                    
                                                                                                    
                                                                                                    
                                                                                                    
                                                                                                    
                                                                                                    
                                                                                                    
                                                                                                    
                                                                                                    
                                                                                                    
                                                                                                    
                                                                                                    
                                                                                                    
                                                                                                    
                                                                                                    
                                                                                                    
                                                                                                    
                           
<?xpacket end="w"?></metadata>
<defs>
    <style>
      .cls-1 {
        fill: #fff;
        fill-rule: evenodd;
      }
    </style>
  </defs>
  <path class="cls-1" d="M0.069,4.377H4.345v12.63H0.069V4.377Zm38.586,0H43v12.63H38.655V4.377ZM7.676,0V17.007H35.324V0H7.676ZM29.424,13.907H13.576V10.5H29.424v3.411h0Zm0-5.418H13.576V5.078H29.424v3.41h0ZM21.5,25.238a1.137,1.137,0,1,0,1.11,1.137A1.126,1.126,0,0,0,21.5,25.238Zm19.835-4.82H23.166v1.742a4.553,4.553,0,0,1,2.776,4.215,4.443,4.443,0,1,1-8.884,0,4.553,4.553,0,0,1,2.776-4.215V20.418H0V51.691l1.666-2.11,1.666-2.11,2.893-3.665H36.776l2.893,3.665,1.666,2.11L43,51.691V20.418H41.335ZM39.194,52.295l-1.346-1.705-2.663-3.373H7.815L5.152,50.589,3.806,52.295,2.461,54H40.54Z"/>
</svg>
