<?xml version="1.0" encoding="UTF-8" standalone="no"?>
<svg
   xmlns:dc="http://purl.org/dc/elements/1.1/"
   xmlns:cc="http://creativecommons.org/ns#"
   xmlns:rdf="http://www.w3.org/1999/02/22-rdf-syntax-ns#"
   xmlns:svg="http://www.w3.org/2000/svg"
   xmlns="http://www.w3.org/2000/svg"
   xmlns:sodipodi="http://sodipodi.sourceforge.net/DTD/sodipodi-0.dtd"
   xmlns:inkscape="http://www.inkscape.org/namespaces/inkscape"
   version="1.1"
   x="0px"
   y="0px"
   viewBox="0 0 71 72"
   xml:space="preserve"
   id="svg4148"
   inkscape:version="0.91 r13725"
   sodipodi:docname="service.svg"
   width="71"
   height="72"><metadata
     id="metadata4166"><rdf:RDF><cc:Work
         rdf:about=""><dc:format>image/svg+xml</dc:format><dc:type
           rdf:resource="http://purl.org/dc/dcmitype/StillImage" /><dc:title></dc:title></cc:Work></rdf:RDF></metadata><defs
     id="defs4164" /><sodipodi:namedview
     pagecolor="#ffffff"
     bordercolor="#666666"
     borderopacity="1"
     objecttolerance="10"
     gridtolerance="10"
     guidetolerance="10"
     inkscape:pageopacity="0"
     inkscape:pageshadow="2"
     inkscape:window-width="1600"
     inkscape:window-height="837"
     id="namedview4162"
     showgrid="false"
     inkscape:zoom="3.9333334"
     inkscape:cx="-15.791699"
     inkscape:cy="25.169491"
     inkscape:window-x="-8"
     inkscape:window-y="-8"
     inkscape:window-maximized="1"
     inkscape:current-layer="svg4148" /><g
     id="g4150"
     transform="matrix(2.9344141,0,0,2.9344141,0.5582165,0.97383961)"
     style="fill:#ffffff"><path
       d="M 6,0 2,0 C 1.173,0 0.5,0.673 0.5,1.5 l 0,21 C 0.5,23.327 1.173,24 2,24 l 4,0 c 0.827,0 1.5,-0.673 1.5,-1.5 l 0,-21 C 7.5,0.673 6.827,0 6,0 Z M 4,21 C 3.173,21 2.5,20.327 2.5,19.5 2.5,18.673 3.173,18 4,18 4.827,18 5.5,18.673 5.5,19.5 5.5,20.327 4.827,21 4,21 Z M 5,7 3,7 C 2.724,7 2.5,6.776 2.5,6.5 2.5,6.224 2.724,6 3,6 L 5,6 C 5.276,6 5.5,6.224 5.5,6.5 5.5,6.776 5.276,7 5,7 Z M 5,5 3,5 C 2.724,5 2.5,4.776 2.5,4.5 2.5,4.224 2.724,4 3,4 L 5,4 C 5.276,4 5.5,4.224 5.5,4.5 5.5,4.776 5.276,5 5,5 Z M 5,3 3,3 C 2.724,3 2.5,2.776 2.5,2.5 2.5,2.224 2.724,2 3,2 L 5,2 C 5.276,2 5.5,2.224 5.5,2.5 5.5,2.776 5.276,3 5,3 Z"
       id="path4152"
       inkscape:connector-curvature="0"
       style="fill:#ffffff" /><path
       d="M 14,0 10,0 C 9.173,0 8.5,0.673 8.5,1.5 l 0,21 c 0,0.827 0.673,1.5 1.5,1.5 l 4,0 c 0.827,0 1.5,-0.673 1.5,-1.5 l 0,-21 C 15.5,0.673 14.827,0 14,0 Z m -2,21 c -0.827,0 -1.5,-0.673 -1.5,-1.5 0,-0.827 0.673,-1.5 1.5,-1.5 0.827,0 1.5,0.673 1.5,1.5 0,0.827 -0.673,1.5 -1.5,1.5 z M 13,7 11,7 C 10.724,7 10.5,6.776 10.5,6.5 10.5,6.224 10.724,6 11,6 l 2,0 c 0.276,0 0.5,0.224 0.5,0.5 C 13.5,6.776 13.276,7 13,7 Z M 13,5 11,5 C 10.724,5 10.5,4.776 10.5,4.5 10.5,4.224 10.724,4 11,4 l 2,0 c 0.276,0 0.5,0.224 0.5,0.5 C 13.5,4.776 13.276,5 13,5 Z M 13,3 11,3 C 10.724,3 10.5,2.776 10.5,2.5 10.5,2.224 10.724,2 11,2 l 2,0 c 0.276,0 0.5,0.224 0.5,0.5 C 13.5,2.776 13.276,3 13,3 Z"
       id="path4154"
       inkscape:connector-curvature="0"
       style="fill:#ffffff" /><path
       d="m 22,0 -4,0 c -0.827,0 -1.5,0.673 -1.5,1.5 l 0,21 c 0,0.827 0.673,1.5 1.5,1.5 l 4,0 c 0.827,0 1.5,-0.673 1.5,-1.5 l 0,-21 C 23.5,0.673 22.827,0 22,0 Z m -2,21 c -0.827,0 -1.5,-0.673 -1.5,-1.5 0,-0.827 0.673,-1.5 1.5,-1.5 0.827,0 1.5,0.673 1.5,1.5 0,0.827 -0.673,1.5 -1.5,1.5 z M 21,7 19,7 C 18.724,7 18.5,6.776 18.5,6.5 18.5,6.224 18.724,6 19,6 l 2,0 c 0.276,0 0.5,0.224 0.5,0.5 C 21.5,6.776 21.276,7 21,7 Z M 21,5 19,5 C 18.724,5 18.5,4.776 18.5,4.5 18.5,4.224 18.724,4 19,4 l 2,0 c 0.276,0 0.5,0.224 0.5,0.5 C 21.5,4.776 21.276,5 21,5 Z M 21,3 19,3 C 18.724,3 18.5,2.776 18.5,2.5 18.5,2.224 18.724,2 19,2 l 2,0 c 0.276,0 0.5,0.224 0.5,0.5 C 21.5,2.776 21.276,3 21,3 Z"
       id="path4156"
       inkscape:connector-curvature="0"
       style="fill:#ffffff" /></g></svg>