<svg width="160" height="130" viewBox="0 0 160 130" xmlns="http://www.w3.org/2000/svg" xmlns:xlink="http://www.w3.org/1999/xlink"><title>ILLUSTRAT</title><defs><path id="a" d="M73.067.626H0v118.432h73.067V.626z"/><path id="c" d="M53.365 82.878V.038H.143v82.84h53.222z"/><path id="e" d="M9.731 20.401H0V.331h19.462V20.4z"/></defs><g fill="none" fill-rule="evenodd"><path d="M79.407 65.785c-1.943 21.545-3.322 34.782-4.359 43.207.578.881.8 2.023.405 3.354-.947 3.193-1.067 6.425-1.517 9.702a51.999 51.999 0 0 1-.249 1.592l.608.03c1.23-5.705 3.387-19.128 6.407-50.432-1.083-2.271-1.197-4.723-1.295-7.453" fill="#55473F"/><g transform="translate(15 .154)"><mask id="b" fill="#fff"><use xlink:href="#a"/></mask><path d="M71.084 8.235l-.082.524a63.514 63.514 0 0 0-4.084 6.786c.911.04 1.823.081 2.735.112.105-.08.208-.165.316-.233l-.038.241c.632.02 1.263.025 1.893.038.591-4.132 1.023-7.228 1.01-7.611-.047-1.559-.12-1.849.159-4.154.145-1.198.105-2.049-.382-2.642-.356-.432-.882-.67-1.48-.67a2.4 2.4 0 0 0-.46.045 691.666 691.666 0 0 0-8.469-.038c-20.152 0-59.784.37-60.58.37-.798 0-1.278.166-1.52.77-.24.604.002 1.167.138 1.47v4.835l.018.07c.06 1.69 3.767 25.73 4.19 31.099.05.624.115 2.326.35 4.893 2.578 30.816 4.69 50.29 6.31 62.588.727.688 1.23 1.657 1.303 2.913.182 3.156 1.21 6.292 2.248 9.417-1.402-9.13-3.989-29.756-7.874-75.059-.221-2.572-.302-4.277-.352-4.91-.252-3.194-1.696-13.047-2.898-20.963 3.23 5.015 6.489 12.912 6.836 13.506.415.71.61-.256.61-.256-2.331-10.1-6.148-16.474-8.46-19.862-.223-1.441-.405-2.606-.523-3.357 2.757.13 12.933.535 22.982-.036 10.784-.613 15.36-.258 19.769-.052 0 0 .084.007.09-.057.005-.065-.07-.069-.07-.069-2.69-.373-9.647-1.156-17.534-.664.005-.966.012-2.846-.003-3.222-.02-.509-.414-.44-.414-.44-.354.07-.413.44-.413.44v3.275c-.255.02-.511.042-.766.064.004-.921.012-2.947-.003-3.339-.02-.509-.414-.44-.414-.44-.354.07-.413.44-.413.44v3.411c-.095.01-.189.016-.284.025l-.483.015c.005-.856.014-3.042-.001-3.45-.02-.51-.414-.44-.414-.44-.355.07-.414.44-.414.44V7.53l-.767.018c.005-.83.015-3.076-.001-3.49-.02-.51-.414-.44-.414-.44-.355.07-.414.44-.414.44v3.507l-.767.014c.005-.8.015-3.101-.001-3.522-.02-.509-.413-.44-.413-.44-.355.07-.415.44-.415.44v3.534l-.766.01c.004-.775.014-3.12-.002-3.544-.02-.509-.413-.44-.413-.44-.355.07-.414.44-.414.44V7.61l-.767.006c.004-.76.015-3.131-.002-3.559-.02-.509-.413-.44-.413-.44-.355.07-.414.44-.414.44V7.62l-.767.003c.004-.752.016-3.137 0-3.566-.021-.509-.415-.44-.415-.44-.354.07-.414.44-.414.44v3.566l-.767-.003c.004-.753.016-3.134 0-3.563-.02-.509-.415-.44-.415-.44-.354.07-.413.44-.413.44v3.559l-.768-.007c.005-.767.016-3.126 0-3.552-.02-.509-.415-.44-.415-.44-.354.07-.413.44-.413.44v3.541l-.767-.011c.004-.79.015-3.108-.001-3.53-.02-.509-.414-.44-.414-.44-.355.07-.414.44-.414.44v3.514l-.766-.016c.003-.823.014-3.082-.002-3.498-.02-.509-.414-.44-.414-.44-.354.07-.413.44-.413.44v3.475l-.766-.023c.003-.856.013-3.043-.003-3.452-.02-.509-.414-.44-.414-.44-.354.07-.413.44-.413.44V7.48l-.766-.031c.004-.893.013-2.991-.003-3.39-.02-.51-.413-.44-.413-.44-.355.07-.414.44-.414.44V7.41c-.256-.012-.512-.024-.765-.039.004-.931.011-2.925-.003-3.314-.02-.509-.414-.44-.414-.44-.355.07-.414.44-.414.44v3.266a75.649 75.649 0 0 1-.765-.05c.005-.967.012-2.84-.003-3.216-.02-.509-.414-.44-.414-.44-.355.07-.414.44-.414.44v3.155l-.207-.016v-4.03L2.26 2.99c5.24-.045 41.158-.363 59.942-.363 3.84 0 6.721.013 8.563.04l.111.027.175-.066a.424.424 0 0 1 .039-.006c.027.115.056.39-.05.936a11.325 11.325 0 0 0-.134 3.626c-.182.02-.378.04-.575.06.005-.976.011-2.815-.003-3.187-.02-.509-.414-.44-.414-.44-.354.07-.413.44-.413.44v3.268c-.249.024-.504.048-.766.071.004-.92.012-2.947-.003-3.339-.02-.509-.414-.44-.414-.44-.354.07-.413.44-.413.44v3.414l-.767.066c.005-.836.014-3.067-.001-3.48-.02-.509-.414-.44-.414-.44-.355.07-.414.44-.414.44v3.55l-.765.062c.005-1.148.01-3.244-.003-3.612-.02-.509-.413-.44-.413-.44-.355.07-.415.44-.415.44v3.679l-.765.06c.005-1.115.012-3.358-.003-3.739-.02-.509-.413-.44-.413-.44-.355.07-.414.44-.414.44V7.86l-.766.06c.004-1.06.013-3.467-.003-3.863-.02-.509-.413-.44-.413-.44-.355.07-.414.44-.414.44v3.925l-.766.058c.004-.989.014-3.572-.003-3.983-.019-.509-.413-.44-.413-.44-.355.07-.413.44-.413.44v4.044l-1.693.126c-.942.072-.236.419-.236.419 5.329.34 11.091-.196 13.086-.411" fill="#554740" mask="url(#b)"/></g><path d="M30.256 30.246c.038-.06.144-.028.216-.034l-.234.378c-.026-.056-.026-.273.018-.344zm.272-.028c.011.007.043.028.138.068l-.29.465c-.042-.051-.079-.075-.106-.117l.258-.416zm.285.204l-.258.417a.46.46 0 0 1-.136-.06l.28-.463c.04.042.084.07.114.106zm.107.273c-.052.073-.25.15-.31.15l.228-.367c.031.059.103.184.082.217zm-.597.191a.504.504 0 0 0 .701-.153.53.53 0 0 0-.148-.726c-.217-.144-.525-.131-.701.154a.534.534 0 0 0 .148.725zm1.129-4.832l.101.097-.468.52a.444.444 0 0 0-.165-.026l.532-.591zm.308.298l-.429.476a.71.71 0 0 0-.16-.128l.442-.491.147.143zm.4-1.094c.527-.586 1.4.31 1.57.474.336.323 1.065 1.062.503 1.686l-.387.43-2.15-2.075.464-.515zm.646-.498c-.056.052-.11.151-.189.21-.047.033-.177.015-.23.045.117-.101.28-.186.42-.255zm.426-.043l-.278.31c-.046-.027-.153-.04-.22-.052l.214-.248c.034-.038.19-.02.284-.01zm.345.038l-.365.405a.754.754 0 0 0-.168-.11l.313-.347c.062.007.157.036.22.052zm.102.01c.055.026.141.064.187.1l-.404.447c-.014-.013-.041-.04-.16-.128l.377-.42zm.463.25l-.442.491c-.036-.036-.123-.092-.173-.14l.428-.477c.041.012.092.061.187.127zm.22.186l-.455.506-.147-.143.455-.505.148.142zm.177.224l-.442.491c-.096-.093-.12-.143-.135-.156l.443-.492c.083.08.107.13.134.157zm.157.285l-.403.448a1.005 1.005 0 0 0-.15-.17l.443-.49c.029.054.068.145.11.212zm.074.348l-.326.352c-.03-.054-.08-.13-.11-.185l.383-.415c.016.07.05.165.053.248zm.027.39l-.25.277c-.015-.069-.049-.164-.065-.233l.3-.333c.016.068.024.192.015.29zm-.208.575l-.043.048c.022-.273.006-.227.11-.332l.102-.123a2.22 2.22 0 0 1-.169.407zm-1.528 1.687a.73.73 0 0 0-.037-.178l.468-.51.1.097-.531.591zm-.205-.412l.428-.477.148.142-.443.492c-.028-.055-.092-.117-.133-.157zm-.06-.058l-.143-.137.43-.477.142.138-.43.476zm-.364-.35l.429-.477.161.156-.429.475-.16-.155zm-.208-.2l.43-.477.147.142-.43.477-.147-.142zm-.202-.196l.429-.476.148.141-.43.477-.147-.142zm-.221-.213l.43-.476.16.155-.43.476-.16-.155zm-.207-.2l.429-.477.148.143-.43.476-.147-.142zm-.203-.195l.43-.477.146.142-.429.477-.147-.142zm-.227-.006l1.667 1.608c.303.293-.147.66-.225.755l.074.08 1.829-2.03c.138-.152.479-.732.483-.736.125-.263.118-.848-.012-1.134-.101-.23-.216-.448-.377-.604-.525-.506-1.482-.647-2.15.009-.057.053-.152.12-.178.15l-1.91 2.11.083.08c.15-.166.426-.568.716-.288zm4.177-4.57l.081.117-.556.416a.434.434 0 0 0-.158-.058l.633-.474zm.242.359l-.51.382a.745.745 0 0 0-.133-.158l.526-.394.117.17zm.172.233l-.51.382-.119-.169.51-.382.119.169zm.251-1.097a1.1 1.1 0 0 1 .336-.099c.228-.017.456.198.572.352.225.322.218.746-.093.979l-.337.252-.845-1.209.367-.275zm.594-.43c.032-.031.237-.072.362-.093l-.45.336c-.052-.008-.14-.023-.208-.02l.296-.222zm.727-.005l-.515.386a.977.977 0 0 0-.195-.111l.495-.37c.064.024.161.063.215.095zm.222.196l-.53.398a.617.617 0 0 0-.129-.162l.506-.378c.033.015.063.057.153.142zm.107.275l-.514.376a.609.609 0 0 0-.088-.192l.53-.397c.017.068.054.153.072.213zm.005.374l-.45.336c-.002-.07-.023-.167-.036-.253l.5-.375c.002.07.002.183-.014.292zm.08.76c.049.036.137.083.206.127l-.479.36c-.064-.025-.142-.07-.226-.113l.5-.374zm.496.264l-.48.36c-.053-.033-.146-.067-.196-.103l.485-.363a1.1 1.1 0 0 0 .191.106zm.289.146l-.48.359a1.17 1.17 0 0 0-.2-.108l.47-.351c.055.023.146.075.21.1zm.221.116l-.465.347c-.037-.02-.093-.067-.13-.086l.443-.333c.038.02.11.055.152.072zm-1.789-.301l.5-.375c.048.036.13.087.2.108l-.485.363c-.064-.025-.151-.071-.215-.096zm-.092-.044a1.78 1.78 0 0 0 .248-.29c.032-.065.07-.198.125-.23l.347-.26c-.062.11-.128.304-.221.415-.051.062-.17.126-.246.183l.017-.02-.27.202zm-.274.954l-.51.382-.13-.185.51-.382.13.185zm.162.232l-.51.382-.115-.164.51-.382.115.164zm.166.238l-.525.393a.76.76 0 0 0-.103-.18l.51-.382.118.169zm.211.123l-.714.535a.703.703 0 0 0-.004-.182l.57-.42c.038.021.099.064.148.067zm-1.345-.634l.51-.382.118.17-.51.381-.118-.169zm-.162-.232l.51-.382.118.169-.51.382-.118-.17zm-.178-.254l.51-.382.13.185-.51.382-.13-.185zm-.166-.237l.51-.382.119.169-.51.382-.12-.169zm-.345-.305l1.337 1.912c.243.348-.267.618-.36.696l.057.094 1.923-1.44-.063-.09c-.138.135-.468.319-.646.064l-.623-.892.204-.153 1.562.745 1.204-.901-.063-.09c-.113.06-.252.172-.412.155-.414-.036-.759-.34-1.357-.617.382-.421.458-.857.207-1.216-.336-.48-.957-.345-1.268-.112l-2.525 1.89.066.096c.179-.134.524-.473.757-.14zm4.891-.909c.083-.047.11.018.236.08l-.391.223c-.027-.119.11-.278.155-.303zm.393.349l-.42.238c-.009-.017-.04-.037-.122-.191l.436-.247.106.2zm-.048.317a.657.657 0 0 1-.3-.024l.36-.203c-.006.07-.021.205-.06.227zm.096.086a.513.513 0 0 0 .187-.678.474.474 0 0 0-.652-.187.49.49 0 0 0-.201.664c.127.24.407.348.666.201zm2.211-3.746c.002.068.013.16.032.216l-.634.217c0-.061-.01-.154-.012-.216l.614-.217zm-.544-.117l.56-.193c-.012.06-.005.162-.005.223l-.601.213a1.61 1.61 0 0 1 .046-.243zm.201-.375l.411-.145c-.017.067-.03.169-.047.237l-.524.185c.047-.099.101-.255.16-.277zm.53-.532l.084-.029a1.05 1.05 0 0 0-.145.306l-.4.142c.107-.121.263-.355.461-.42zm-.528 2.308a.673.673 0 0 1-.1-.184l.63-.224c.007.019.023.068.084.191l-.614.217zm.765.06l-.578.204c-.044-.053-.088-.127-.148-.188l.619-.22c.036.05.059.117.107.204zm.197.233l-.506.18c-.06-.041-.146-.1-.196-.151l.567-.195c.035.044.1.117.135.166zm.237.233c-.172.026-.34.238-.636.011l.457-.168c.054.043.119.117.179.157zm.278.177c-.111.046-.306.019-.486-.02l.28-.1c.056.028.135.09.206.12zm-1.685-1.152l.65-.23.064.197-.65.23-.064-.197zm-.062-.309l.649-.23a.996.996 0 0 0 .054.222l-.65.23c-.038-.117-.04-.185-.053-.222zm2.573-1.937l.03.01.022.068-.243.086c-.006-.018-.035-.043-.059-.055.074-.02.179-.064.25-.109zm.162.349c-.06-.04-.172-.098-.226-.14l.16-.058.066.198zm-.425 3.063c.596-.211 1.196-.712 1.307-1.723-.024-.012-.08-.02-.103-.032-.078.813-.562 1.362-1.056 1.538-.726.257-1.135-.776-1.286-1.232-.106-.32-.483-1.523.25-1.783.595-.21 1.231.163 1.796.763.01-.031.033-.04.051-.046l-.478-1.284-.083.03c-.12.242-.255.338-.385.384-.28.099-.55-.136-1.182.088-.87.308-1.532 1.203-1.184 2.257.353 1.046 1.442 1.362 2.353 1.04zm2.129-1.083c.036-.018.088-.014.131-.02.08-.02.135-.035.227.108l-.523.083c.048-.02.115-.123.165-.17zm.2-.288l.025.167-.144.023a1.38 1.38 0 0 0 .119-.19zm.66-1.773l.771 1.031-1.182.188.412-1.22zm.049-.186l.679-.108c.027.055.096.137.123.191l-.696.111c-.042-.026-.116-.093-.123-.139-.001-.052.02-.035.017-.055zm.3-.344c.161-.026.165-.046.316.16l-.572.091c.084-.244.075-.223.255-.25zm-.046-.303c.046.052.104.136.152.206l-.243.04c.035-.065.066-.163.091-.246zm.762 1.013l-.716.114c-.027-.056-.096-.137-.145-.208l.716-.114c.046.053.103.135.145.208zm.198.259l-.716.113a1.231 1.231 0 0 0-.13-.184l.723-.114c.027.048.096.13.123.185zm.211.262l-.716.114c-.044-.045-.103-.135-.148-.18l.715-.12c.046.052.103.135.15.186zm.213.283l-.74.118a1.965 1.965 0 0 0-.127-.211l.716-.113a.748.748 0 0 0 .151.206zm.18.262l-.716.114c-.038-.04-.096-.13-.142-.182l.734-.117c.027.049.084.132.123.185zm.217.262l-.753.12c-.027-.056-.078-.14-.105-.194l.715-.114c.046.052.103.135.143.188zm.17.204l-.977.155c.026-.043.04-.118.053-.16l.828-.125a.355.355 0 0 0 .096.13zm-1.923.43l-.017-.11c-.439.09-.72-.181-.769-.503a.41.41 0 0 1 .023-.188l1.27-.202c.055.07.332.389.352.524.044.296-.447.295-.503.304l.023.115 2.471-.392-.016-.11c-.143.03-.331.046-.442-.015-.064-.042-.154-.088-.193-.14a71.658 71.658 0 0 1-1.608-2.08 17.84 17.84 0 0 0-.476-.636l-.106.017a228.65 228.65 0 0 1-.937 2.569c-.136.377-.405.967-.806 1.011l.016.11 1.718-.274zm4.585-3.401l-.686-.026a.48.48 0 0 0-.089-.147l.78.03-.005.143zm-.89 2.847a.677.677 0 0 0 .106-.146l.698.034c.017.04.04.112.077.146l-.88-.034zm.806-.692l-.007.201-.63-.024.008-.202.629.025zm.012-.312l-.009.227-.629-.024.009-.228.629.025zm.01-.294l-.007.209-.63-.025.008-.208.629.024zm.01-.286l-.007.208-.63-.025.009-.208.628.025zm.011-.312l-.007.227-.63-.024.008-.228.63.025zm.01-.294l-.006.209-.63-.025.008-.208.629.024zm.017-.28l-.007.209-.63-.025.009-.208.628.024zm-.003-.085l-.63-.024a.802.802 0 0 0-.01-.209l.648.025-.008.208zm-.706 2.125l.629.024-.007.209-.649-.025c.021-.058.024-.15.027-.208zm1.1-2.553l.453.018c.043.002.211.067.322.136.19.132.242.447.241.642-.014.397-.271.726-.655.712l-.415-.017.054-1.49zm1.175.059c.045-.005.23.093.341.157l-.553-.021c-.037-.041-.097-.109-.152-.15l.364.014zm.576.46l-.635-.026a1.029 1.029 0 0 0-.087-.211l.61.023c.036.06.089.153.112.213zm.059.295l-.654-.026a.637.637 0 0 0-.006-.208l.623.024c.018.033.016.085.037.21zm-.08.283l-.629-.03a.599.599 0 0 0 .045-.207l.655.025c-.027.064-.05.155-.07.212zm-.219.298l-.553-.02c.04-.058.08-.148.121-.225l.617.025a1.49 1.49 0 0 1-.185.22zm-.576.265c-.076.017-.207-.008-.302-.011l.025-.006-.333-.013a1.71 1.71 0 0 0 .368-.07c.064-.03.174-.11.237-.102l.427.016c-.115.048-.282.16-.422.186zm.456.995c.03.054.07.153.106.213l-.592-.022a1.26 1.26 0 0 0-.093-.213l.579.022zm.21.446l-.572-.023c-.017-.04-.034-.112-.052-.152l.548.022c.018.04.053.112.077.153zm-.93-.76l.598.023c.017.053.052.146.087.206l-.591-.024c-.023-.059-.077-.146-.094-.205zm-.165-.32l.617.025c.016.059.058.152.086.231l-.591-.023c-.036-.06-.071-.146-.112-.233zm-.133-.298l.615.024a.8.8 0 0 0 .094.212l-.598-.023c-.035-.06-.076-.153-.111-.213zm.083 1.353c-.19.018-.56-.048-.548-.36l.04-1.1.251.01.788 1.582 1.484.056.004-.11c-.125-.024-.301-.025-.417-.14-.304-.292-.395-.752-.7-1.35.55-.09.87-.385.885-.827.022-.593-.547-.882-.93-.897l-3.115-.12-.004.117c.22.009.694-.038.68.372l-.086 2.357c-.015.43-.578.317-.698.319l-.01.11 2.372.091.004-.11zm4.296-2.5a.343.343 0 0 0-.085.127l-.856-.19c-.043-.07-.09-.154-.14-.185l1.081.248zm-.724.581c-.001-.054-.043-.163-.049-.225l.707.163c.026.059.05.158.067.229l-.725-.167zm.82.476l-.707-.162c-.02-.053-.043-.157-.068-.223l.727.16c.006.061.042.163.048.225zm.1.343l-.724-.166a2.125 2.125 0 0 0-.045-.244l.707.162c.018.065.042.163.062.248zm.088.313l-.706-.162c-.025-.065-.05-.158-.075-.224l.707.162c.025.06.05.159.074.224zm.08.32l-.706-.163c-.019-.064-.044-.157-.069-.222l.727.16c.007.055.048.164.049.224zm.106.344l-.724-.166a2.125 2.125 0 0 0-.045-.244l.707.162c.024.065.048.164.062.248zm.095.315l-.707-.162c-.025-.066-.05-.159-.075-.224l.731.168c.008.055.026.152.05.218zm-.425.203c-.19-.044-.203-.014-.245-.27l.596.137c-.146.2-.13.183-.35.133zm-.061.347c-.043-.07-.062-.188-.097-.297l.282.065c-.046.063-.131.163-.185.232zm-.95-3.208l.762.174a.654.654 0 0 0 .018.218l-.707-.162c-.025-.066-.049-.165-.073-.23zm2.66.377l.62.142c-.11.155-.24.098-.32.08-.062-.014-.228-.018-.3-.222zm.19.61c-.003-.1-.02-.237-.036-.34l.277.062c-.076.083-.165.196-.24.279zm-2.91-.795c.297 1.05.597 2.113.915 3.16l.08.019c.686-.797 1.37-1.608 2.068-2.369.09-.092.259-.187.377-.26.111-.067.339-.136.442-.105l.024-.108-1.654-.38-.023.109c.437.067.61.433.543.745-.06.28-.759 1.013-.995 1.273-.155-.51-.295-1.029-.436-1.542-.04-.143-.102-.337-.07-.49.057-.293.503-.09.565-.077l.023-.108-2.482-.57-.024.108c.254.018.552.254.646.595zM61.998 34.6c-1.298.024-2.614.048-3.942.068v.272c1.357-.021 2.731-.044 4.094-.07a1.62 1.62 0 0 1-.152-.27m9.269 72.417l3.684-59.534a1.76 1.76 0 0 1-.283.04L71.03 107.02c.079-.001.158-.005.237-.004M32.35 116.27l.14.009c.04-.093.084-.173.126-.264l-.16-.01-4.959-81.453c.909.046 9.111.28 17.537.396v-.272c-9.33-.128-17.64-.4-17.69-.403l-.155-.009 5.052 81.998.11.007z" fill="#554740"/><path d="M51.82 62.153c-10.961 0-18.162-.245-21.482-.392l-.004-.271c3.32.146 10.521.391 21.487.391 10.871 0 20.698-.466 20.796-.47l-.003.27c-.098.005-9.923.472-20.793.472m-.013 12.152c-10.6 0-17.56-.245-20.77-.391l-.004-.272c3.21.146 10.172.392 20.774.392 10.51 0 20.011-.466 20.106-.471l-.003.271c-.095.005-9.595.471-20.103.471m-.012 10.361c-10.284 0-17.044-.245-20.16-.392l-.005-.271c3.117.146 9.877.391 20.165.391a434.1 434.1 0 0 0 19.518-.47l-.003.27c-.092.005-9.314.472-19.515.472m8.157 6.139c-.17 0-.304-.147-.303-.333.001-.187.141-.342.313-.346 3.444-.074 6.372-.178 8.223-.253.17-.007.31.139.307.326-.003.188-.146.345-.317.352-1.85.075-4.777.18-8.217.254h-.006zm-5.843.085c-.17 0-.308-.151-.308-.338 0-.187.14-.34.312-.342a403.86 403.86 0 0 0 4.105-.05h.005c.17 0 .305.148.304.334 0 .188-.141.342-.313.345a371.51 371.51 0 0 1-4.102.05h-.003zm-2.32.007c-.78 0-1.54-.001-2.28-.004-.17 0-.31-.153-.31-.34-.002-.188.137-.339.308-.339.741.003 1.502.004 2.283.004h.394c.172 0 .31.151.31.34 0 .187-.14.339-.311.34h-.394zm-4.33-.015h-.002c-.793-.006-1.56-.014-2.3-.022-.172-.002-.313-.156-.314-.343-.002-.187.134-.336.304-.336h.004c.74.008 1.508.016 2.302.021.172.002.312.155.313.342 0 .187-.136.338-.307.338m-3.791-.042h-.004a458.797 458.797 0 0 1-5.417-.11c-.171-.004-.313-.16-.317-.347-.003-.188.134-.342.306-.332 1.734.046 3.558.083 5.42.11.172.002.313.157.315.344.002.186-.134.335-.303.335m-7.46-.17h-.01c-.623-.02-1.196-.039-1.718-.06-.172-.005-.314-.162-.317-.35-.004-.183.126-.328.294-.328h.01c.523.02 1.096.04 1.719.06.172.005.314.162.317.349.003.184-.128.33-.295.33m27.854 3.019c-.165 0-.297-.145-.295-.329.002-.187.142-.344.313-.35 1.33-.04 2.661-.089 3.956-.141.172-.006.307.139.304.327-.003.187-.144.344-.314.351-1.295.053-2.625.1-3.954.143h-.01m-3.323.092c-.168 0-.301-.148-.3-.332.002-.188.141-.343.312-.347.55-.014 1.084-.027 1.603-.042.175-.007.306.144.305.332-.002.187-.142.343-.312.347-.518.015-1.053.029-1.602.042h-.007m-2.462.051c-.167 0-.302-.148-.301-.334 0-.188.14-.342.31-.345l1.17-.023h.006c.168 0 .302.148.3.333-.001.188-.14.343-.31.347l-1.17.022h-.005zm-2.959.042c-.169 0-.304-.15-.304-.336 0-.188.14-.342.31-.343.583-.006 1.159-.014 1.726-.022h.003c.17 0 .304.149.303.335 0 .187-.14.342-.31.344a308.4 308.4 0 0 1-1.725.022h-.003zm-3.532.018c-.17 0-.308-.152-.307-.34 0-.187.138-.339.308-.339.692 0 1.377-.002 2.055-.006h.002c.17 0 .307.15.306.338 0 .187-.14.34-.31.341-.677.004-1.362.006-2.054.006m-1.518-.001a565.412 565.412 0 0 1-4.686-.032c-.17-.002-.309-.156-.31-.343-.003-.186.133-.336.302-.336h.003c1.521.017 3.098.027 4.69.031.17.001.308.153.308.341 0 .187-.137.339-.307.339m-6.16-.05h-.004l-.986-.015c-.17-.002-.31-.157-.312-.345-.003-.187.136-.333.304-.334l.987.015c.17.002.31.156.311.343.003.187-.132.336-.3.336m-2.529-.042h-.006a427.37 427.37 0 0 1-3.388-.078c-.17-.005-.31-.16-.315-.348-.003-.185.129-.331.295-.331h.008c1.1.03 2.24.056 3.391.078.17.003.31.158.313.345.002.186-.13.334-.298.334m-4.806-.12h-.008c-.786-.024-1.497-.049-2.133-.073-.17-.006-.311-.164-.315-.35-.004-.189.129-.34.302-.328.636.023 1.347.048 2.133.072.17.006.312.162.315.35.003.184-.128.33-.294.33m22.177 2.991c-.166 0-.3-.148-.298-.334.001-.187.139-.342.308-.345a433.64 433.64 0 0 0 8.936-.272c.168-.007.304.14.3.327-.002.187-.142.345-.31.352-2.021.083-5.21.198-8.93.272h-.006zm-4.338.062c-.167 0-.302-.15-.302-.337 0-.188.137-.34.306-.342.899-.008 1.805-.019 2.692-.033.171-.007.305.147.304.335-.001.187-.138.342-.307.344-.887.014-1.793.025-2.69.033h-.003zm-2.829.012h-1.078c-.169-.002-.306-.154-.306-.34 0-.189.136-.34.305-.34.682.002 1.385.002 2.079 0 .169 0 .305.15.304.338 0 .188-.137.34-.306.34l-.998.002m-2.603-.006h-.002c-.52-.002-1.03-.005-1.528-.01-.169 0-.306-.153-.307-.34-.002-.187.133-.338.301-.338h.002a460.7 460.7 0 0 0 1.53.01c.169 0 .306.153.307.34 0 .187-.136.338-.304.338m-3.176-.023H46c-1.845-.02-3.656-.048-5.382-.086-.169-.003-.308-.158-.311-.346-.003-.188.132-.335.3-.333 1.729.038 3.54.066 5.387.085.17.002.308.156.309.344.001.186-.133.336-.3.336m-7.023-.125h-.008a342.535 342.535 0 0 1-4.197-.132c-.169-.006-.31-.164-.312-.351-.004-.187.127-.339.3-.328 1.306.05 2.718.094 4.198.132.169.005.309.16.311.348.003.185-.128.331-.293.331m24.514 2.814c-.164 0-.293-.146-.29-.33 0-.188.139-.343.306-.349 1.438-.044 2.866-.097 4.246-.154.166-.005.301.14.298.327-.003.188-.142.346-.31.352-1.378.058-2.805.109-4.242.154h-.008m-9.393.184c-.166 0-.3-.15-.3-.338 0-.187.137-.34.304-.341a376.04 376.04 0 0 0 7.156-.12h.007c.165 0 .295.147.293.332-.002.187-.14.343-.307.347-2.45.063-4.855.104-7.15.12H54.1zm-2.32.009l-.948-.001c-.167 0-.303-.152-.303-.34 0-.187.135-.34.302-.34l.95.001h.566c.167 0 .303.152.302.339 0 .188-.136.34-.304.34h-.565zm-2.279-.005a518.735 518.735 0 0 1-5.633-.052c-.167-.003-.305-.157-.307-.344-.002-.187.13-.335.296-.335h.004c1.823.027 3.719.044 5.637.052.167 0 .304.153.304.34 0 .188-.134.339-.3.339m-7.327-.081h-.005l-1.15-.022c-.167-.004-.305-.159-.308-.347-.003-.185.127-.332.292-.332h.006l1.151.022c.168.003.305.158.308.346.002.185-.129.333-.294.333m-2.785-.06h-.006c-1.571-.04-3.073-.087-4.465-.14-.168-.007-.307-.165-.31-.352-.004-.187.127-.34.296-.327 1.392.053 2.896.1 4.468.14.167.003.306.16.308.346.003.185-.126.333-.29.333m23.031 2.835c-.162 0-.291-.147-.289-.33.002-.189.138-.344.305-.35 1.757-.05 3.499-.111 5.175-.182.165-.007.299.14.296.327-.004.187-.141.345-.307.352-1.675.07-3.415.132-5.172.183h-.008m-3.303.083c-.164 0-.294-.148-.293-.334.002-.187.137-.342.304-.345.532-.011 1.053-.023 1.561-.036.164-.009.3.145.298.332-.003.188-.138.343-.304.347-.507.012-1.028.025-1.56.036h-.006zm-6.841.08c-.166 0-.3-.152-.3-.34 0-.187.135-.34.301-.34 1.654-.002 3.393-.018 5.168-.048h.004c.164 0 .295.149.294.335-.001.188-.137.342-.302.344-1.774.03-3.511.046-5.165.049zm-1.08 0l-1.862-.005c-.165 0-.3-.154-.3-.341-.002-.187.131-.338.297-.338h.001l1.864.005c.165 0 .3.152.3.34 0 .187-.135.339-.3.339m-3.42-.014h-.003c-1.068-.008-2.14-.019-3.183-.033-.166-.002-.302-.157-.304-.344-.002-.186.13-.335.293-.335h.004c1.044.014 2.117.025 3.187.033.166.001.301.154.302.341.001.187-.131.338-.296.338m-4.803-.058h-.005a421.757 421.757 0 0 1-4.327-.096c-.166-.005-.303-.16-.307-.348-.003-.185.125-.331.288-.331h.007c1.385.038 2.842.07 4.33.096.167.003.304.157.305.344.003.186-.127.335-.29.335m-6.067-.149H36.9c-.67-.021-1.284-.043-1.838-.065-.166-.006-.303-.164-.307-.351-.004-.188.125-.34.294-.328.554.022 1.167.043 1.838.065.166.006.303.162.307.35.003.184-.123.33-.285.33m28.461 2.741c-.16 0-.285-.145-.283-.328.002-.188.139-.345.304-.351.776-.028 1.475-.056 2.084-.082.163-.006.296.139.293.327-.004.187-.14.344-.304.351-.608.026-1.307.054-2.084.083h-.01m-3.402.111c-.161 0-.289-.147-.287-.331.002-.187.137-.343.302-.348.713-.02 1.392-.041 2.034-.062.164-.011.296.141.293.329-.002.187-.138.343-.303.349-.64.022-1.32.043-2.031.063h-.008m-5.535.119c-.163 0-.294-.15-.293-.335.001-.188.135-.342.3-.344 1.233-.018 2.496-.042 3.754-.072h.006c.162 0 .29.147.289.332-.002.187-.137.343-.302.347-1.256.03-2.518.055-3.75.072h-.004zm-3.033.029c-.163 0-.296-.15-.296-.337 0-.188.134-.341.3-.342.5-.002.997-.006 1.489-.01h.003c.163 0 .295.149.294.335 0 .188-.135.342-.299.343-.492.005-.989.009-1.49.011zm-1.626.005c-.705 0-1.392-.002-2.063-.004-.164-.001-.298-.153-.298-.341 0-.187.132-.338.296-.338.671.002 1.36.003 2.066.003h.318c.165 0 .298.152.297.34 0 .187-.134.339-.298.34h-.318zm-3.727-.013h-.002c-1.399-.01-2.78-.025-4.108-.045-.164-.003-.298-.157-.3-.344-.003-.186.126-.335.289-.335h.004c1.328.02 2.712.036 4.111.045.165.001.3.154.3.341 0 .188-.13.338-.294.338m-5.831-.074h-.005a353.724 353.724 0 0 1-7.009-.2c-.165-.006-.3-.163-.305-.35-.004-.184.121-.329.281-.329h.01c2.144.084 4.503.15 7.013.199.165.003.3.158.303.345.003.186-.126.334-.288.334m21.249 2.942c-.16 0-.285-.146-.283-.33.002-.187.137-.343.3-.349 1.296-.042 2.588-.09 3.841-.144.165-.008.293.14.29.327-.003.188-.139.345-.301.352-1.253.053-2.544.101-3.839.144h-.008m-3.305.095c-.16 0-.287-.148-.286-.332.002-.188.135-.344.298-.347.76-.02 1.491-.039 2.188-.06.162-.007.294.144.292.33-.003.188-.137.344-.3.35-.696.02-1.427.04-2.186.059h-.006m-5.482.094c-.162 0-.292-.151-.292-.338 0-.187.133-.34.296-.342.974-.01 1.967-.022 2.952-.04.161-.001.294.147.293.334-.001.188-.134.342-.297.346-.985.017-1.977.03-2.95.04h-.002zm-2.907.013c-.595 0-1.178 0-1.748-.003-.163 0-.295-.153-.295-.34-.001-.187.13-.34.293-.34a377.2 377.2 0 0 0 3.364 0h.001c.162 0 .293.15.293.338 0 .187-.133.34-.296.341-.533.002-1.07.004-1.612.004m-3.103-.009c-.942-.005-1.846-.013-2.713-.023-.162-.002-.295-.156-.297-.343-.002-.186.127-.336.289-.336h.003c.867.01 1.772.017 2.714.023.163 0 .296.153.296.341.001.187-.13.338-.292.338m-3.947-.038h-.004a369.392 369.392 0 0 1-9.361-.24c-.164-.006-.299-.163-.303-.35-.004-.184.12-.328.279-.328h.01c2.828.111 5.98.192 9.368.238.164.003.297.156.3.344 0 .186-.128.336-.289.336m4.837 3.19a345.233 345.233 0 0 0 11.313-.123c.206-.085.406-.188.606-.288-2.857.08-6.22.145-9.709.145-1.39 0-2.701-.006-3.951-.015l1.741.281m-12.121-.211c.25-.094.506-.173.765-.247-2.2-.068-3.885-.14-5.028-.199l.005.272c1.006.05 2.433.114 4.258.174M64.426 36.1a1.84 1.84 0 0 1-.186-.272c-2.423.053-4.985.106-7.301.149l.001.272c2.316-.043 4.97-.097 7.486-.15" fill="#554740"/><path d="M70.096 107.14l3.497-60.051a1.337 1.337 0 0 1-.252-.498l-3.486 60.619c.08-.024.159-.05.24-.07m-36.601 7.28L29 35.955c2.37.097 9.606.225 15.187.308v-.272c-5.701-.084-12.99-.217-15.34-.314l-.152-.006 4.586 79.093c.071-.115.139-.234.212-.342m22.545-40.275h-.26l.149-12.13h.27zm7.498 13.841c-.169 0-.304-.145-.301-.33.001-.187.144-.343.317-.349a462.02 462.02 0 0 0 4.77-.164c.174-.008.312.139.309.326-.003.188-.146.345-.32.352-1.56.062-3.164.119-4.766.165h-.009m-4.078.102c-.17 0-.307-.149-.306-.335.001-.187.143-.341.316-.345a379.78 379.78 0 0 0 1.881-.041l.007-.001c.17 0 .305.147.304.332-.002.188-.143.343-.317.347-.608.015-1.236.029-1.88.042h-.005zm-6.705.078c-.172 0-.312-.151-.312-.338 0-.188.141-.34.314-.341 1.578-.005 3.223-.02 4.892-.046h.004c.172 0 .309.148.307.334 0 .188-.142.342-.315.345-1.667.026-3.312.041-4.889.046zm-1.816.001c-.49 0-.97-.002-1.442-.004-.173 0-.314-.153-.314-.34 0-.188.139-.34.311-.34h.001l1.443.005c.174 0 .314.152.314.34 0 .187-.14.339-.313.339m-3.32-.014h-.003c-1.09-.008-2.164-.018-3.194-.031-.173-.002-.315-.157-.317-.344-.002-.186.134-.335.307-.335h.003c1.031.013 2.107.023 3.198.031.173.002.315.154.316.342 0 .187-.138.337-.31.337m-5.386-.064h-.005a450.95 450.95 0 0 1-3.829-.082c-.172-.004-.316-.16-.319-.348-.003-.187.132-.34.308-.33 1.228.03 2.517.058 3.832.08.173.004.315.158.318.345.002.186-.134.335-.305.335" fill="#554740"/><path d="M36.146 87.945h-.009c-.652-.021-1.25-.041-1.793-.062-.173-.006-.317-.163-.32-.35-.004-.189.132-.34.308-.328.543.02 1.141.04 1.793.06.173.006.316.163.32.35.003.184-.13.33-.299.33M56.7 112.116l-.417-.91-7.598.089c2.733.446 5.48.901 8.014.821m2.349-48.073c.034.03.084.095.13.238-.007.086-.004.189.007.304-.088-.154-.205-.405-.137-.542zm.982 2.86c1.009 2.397 2.187 3.859 2.796 4.517.677.735 1.203 1.1 1.365 1.206a.237.237 0 0 1-.152.141c-.85-.612-2.494-2.161-3.992-5.675a19.266 19.266 0 0 1-.511-1.585c.155.507.334 1.04.488 1.382l.006.015zm.003-.434c.198-.16.359-.234.383-.22l.006.004c-.012.03-.07.125-.344.333l-.045-.117zm.415.21c-.006.007-.053.056-.3.074l-.013-.03c.148-.067.281-.09.308-.05l.003.003.002.002zm-.167-.807c-.017.066-.08.205-.3.45a5.737 5.737 0 0 1-.059-.164c.086-.073.16-.14.222-.201a.671.671 0 0 1 .137-.085zm-.004-.272a1.23 1.23 0 0 1-.214.25c-.073.055-.14.117-.19.166l-.035-.11a4.191 4.191 0 0 0 .113-.1c.133-.113.256-.19.326-.206zm-.084-.36c0 .046-.032.18-.322.457-.032.028-.06.053-.078.071a7.053 7.053 0 0 1-.038-.119l-.002-.006.004-.005c.143-.19.345-.386.436-.398zm-.707-.492c.039-.15.141-.433.272-.518-.003.084-.034.24-.177.48-.027.034-.052.07-.076.106l-.02-.068zm.07.241c.05-.07.096-.138.133-.2a.738.738 0 0 1 .218-.199 2.665 2.665 0 0 1-.311.536l-.04-.137zm.09.302l.11-.158c.117-.158.227-.272.308-.318-.017.08-.089.264-.361.666l-.058-.19zm-.274-1.334c.015.01.08.081.027.486a13.93 13.93 0 0 1-.056-.208l-.001-.001c-.01-.182.004-.26.015-.279a.018.018 0 0 1 .015.002zm-.107 1.446c-.207-.125-.342-.238-.377-.315.02-.001.076.004.178.06.107.083.206.145.25.17l.031.127-.082-.042zm-.124-.372c-.213-.167-.327-.32-.308-.411.034.004.143.043.396.288l.04.204a1.673 1.673 0 0 0-.128-.08zm.277 1.137c.048.017.098.034.153.05l.028.091a1.693 1.693 0 0 1-.396-.185c.038.001.105.01.215.044zm.053-.13c-.19-.07-.335-.15-.376-.204.026-.011.09-.023.21.017.077.037.141.064.177.079l.036.123-.047-.015zm-.539-.622a.977.977 0 0 1 .26.104c.087.053.164.092.205.114l.032.116c-.025-.01-.048-.02-.069-.026-.246-.12-.414-.239-.428-.303v-.005zm.777 1.223c-.276-.08-.438-.176-.455-.218.024-.01.117-.029.4.053l.055.165zm-.38.183v-.001s-.004-.012.002-.02c.004-.005.033-.034.152-.034.065 0 .155.008.282.033l.017.047c-.203.046-.428.049-.453-.025zm5.029 5.652c-.023-.013-2.302-1.376-4.055-5.36.01.006.02.01.03.014l.011.006a.205.205 0 0 0 .07.013h.004a.06.06 0 0 0 .024-.002h.006l.022-.005.047-.013-.043-.023-.02-.009-.007-.003c-.003-.001-.008-.002-.012-.005a.141.141 0 0 0-.024-.013c-.009-.007-.018-.014-.027-.018l-.026-.021.007.002a.764.764 0 0 0 .153.017h.007c.015 0 .03-.003.042-.005l.009-.001a.261.261 0 0 0 .062-.015l.012-.003.028-.01.058-.025-.062-.011-.027-.005a1.568 1.568 0 0 0-.07-.007l-.053-.007-.041-.007-.051-.011-.053-.015-.02-.008a.192.192 0 0 1-.03-.011l-.013-.005a.333.333 0 0 1-.057-.028c.179-.023.278-.071.31-.15a.142.142 0 0 0-.018-.14.16.16 0 0 0-.063-.054l.04-.012a1.662 1.662 0 0 1 .116-.032l.051-.012.037-.007a.289.289 0 0 1 .045-.008l.033-.006a.319.319 0 0 1 .044-.006.165.165 0 0 0 .032-.004l.038-.003c.022 0 .042-.002.06-.003h.046l.042-.001.098-.003-.092-.034-.04-.013-.012-.003-.036-.01-.06-.009a.417.417 0 0 0-.055-.004h-.02c-.027-.004-.054 0-.08.002h-.005a.785.785 0 0 0-.15.024l-.03.007a1.374 1.374 0 0 0-.15.05c.116-.123.124-.19.116-.235a.107.107 0 0 0-.068-.083.123.123 0 0 0-.048-.017l.112-.07a.998.998 0 0 1 .048-.03l.06-.036.011-.007c.044-.026.088-.054.127-.075a.916.916 0 0 1 .052-.028l.017-.008a.119.119 0 0 1 .022-.011l.038-.017.09-.042-.097.006s-.015 0-.04.004a.238.238 0 0 0-.044.007l-.005.002a.683.683 0 0 0-.128.043.849.849 0 0 0-.073.033c-.05.024-.098.053-.153.086a3.048 3.048 0 0 0-.136.092c.108-.193.076-.28.062-.305a.08.08 0 0 0-.01-.014l.032-.022.045-.03c.05-.034.097-.066.137-.09a.156.156 0 0 1 .02-.014l.014-.008.026-.014.026-.014.056-.035-.064-.001-.03.001a.13.13 0 0 0-.034.005l-.009.001-.034.009-.011.004a.278.278 0 0 0-.038.013l-.014.006a.795.795 0 0 0-.037.018.912.912 0 0 0-.061.033.142.142 0 0 0 .004-.061c-.006-.04-.03-.065-.05-.072a.155.155 0 0 0-.052-.013 4.061 4.061 0 0 0 .133-.105l.077-.063.037-.031.027-.024.113-.1.183-.166-.092.035a.88.88 0 0 0-.133.07 2.118 2.118 0 0 0-.126.084c-.043.031-.088.067-.131.101l-.015.013c-.03.024-.06.05-.087.074a.356.356 0 0 0 .021-.1c.004-.073-.026-.11-.036-.12a.078.078 0 0 0-.02-.013.187.187 0 0 0-.127-.002l.04-.038c.013-.01.025-.023.038-.034l.053-.05.081-.071.009-.007.027-.022.016-.012a.322.322 0 0 1 .022-.016.138.138 0 0 0 .017-.012c.007-.006.015-.01.021-.014a.04.04 0 0 0 .014-.008.152.152 0 0 1 .027-.014l.027-.013.063-.032-.07-.004h-.03c-.012.001-.026.002-.038.005l-.01.002c-.011.003-.024.005-.036.01l-.012.005c-.012.005-.025.01-.037.017l-.014.007c-.013.007-.027.014-.04.023l-.013.009a2.494 2.494 0 0 0-.09.071l-.043.042-.004.003-.01.011c.042-.105.058-.184.046-.238-.01-.046-.035-.065-.046-.07a.067.067 0 0 0-.037-.008.277.277 0 0 0-.106.036.615.615 0 0 0 .063-.195.07.07 0 0 0-.018-.05.064.064 0 0 0-.046-.022h-.001a.302.302 0 0 0-.092.016.857.857 0 0 0 .032-.04l.05-.063.05-.062c.02-.029.043-.057.064-.083l.034-.042c.034-.043.061-.078.088-.107a.623.623 0 0 1 .066-.065c.015-.012.027-.016.027-.016l.145-.05-.152.014h-.009a.147.147 0 0 0-.032.008.355.355 0 0 0-.094.053.986.986 0 0 0-.109.099l-.011.013a.61.61 0 0 0-.043.047l-.053.064c-.027.036-.058.077-.085.119a.415.415 0 0 0-.005-.22.068.068 0 0 0-.067-.04.31.31 0 0 0-.181.095l.012-.03a7.43 7.43 0 0 1 .074-.17l.044-.092.013-.027.033-.061c.033-.058.065-.107.094-.144a.664.664 0 0 1 .044-.05l.007-.007a.242.242 0 0 1 .033-.027l.027-.017.082-.05-.08.008a.29.29 0 0 0-.104.044.398.398 0 0 0-.062.047.788.788 0 0 0-.12.146 1.157 1.157 0 0 0-.102.188 2.264 2.264 0 0 0-.074.187c-.007-.136-.04-.223-.1-.266a.14.14 0 0 0-.067-.026l.007-.02a.863.863 0 0 1 .03-.074l.008-.02a.714.714 0 0 1 .026-.056l.016-.033.022-.038.026-.046c.009-.01.017-.022.025-.033l.028-.04a.21.21 0 0 0 .025-.027.394.394 0 0 1 .03-.032l.05-.047c.01-.009.02-.015.029-.021a.122.122 0 0 0 .014-.01l.143-.102-.12.04-.046.017-.014.006c-.011.005-.025.01-.042.02l-.06.038a.616.616 0 0 0-.05.042l-.018.016a.593.593 0 0 0-.052.058l-.015.018a1.33 1.33 0 0 0-.076.122.713.713 0 0 0-.033.068l-.009.02a.85.85 0 0 0-.03.081l-.018.059a2.133 2.133 0 0 1 .045-.355c.008-.033.017-.06.026-.087a.454.454 0 0 1 .07-.129l.035-.037c.006-.007.012-.011.018-.015l.007-.006.011-.008.09-.074-.12.046-.006.003c-.008.003-.02.006-.03.013l-.023.014-.026.02a.488.488 0 0 0-.104.139.853.853 0 0 0-.06.179v-.004a2.268 2.268 0 0 1 .005-.384l.002-.016.01-.079a1.14 1.14 0 0 1 .02-.092l.013-.046.015-.044.019-.043.023-.043-.03-.02-.03.042-.025.044-.021.046-.018.047a1.262 1.262 0 0 0-.05.196 2.115 2.115 0 0 0-.025.397c0 .07.004.14.01.212l-.026-.074-.039-.117-.037-.107a9.095 9.095 0 0 0-.089-.256l-.018-.05c-.037-.102-.075-.208-.116-.311l-.035.013.11.37c.02.072.041.142.063.214l.046.155.066.219-.023-.036a2.068 2.068 0 0 0-.065-.088.975.975 0 0 0-.215-.205.63.63 0 0 0-.123-.057.118.118 0 0 0-.03-.006l-.008-.002-.142-.023.138.066c.006.003.014.006.023.012a.682.682 0 0 1 .098.071c.037.034.077.077.12.128l.044.056.017.024a1.845 1.845 0 0 1 .109.16.061.061 0 0 0-.012.01c-.098.096-.117.244-.058.438l-.032-.038-.02-.022a.664.664 0 0 0-.19-.175l-.069-.045-.033-.019-.04-.016a.177.177 0 0 0-.044-.013l-.046-.007-.113-.014.144.07a.148.148 0 0 1 .025.015l.014.01.025.016.028.022a.83.83 0 0 1 .056.05l.046.044.016.017a1.59 1.59 0 0 1 .101.11c.009.009.017.02.026.028l.04.047.023.026a.986.986 0 0 0 .05.06.225.225 0 0 0-.133-.027.109.109 0 0 0-.081.056c-.039.082-.028.175.03.279l-.058-.03a.576.576 0 0 0-.051-.021l-.02-.009a.3.3 0 0 0-.048-.016.305.305 0 0 1-.025-.008c-.017-.006-.034-.009-.051-.013l-.018-.004-.05-.007h-.014c-.015-.002-.029-.002-.041-.002h-.013a.194.194 0 0 0-.038.004h-.005l-.036.007-.08.02.08.017.037.008c.01.002.02.003.033.007a.734.734 0 0 1 .02.005l.028.008.03.01.11.041c.036.015.072.03.109.049.03.013.06.028.088.042l.084.04a.134.134 0 0 0-.073.083c-.003.008-.004.016-.003.025a.256.256 0 0 0 .045.114.477.477 0 0 0-.051-.012c-.025-.006-.051-.007-.072-.009a.213.213 0 0 0-.05 0l-.023.002a.311.311 0 0 0-.048.01.058.058 0 0 0-.02.005c-.02.007-.038.015-.054.022l-.004.003a.439.439 0 0 0-.039.027l-.002.002a.07.07 0 0 0-.024.024l-.007.007-.021.027-.048.064.07-.036.028-.015a.04.04 0 0 0 .012-.007 1.043 1.043 0 0 0 .056-.023c.016-.003.034-.006.048-.01a.25.25 0 0 0 .024-.002l.032-.001c.019.001.038 0 .06.003a.558.558 0 0 1 .063.01c.031.005.065.014.096.022l.023.007a.098.098 0 0 0-.018.034.147.147 0 0 0-.019.114c.013.057.06.117.143.183a1.86 1.86 0 0 0-.278-.03.916.916 0 0 0-.133.008c-.018.003-.038.005-.054.01l-.008.001a.229.229 0 0 0-.034.01l-.034.014-.08.037h.142c.013 0 .03 0 .046.002l.022.002.031.003.028.003.266.03.09.01a.765.765 0 0 0 .042.003.156.156 0 0 0-.033.041.073.073 0 0 0-.008.035c.002.064.05.13.142.192a.1.1 0 0 0-.02.016.1.1 0 0 0-.03.089c.002.022.016.056.059.097l-.053-.006-.048-.003h-.021c-.017-.002-.034 0-.05 0h-.016c-.017 0-.032.003-.046.005l-.014.001a.276.276 0 0 0-.038.007l-.011.002a.197.197 0 0 0-.04.012l-.032.013-.073.03.078.006.035.001c.008 0 .02 0 .034.002l.019.001.027.003.027.002.029.003.1.013.095.014.053.007-.002.004a.122.122 0 0 0-.034.107c.007.062.058.12.155.18a1.293 1.293 0 0 0-.083-.01l-.082-.007a.339.339 0 0 0-.04-.002l-.023-.002a2.428 2.428 0 0 0-.1-.002h-.02c-.061 0-.103.004-.105.004l-.073.007.068.03c.001 0 .043.018.107.034a1.552 1.552 0 0 0 .307.045l-.004.005a.16.16 0 0 0-.022.156c.014.043.084.178.417.141l.068-.009-.004.003a.896.896 0 0 1-.068.043l-.019.01-.012.008a.554.554 0 0 0-.022.012l-.007.004a.1.1 0 0 0-.016.008.1.1 0 0 0-.009.006l-.016.007-.006.004-.02.01-.04.027.047.009.022.002a.206.206 0 0 0 .057 0c.012-.002.025-.003.038-.008l.01-.002c.01-.003.02-.005.031-.01l.012-.004a.205.205 0 0 0 .03-.014.407.407 0 0 0 .127-.1l-.008.022a2.467 2.467 0 0 1-.012.04l-.003.013-.004.011-.006.018-.004.01a.115.115 0 0 1-.008.018l-.019.04h.028l.016-.002a.114.114 0 0 0 .074-.05c.38 1.063 1.884 4.285 4.077 5.834l.032.023.039-.007a.464.464 0 0 0 .38-.414l.006-.069-.056-.033zm4.822-5.706c.063-.387-.024-.633-.028-.643l-.035.012c.17.978-.837 1.936-.848 1.946-1.116 1.141-3.74 1.371-3.766 1.373v.038c1.359-.013 2.314-.352 2.877-.633.61-.306.905-.614.907-.616.633-.577.836-1.122.893-1.477m-4.077-.086l-.005-.006-.007-.001a.096.096 0 0 0-.076.024.124.124 0 0 0-.03.084v.007l.003.005c.062.074.163.326.164.328l.02.05.014-.053a.543.543 0 0 0-.083-.438" fill="#554740"/><path d="M67.374 68.919c-.035-.013-.072.032-.083.046l-.004.008c0 .003-.02.076-.018.186-.013.005-.026.01-.04.013.008-.032.02-.099-.014-.124-.024-.018-.057-.01-.104.02l-.005.007a.744.744 0 0 0-.071.161c-.1.03-.186.052-.27.072l-.007.002c-.192.04-1.19.254-1.935.375a1.345 1.345 0 0 0-.37.077c-.002-.08-.064-.135-.067-.138l-.033-.028.003.045c.006.079-.004.138-.03.176l-.048.028-.025.01a1.043 1.043 0 0 1-.248-.552c.05-.001.178-.008.313-.053l.045-.016c.095-.03.366-.177.385-.443.006-.051.064-.508 0-.752l-.002-.005c-.103-.32-.379-1.184-.4-1.348l-.002-.007c-.004-.018-.086-.453.142-.765a.706.706 0 0 1 .138-.142c.02.018.039.036.06.051l.004.003a.435.435 0 0 0 .034.024l.008.002c.019 0 .072.002.09-.036.02-.043-.03-.102-.04-.113l-.003-.004-.005-.018c.13-.061.286-.099.465-.11h.002a.58.58 0 0 1 .399.17c.123.13.179.332.165.598v.011c0 .005.015.537-.346 1.365a1.59 1.59 0 0 0-.107.201.044.044 0 0 1-.007.005l-.015.01.01.016c-.098.226-.186.545-.062.796l.027.055.007-.062c.03-.254.093-.48.19-.67.182-.139.796-.657 1.25-1.673a.873.873 0 0 1 .14-.208c.05.046.084.075.084.075l.006.003c.05.016.084.012.102-.01.026-.031.007-.083-.002-.102a1.19 1.19 0 0 0 .003-.147c.285-.215.658-.324 1.108-.324h.036c.003 0 .274-.019.55.096a.04.04 0 0 0 .037.02h.007a.905.905 0 0 1 .41.367c.002.004.186.392-.044 1.153-.004.012-.33 1.188-1.77 1.785 0-.029 0-.051.003-.071 0-.017-.004-.097-.046-.111zm2.663-2.425c-.144-.07-.31-.1-.423-.113a2.38 2.38 0 0 0 .304-.21l.04-.033h-.05a.84.84 0 0 0-.424.137.817.817 0 0 0-.07-.226 1.082 1.082 0 0 0-.267-.31c.127-.037.202-.089.206-.091l.053-.036h-.061l-.33.013c.2-.227.207-.323.207-.333v-.031l-.027.016a1.41 1.41 0 0 0-.324.3 1.52 1.52 0 0 0-.644-.113 2.21 2.21 0 0 0-.139.002 2.34 2.34 0 0 0 .304-.384l.025-.04-.045.012c-.131.035-.352.257-.475.39.094-.26.158-.703.162-.724l.009-.066-.041.053c-.15.188-.264.593-.298.723l-.185-.268-.002.056a.683.683 0 0 0 .073.313c-.207.05-.394.13-.557.237a1.062 1.062 0 0 0-.095-.29l-.03-.058-.003.068c-.006.124-.01.253-.013.383a.853.853 0 0 0-.047.04c-.24-.238-.346-.234-.345-.234h-.03l.013.028c.048.103.127.215.235.333a1.106 1.106 0 0 0-.182.273c-.254.57-.679 1.108-.94 1.391.089-.189.163-.378.22-.562.057.022.128.033.132.034l.05.008-.143-.17.004-.018.214-.113-.03-.018c-.044-.022-.101-.018-.15-.006.072-.308.068-.496.068-.515a1.502 1.502 0 0 0-.008-.26c.082.004.2-.015.345-.12l.051-.036-.06.002c-.001 0-.156.005-.28-.008a.593.593 0 0 0 .162-.328l.011-.061-.042.046c-.002.001-.15.162-.259.242a.744.744 0 0 0-.324-.34c.024-.118-.013-.313-.014-.322l-.004-.018-.018.004c-.052.014-.09.102-.118.265a.459.459 0 0 0-.187-.21l-.046-.025.087.209a.532.532 0 0 0-.087-.008c-.18.013-.33.043-.459.094a5.624 5.624 0 0 1-.023-.234l-.006-.076-.03.07a.774.774 0 0 0-.06.291c-.097-.122-.187-.254-.188-.255l-.04-.06.007.073c.01.12.044.23.1.328a.938.938 0 0 0-.175.184c-.191.263-.21.577-.201.759a.47.47 0 0 0-.19-.03l-.052.005.228.163c-.11.037-.43.152-.576.292l-.046.044.06-.011c.017-.003.366-.072.575-.162-.097.109-.27.318-.294.44l-.009.047.037-.029c.01-.007.227-.172.344-.344.044.16.113.387.208.691a.784.784 0 0 0-.49.301l-.044.056.064-.026c.004-.002.32-.132.492-.166a.887.887 0 0 0-.226.428l-.018.08.05-.065c0-.001.148-.192.265-.314.028.086.047.144.051.16.046.172.011.541-.005.656-.021.123-.105.213-.25.269-.132.04-.293.054-.392.054h-.101l-.004.107c-.018.52.36.873.376.887l.063.06.069-.06c.191-.164.51-.18.524-.181l.012-.001c.183-.03.394-.067.641-.114-.111.13-.184.297-.187.305l-.017.04.039-.015c.12-.044.28-.235.358-.336-.016.192.045.5.048.515l.009.043.024-.038c.093-.148.093-.434.091-.536l.26.159-.017-.051a.46.46 0 0 0-.13-.178c.422-.084.768-.159.838-.174.064-.015.126-.03.19-.047-.011.135.004.27.046.4l.024.07.011-.074c0-.003.04-.242.087-.447l.144-.048a.82.82 0 0 0 .128.262l.042.059-.01-.074c0-.002-.02-.144-.032-.296.317-.125.607-.288.866-.485a1.242 1.242 0 0 0-.046.31v.038l.03-.026c.101-.089.18-.322.215-.446.06.177.254.43.263.442l.024.033.008-.042c.03-.168-.087-.418-.134-.508l.324.036-.04-.039c-.074-.073-.205-.108-.275-.123.215-.219.397-.463.54-.726a.29.29 0 0 0 .224.095.243.243 0 0 0 .038-.003l.044-.004-.031-.029c-.007-.005-.137-.129-.211-.185l.001-.003.312-.066-.053-.023c-.005-.002-.095-.041-.195-.041h-.005a2.597 2.597 0 0 0 .184-1.023c.196.034.505.024.518.024l.078-.003-.07-.033z" fill="#554740"/><path d="M65.596 66.256c.064.47-.226 1.1-.228 1.104-.364.648-.21.918-.203.929l.035.06-.002-.071c-.01-.438.25-.816.254-.822.252-.478.295-1.01.295-1.017.007-.663-.347-.73-.363-.732l-.08-.013.066.047c.192.14.226.511.226.515m-1.469 3.07c-.03-.007-.046.004-.056.015-.04.05.019.202.038.25.095.166.138.193.163.193h.006a.031.031 0 0 0 .025-.023l.001-.003v-.004c-.022-.397-.155-.425-.177-.428m3.165-1.986c.024 0 .045-.01.06-.019v.003c.005.02.024.042.055.042.026 0 .056-.014.094-.042.012-.01.305-.256.448-.312l.175-.067-.184.009a.935.935 0 0 0-.472.193s-.035.03-.069.077c.08-.354.07-.442.064-.458l-.018-.04-.03.034a.816.816 0 0 0-.185.493c-.004.08.046.087.062.087" fill="#554740"/><path d="M65.021 66.66a.13.13 0 0 0 .052.01h.017l.014-.005.004-.006c.204-.251.228-.322.23-.34v-.041l-.037.015a.585.585 0 0 0-.296.276c-.031.058.005.084.016.09m2.034 1.246l.035.072.018-.08a.9.9 0 0 1 .206-.35.068.068 0 0 0 .022-.053c-.002-.041-.04-.07-.049-.076l-.01-.006h-.005a.094.094 0 0 0-.081.05c-.2.288-.143.428-.136.443" fill="#554740"/><path d="M64.903 66.787c.022 0 .04-.008.052-.023.027-.032.02-.08.02-.087l-.002-.012-.006-.008c-.004-.005-.008-.003-.012-.006l.006-.003a.133.133 0 0 0 .037-.065L65 66.58v-.01l-.003-.007c-.157-.333-.213-.382-.226-.39l-.038-.021-.002.046c-.007.231.132.415.141.427.004.005.008.004.012.008h-.003c-.33.058-.39.203-.396.22l-.026.078.068-.044a.817.817 0 0 1 .375-.099zm3.219-.144c.134 0 .24-.055.278-.079a2.564 2.564 0 0 1-.099.336l-.018.053.045-.03a.56.56 0 0 0 .229-.372l.007.008h.008c.123.013.207.017.265.017.09 0 .115-.01.122-.014l.037-.026-.03-.023a.515.515 0 0 0-.375-.097c-.023.003-.04.011-.05.025a.06.06 0 0 0-.014.042c0 .009.005.015.007.023-.014-.011-.028-.024-.044-.024h-.002c-.014 0-.024.007-.035.013 0-.01.002-.02-.004-.029-.015-.029-.053-.047-.054-.048l-.01-.002-.008.003c-.298.109-.353.158-.362.173l-.021.035.037.007a.459.459 0 0 0 .09.009" fill="#554740"/><path d="M68.426 66.424a.06.06 0 0 0 .046.032h.007a.115.115 0 0 0 .067-.03.153.153 0 0 0 .035-.008l.008-.006.004-.006c.19-.333.202-.41.2-.425l-.002-.045-.038.025a.754.754 0 0 0-.25.313c-.196-.211-.327-.182-.343-.177l-.077.023.071.033c.148.07.26.25.272.27m-1.315.985h.002a.474.474 0 0 0 .074.007c.024 0 .058-.003.074-.03.008-.013.006-.027.006-.027-.003-.055-.059-.08-.075-.087a.798.798 0 0 0-.309-.051c-.06 0-.104.004-.105.004l-.11.01.097.047c.095.046.344.126.346.127m.377-.013a.096.096 0 0 0-.108.023l-.004.005-.005.011c-.005.022-.004.054.028.086a.228.228 0 0 0 .08.047c.07.054.223.201.224.203l.074.07-.025-.102a.54.54 0 0 0-.14-.26.341.341 0 0 0-.124-.083m-1.428 1.087l-.013.01a.052.052 0 0 0-.015-.017.11.11 0 0 0 .029.007m.081-.029c-.01-.005-.016.002-.025.002a.087.087 0 0 0 .01-.057.12.12 0 0 0 .019.057l-.004-.002m-.235.152a.16.16 0 0 0 .043-.007c-.138.207-.146.261-.147.273l.004.044.034-.016a.591.591 0 0 0 .271-.28c.056.055.13.092.174.11.043.019.075.028.076.029l.08.024-.048-.072a2.81 2.81 0 0 0-.197-.224l-.004-.003-.008-.006c.006.002.013.005.018.005.03 0 .05-.016.05-.016.28-.15.27-.292.268-.31l-.012-.067-.04.055c-.094.125-.3.196-.3.196a.06.06 0 0 0-.043.038.237.237 0 0 0-.037-.079 3.841 3.841 0 0 1-.077-.302l-.023-.1-.033.101a.575.575 0 0 0-.023.3.38.38 0 0 0 .058.142.11.11 0 0 0 .038.034c-.017-.01-.04-.014-.073-.01-.002 0-.277.05-.382.03l-.148-.03.129.08c.015.01.154.087.352.061m-18.59-32.828l.235-.492h-.685l.35-.744h.982l.23-.492h-1.575l-1.452 3.075h1.837l.234-.492H46.28l-.022-.04.38-.815zm2.433-.172l.557-.841-.128.841h-.429zm-1.674 1.52h.62l.714-1.028h.71l-.11 1.027h.518l.365-3.075h-.674l-2.143 3.075zm5.037-3.102c-.498 0-.875.351-.875.817-.001.334.195.546.393.76.17.18.253.357.25.527-.001.261-.251.518-.504.518-.224 0-.343-.107-.411-.369l-.025-.097-.448.204.019.07c.122.45.409.688.83.688.667 0 1.068-.524 1.07-1.03.002-.278-.09-.5-.317-.767l-.073-.082c-.122-.136-.249-.276-.251-.435 0-.184.145-.33.354-.33h.002c.177.01.294.126.35.343l.028.11.41-.244-.015-.062a.778.778 0 0 0-.787-.621m3.482.026l-1.002 1.127-.214-1.127h-.556l.327 1.666-.66 1.409h.568l.58-1.219 1.604-1.856zM34.012 71.232h.377l.014.301h-1.08l-.016-.3h.377l-.116-2.328h-.379l-.015-.301h.69l1.543 2.293-.09-1.992h-.378l-.014-.301h1.09l.013.3h-.379l.116 2.63h-.309l-1.541-2.298zm4.001-1.849c-.013-.331-.226-.499-.545-.499-.323 0-.528.168-.515.499l.027.657c.013.334.23.501.548.501.322 0 .522-.167.51-.501l-.025-.657zm.334.636c.02.53-.304.803-.808.803s-.844-.272-.866-.803l-.026-.616c-.022-.527.298-.799.81-.799.503 0 .848.272.867.799l.023.616zm-1.596 1.213h1.611l.011.301h-1.61m3.291-25.723c-.041-1.38-1.197-2.086-2.591-2.804-.943-.47-1.373-.893-1.392-1.37-.019-.48.306-.962 1.074-.962.634 0 1.193.322 1.628.934l.935-.968c-.62-.824-1.526-1.258-2.628-1.258-1.511 0-2.566.947-2.51 2.254.063 1.412 1.24 2.03 2.485 2.683l.105.056c.911.499 1.342.96 1.359 1.452.02.578-.502 1.048-1.163 1.048-.7 0-1.444-.419-1.883-1.042l-1.007.98c.603.846 1.73 1.405 2.853 1.405 1.6 0 2.776-1.035 2.735-2.408m6.949 2.289l-.1-8.597h-1.455l.052 3.387h-2.666l-.075-3.387H41.32l.224 8.597h1.406l-.085-3.799h2.656l.058 3.799zm4.614-6.407l1.06 3.199h-2.145l1.085-3.199zm-1.555 4.593h3.084l.578 1.814h1.352l-2.85-8.598H50.99c-.592 1.785-1.211 3.618-1.804 5.391-.357 1.073-.71 2.144-1.055 3.207h1.352l.58-1.814zm9.628-6.784l-1.896 6.287-1.763-6.287h-1.49l2.549 8.597h1.306l2.784-8.597zm7.254 7.22h-3.237l.078-2.42h2.526l.055-1.412h-2.535l.066-2.044h3.286l.055-1.344h-4.736l-.245 8.598h4.63zM34.58 58.046H33.4l-.116-2.386h1.187c1.297 0 1.522.731 1.54 1.167.019.456-.141 1.219-1.431 1.219zm-1.467-5.876h1.13c1.222 0 1.432.667 1.448 1.065.017.398-.136 1.064-1.35 1.064h-1.124l-.104-2.13zm3.34 2.841l-.226-.13.195-.16c.45-.365.727-.97.705-1.538-.043-1.135-.924-2.357-2.757-2.357h-2.718l.451 8.598h2.674c1.745 0 2.835-1.006 2.777-2.562-.023-.6-.376-1.434-1.1-1.85zm6.628 1.526c.019.842-.592 1.526-1.364 1.526-.77 0-1.418-.684-1.443-1.526l-.172-5.71h-1.396l.201 5.932c.056 1.66 1.228 2.819 2.85 2.819 1.581 0 2.75-1.212 2.72-2.82l-.111-5.932h-1.413l.128 5.71zm2.683-4.367h1.928l.072 7.253h1.38L49.1 52.17h1.86l-.001-1.344h-5.214zm6.329 0h1.928l-.05 7.253h1.38l.078-7.253h1.86l.02-1.344h-5.213zm6.446 7.254h4.492l.044-1.378h-3.14l.055-2.42h2.451l.042-1.412h-2.46l.047-2.044h3.19l.042-1.343h-4.597zm7.587-7.254h.822c.788 0 1.426.628 1.392 1.372-.039.852-.717 1.544-1.513 1.544h-.815l.114-2.916zm3.419 6.31a.53.53 0 0 1-.457-.305c-.119-.282-.122-.615-.112-.997l.01-.166c.015-.207.03-.422-.028-.603-.08-.21-.23-.433-.485-.498a3.278 3.278 0 0 0 1.2-2.352c.065-1.32-.62-2.733-2.738-2.733h-2.152l-.305 8.597h1.364l.116-2.934h.798c.37 0 .745.021.9.28.107.192.097.508.088.823a5.175 5.175 0 0 0-.002.393c.032.457.117.79.257.992.194.297.599.482 1.057.482h.71l.055-.996a2.299 2.299 0 0 1-.276.017zM38.394 78.192h-.767l-.007-.2h.244l-.06-1.542h-.245l-.009-.2h1.39l.02.555h-.215l-.012-.355h-.714l.026.705h.643l.008.2h-.643l.024.637h.31zm2.308-1.273c-.01-.316-.196-.497-.5-.497-.307 0-.482.181-.472.497l.02.604c.011.317.198.497.499.497.307 0 .48-.18.472-.497l-.02-.604zm.233.604c.013.447-.245.696-.68.696-.43 0-.703-.25-.718-.696l-.02-.604c-.016-.45.242-.697.68-.697.432 0 .706.248.72.697l.018.604zm.95-.327h.46c.221 0 .36-.12.354-.374-.006-.255-.154-.372-.374-.372h-.46l.02.746zm-.486-.946h.926c.353 0 .585.183.594.572.008.33-.153.515-.417.563l.342.607h.258l.004.2h-.396l-.448-.796h-.371l.016.596h.27l.005.2h-.728l-.006-.2h.245l-.043-1.542h-.246l-.005-.2zm3.245.2h-.246l-.004-.2h1.416l.009.555h-.214l-.006-.355h-.74l.013.668h.668l.003.2h-.668l.013.674h.736l-.006-.355h.214l.01.554h-1.409l-.004-.2h.245zm2.488 1.742h-.767l-.003-.2h.245l-.021-1.542h-.246l-.003-.2h1.39l.006.555h-.215l-.004-.355h-.713l.009.705h.642l.002.2h-.642l.009.637h.309zm1.92 0h-.767l-.001-.2h.244l-.013-1.542h-.246l-.002-.2h1.39l.003.555h-.214l-.003-.355h-.713l.005.705h.643l.002.2h-.643l.004.637h.31zm2.347-1.273c0-.316-.182-.497-.485-.497-.307 0-.488.181-.487.497l.003.604c0 .317.18.497.482.497.306 0 .487-.18.487-.497v-.604zm.214.604c-.001.447-.266.696-.7.696-.43 0-.697-.25-.698-.696l-.002-.604c-.001-.45.264-.697.701-.697.433 0 .699.248.699.697v.604zm.961-.327h.459c.222 0 .365-.12.366-.374.001-.255-.143-.372-.363-.372h-.46l-.002.746zm-.458-.946h.926c.353 0 .58.183.577.572-.002.33-.169.515-.434.563l.323.607h.258l-.001.2h-.397l-.424-.796h-.371l-.002.596h.27v.2h-.73l.002-.2h.244l.004-1.542h-.246v-.2zm2.402 1.742h.297l.015-1.542h-.461l-.003.355h-.214l.004-.554h1.566l-.007.554H55.5l.004-.355h-.461l-.016 1.542h.296l-.001.2h-.806zm2.485-1.542h-.31l-.023 1.542h.736l.007-.41h.214l-.01.61h-1.409l.003-.2h.245l.022-1.542h-.246l.003-.2h.771zm1.403 0h-.246l.004-.2h1.416l-.014.555h-.214l.008-.355h-.74l-.013.668h.668l-.004.2h-.668l-.014.674h.736l.009-.355h.214l-.014.554h-1.408l.004-.2h.245zm2.342 1.57c.258 0 .418-.117.425-.342.007-.251-.17-.307-.445-.36-.377-.072-.609-.197-.6-.574.01-.34.233-.521.59-.521.195 0 .385.058.497.205l.03-.177h.169l-.016.588h-.215c.002-.27-.151-.417-.428-.417-.262 0-.401.114-.407.322-.006.247.165.31.424.36.386.072.63.195.62.58-.01.355-.252.536-.608.536-.198 0-.397-.061-.514-.209l-.03.18h-.168l.015-.59h.214c-.002.27.17.419.447.419m1.872 0c.257 0 .417-.117.425-.342.009-.251-.167-.307-.442-.36-.377-.072-.608-.197-.597-.574.01-.34.236-.521.593-.521.194 0 .384.058.495.205l.032-.177h.168l-.02.588h-.214c.004-.27-.149-.417-.426-.417-.261 0-.401.114-.408.322-.007.247.163.31.423.36.385.072.628.195.615.58-.012.355-.255.536-.61.536-.198 0-.397-.061-.513-.209l-.031.18h-.168l.017-.59h.214c-.002.27.169.419.446.419m1.221-.17h.226l-.127.661h-.149zm-28.536 2.77c-.015-.31-.201-.485-.501-.485h-.356l.076 1.541h.348c.304 0 .474-.177.46-.488l-.027-.568zm-.51-.686c.427 0 .702.244.723.686l.025.568c.02.444-.23.688-.66.688h-.803l-.01-.2h.242l-.076-1.541h-.243l-.01-.2h.811zm1.44.2h-.243l-.01-.2h1.402l.022.555h-.212l-.015-.355h-.732l.03.669h.66l.01.2h-.662l.028.673h.73l-.015-.355h.212l.022.555h-1.393l-.009-.2h.242zm2.44 0h-.307l.058 1.542h.729l-.015-.41h.212l.022.61h-1.394l-.008-.2h.243l-.06-1.542h-.242l-.008-.2h.763zm1.65 1.542h.242l.007.2h-.695l-.007-.2h.242l-.05-1.541h-.244l-.007-.2h.7l.006.2h-.243zm1.852-1.156c-.007-.264-.185-.413-.469-.413-.299 0-.473.18-.464.496l.018.605c.01.316.193.496.488.496.286 0 .455-.163.447-.444l-.005-.172h-.561l-.005-.2h.773l.026.988h-.158l-.031-.203c-.103.15-.279.23-.515.23-.408 0-.657-.244-.67-.695l-.02-.605c-.013-.435.233-.696.646-.696.225 0 .404.064.51.208l.02-.18h.167l.016.596h-.213v-.011zm2.364 1.156h.241l.004.2h-.695l-.004-.2h.241l-.014-.673h-.908l.016.673h.242l.004.2h-.695l-.005-.2h.242l-.037-1.541h-.243l-.004-.2h.699l.004.2h-.243l.015.668h.91l-.014-.668h-.243l-.004-.2h.699l.004.2h-.243zm1.12 0h.293l-.025-1.541h-.455l.006.355h-.212l-.01-.555h1.55l.006.555h-.211l-.006-.355h-.455l.023 1.541h.293l.003.2h-.797zm2.437.2h-.76l-.002-.2h.243l-.018-1.541h-.242l-.003-.2h1.375l.005.555h-.213l-.003-.355h-.706l.007.704h.637l.001.2h-.636l.007.637h.306zm1.087-1.941h.7v.2h-.243l.006 1.097c.001.3.173.472.454.472.285 0 .455-.172.454-.472l-.003-1.098h-.243v-.2h.699v.2h-.243l.002 1.098c0 .433-.254.672-.666.672-.408 0-.664-.239-.666-.672l-.006-1.098h-.243l-.002-.2zm3.081.199h-.308l-.002 1.542h.728l.002-.41h.212l-.003.61h-1.392v-.2h.242v-1.542h-.242v-.2h.763zm2.698 1.57c.254 0 .412-.116.414-.34.003-.254-.173-.309-.445-.362-.375-.072-.606-.196-.603-.573.002-.342.222-.522.575-.522.193 0 .381.059.495.205l.028-.177h.166l-.007.588h-.212c-.003-.27-.157-.416-.43-.416-.26 0-.396.114-.398.322-.002.246.168.31.426.36.382.072.627.194.622.58-.005.354-.241.534-.592.534-.196 0-.395-.06-.513-.207l-.027.18h-.166l.005-.59h.212c.003.268.174.418.45.418m2.736-.028h.242l-.004.2h-.695l.004-.2h.241l.012-.673h-.909l-.01.673h.242l-.003.2h-.695l.002-.2h.242l.023-1.541h-.244l.003-.2h.7l-.004.2h-.243l-.01.668h.91l.011-.668h-.243l.003-.2h.7l-.004.2h-.243zm1.364-.596h.643l-.3-.915-.343.915zm-.643.596h.222l.648-1.742h.26l.567 1.742h.212l-.005.2h-.667l.004-.2h.232l-.134-.396h-.762l-.15.396h.244l-.005.2h-.67l.004-.2zm3.505-1.542h-.242l.005-.2h.671l-.006.2h-.223l-.66 1.742h-.247l-.56-1.742h-.214l.004-.2h.675l-.007.2h-.232l.474 1.49zm1.312 1.542h.242l-.007.2h-.695l.006-.2h.243l.052-1.541h-.244l.007-.2h.7l-.008.2h-.243zm1.226 0h.242l-.008.2h-.695l.007-.2h.242l.057-1.541h-.243l.007-.2h.443l.864 1.52.053-1.32h-.243l.008-.2h.699l-.009.2h-.243l-.07 1.74h-.2l-.862-1.521zm3.009-1.156c.013-.264-.155-.413-.439-.413-.3 0-.486.18-.5.496l-.026.605c-.014.316.156.496.452.496.285 0 .466-.163.479-.444l.008-.172h-.562l.009-.2h.775l-.047.988h-.158l-.016-.203c-.114.15-.296.23-.533.23-.407 0-.638-.244-.619-.695l.026-.605c.018-.435.283-.696.696-.696.225 0 .398.064.494.208l.034-.18h.167l-.028.596h-.213l.001-.011zm-33.38-13.137h-.98l-.013-.248h.313l-.096-1.912h-.314l-.013-.248h1.78l.031.688h-.275l-.02-.44h-.914l.043.873h.823l.011.248h-.822l.04.791h.395zm3.172-1.579c-.016-.392-.256-.616-.643-.616-.394 0-.617.224-.6.616l.032.75c.017.392.257.615.642.615.392 0 .613-.223.599-.615l-.03-.75zm.304.75c.02.554-.306.863-.863.863-.55 0-.902-.31-.925-.863l-.033-.75c-.024-.558.303-.863.864-.863.553 0 .906.305.928.863l.029.75zm1.444-.406h.588c.284 0 .461-.148.451-.465-.01-.316-.2-.46-.482-.46h-.59l.033.925zm-.63-1.173h1.186c.45 0 .75.227.764.708.012.41-.191.64-.53.699l.443.753h.33l.007.248h-.508l-.578-.988h-.476l.026.74h.346l.008.248h-.932l-.009-.248h.314l-.068-1.913h-.314l-.01-.247zm3.623 2.16h.313l.007.248h-.899l-.007-.248h.313l-.052-1.913h-.314l-.007-.247h.58l.767 1.424.698-1.424h.58l.005.247h-.315l.04 1.913h.314l.005.248h-.896l-.005-.248h.313l-.036-1.6-.69 1.408-.756-1.407zm2.855-2.16h.905l.004.248h-.314l.022 1.362c.006.371.23.585.593.585.369 0 .587-.214.582-.585l-.018-1.362h-.315l-.003-.248h.904l.003.248h-.314l.016 1.362c.007.537-.318.832-.851.832-.528 0-.861-.295-.87-.832l-.024-1.362h-.315l-.004-.248zm4.226.248h-.397l.014 1.912h.942l-.002-.509h.274l.003.757h-1.8l-.003-.248h.313l-.016-1.912H48.1l-.002-.248h.988zm2.466 1.173h.832l-.414-1.136-.418 1.136zm-.814.74h.287l.789-2.161h.335l.783 2.16h.273l-.002.248h-.861v-.247h.3l-.183-.492h-.987l-.18.492h.312v.247h-.865v-.247zm-9.379 3.517c.01.37.234.6.603.6.365 0 .58-.23.571-.6-.01-.38-.225-.602-.603-.602-.37 0-.582.23-.571.602zm1.143-1.25c-.008-.32-.251-.513-.603-.513-.371 0-.585.2-.575.525l.018.64c.139-.177.358-.279.643-.279.523 0 .854.332.867.886.014.545-.323.886-.882.886-.563 0-.918-.34-.934-.886l-.035-1.231c-.016-.52.335-.836.82-.836.297 0 .543.11.696.295l.033-.255h.253l.02.808h-.32v-.04zm2.434.664c.29.107.458.332.464.69.008.483-.309.79-.891.79-.582 0-.914-.307-.924-.774l-.003-.111h.323l.001.078c.007.32.22.512.597.512s.572-.205.566-.529c-.006-.324-.228-.509-.578-.509h-.218l-.005-.294h.218c.358 0 .545-.21.54-.505-.006-.324-.205-.526-.576-.526-.375 0-.578.222-.57.538v.05h-.324l-.019-.842h.255l.044.25a.87.87 0 0 1 .67-.29c.493-.005.843.3.851.787.006.332-.142.566-.42.685m2.741-.557c-.004-.395-.238-.62-.62-.62-.391 0-.619.225-.613.62l.015 1.123c.006.393.238.62.618.62.389 0 .615-.227.611-.62l-.011-1.124zm.334 1.123c.006.59-.348.914-.93.914-.574 0-.936-.323-.945-.914l-.016-1.124c-.009-.59.346-.915.933-.915.579 0 .941.325.948.915l.01 1.124zm.706.578h.602l-.013-2.231-.602.455-.003-.345.603-.454h.325l.012 2.575h.564v.296h-1.485zm1.799-.89h.775v.275h-.774zm1.162.89h.602l.005-2.231-.606.455v-.345l.607-.454h.324l-.008 2.575h.563l-.001.296h-1.486zM48.19 30.073s-.735.707.74 1.35c0 0-1.094-.727-.74-1.35" fill="#554740"/><path d="M47.81 30.225s-.505.583.325.941c0 0-.502-.332-.326-.94m7.877-6.103c-.183-.117-.44.036-.44.036.005 0 .316 0 .396.181.209.469-.17 1.2-.17 1.2.571-.834.413-1.29.214-1.417" fill="#554740"/><path d="M56.086 23.887s-.152-.152-.42.018c0 0 .212-.016.325.118.095.113.106.343-.002.674 0 0 .337-.515.097-.81m-3.45 6.986l-2.083-1.234.066-.067 1.982 1.173 2.696-2.704-.883-.549.003-.139 1.08.642-2.861 2.878zm2.513-2.055l-2.41 2.426-.07-.209 2.613-2.608-.133.391zm-4.797.1l-.204.197-.105.1-.08.076a54.157 54.157 0 0 1-.655.62s-.4.313-.102.731c0 0 .173.247.379.296 0 0-.41.025-.617-.28 0 0-.273-.311.045-.664l.511-.424.124-.102.158-.131.066-.055.106-.088.101-.082.25-.207.17-.14.082-.068-.088.085-.141.135zm-4.624-2.11l1.131-.836.01.111-.962.728 3.897 2.281-.073.062-4.003-2.347zm1.221.136l3.203 1.857-.222.187-3.565-2.073.543-.421.041.45zm4.242-.128l.033.922-.47.415.074.085-.51.425-3.19-1.799-.198-2.266 4.26 2.218zm-2.283-3.742l4.13 2.038-1.732 1.515-4.254-2.158 1.856-1.395zm4.114 2.846l-1.14 1.057.002.18-.457.402-.017-.783 1.643-1.435-.03.58zm.18.081l.519-.452.499.263-1.563 1.519-.569-.306 1.114-1.024zm-.441 3.843l.018-2.383 1.483-1.448-.005 2.309-1.496 1.522zm-1.33-.296l.48-.353.008.558.729.475 1.75-1.825.009-.498.51.327-2.327 2.316-1.856-1.09.2-.2.497.29zm-.163-.346l-.176-.1.17-.17.006.27zm.64-.254l-.474.36.004-.373.141.162.327-.318.002.169zm.145-1.741l.543.305v2.449l-.503-.295-.019-1.05.008-.008-.004-.201-.441.439-.57-.646.989-.9-.003-.093zm2.858-2.482c.152-.18.234-.095.28-.028.24.343-.381 1.015-.381 1.015l-.492.483.004-.477-.358-.143.947-.85zm-.49 2.431l.015-.82.36-.345s.821-.73.553-1.399c-.039-.096-.167-.226-.416-.098l-1.055.918-.193-.103-.484.446.032-.73-4.33-2.169-2.183 1.602.125 1.351-1.383 1.002.375.216.422.655 3.094 1.788-.47.395s-.39.376-.195.773c0 0 .354.676.983.512 0 0 .407-.112.343-.623 0 0-.024-.38.202-.555l2.534 1.481 2.515-2.541.245-.712.22-.217-1.31-.827zm51.596.736l-.151-9.336h1.414l.05 9.336h-1.313zm-.612-.354l-.333-.911h.333l-.286-.91h.28l.03 1.894-.024-.073zm-.024-2.902l.017 1.057-.29-1.057h.273zm-.015-.93l.013.847-.258-.846h.245zm-.016-1.004l.014.855-.235-.855h.22zm-39.846.548l.185-.51 38.959.054.259.51-39.403-.054zm0 .975l.185-.46 38.959.048.24.428-39.348-.054-.035.038h-.001zm0 1.036l.185-.51 38.959.053.259.51-39.403-.053zm0 .967l.185-.448 38.959.047.259.447-39.403-.046zm0 .967l.185-.385 38.959.04.259.384-39.403-.04zm.185-5.46l38.959.053.225.443-39.333-.054-.018.02.167-.462zm-2.673 6.157l-.15-9.336h1.413l.05 9.336h-1.313zm42.257-9.92l.033 2.013H64.871l-.011-2.013h-2.587l.176 10.908h2.47l-.044-7.968h40.446l.026 1.577-.348-1.264-39.459-.053-.148.16-.477 1.316h.364l-.364 1.004h.376l-.376.935h.39l-.39 1.075.38.001-.38.916.45.001-.39 1.095 1.62.001v.375h1.364v-.373l6.31.006v.367h21.573v-.345l6.104.006v.339h1.363v-.337l2.122.001.018 1.165h2.47l-.059-10.908h-2.587z" fill="#554740"/><path d="M66.126 19.012V17.21h37.735l.021 1.844-37.756-.04zm38.229-2.304H65.627v2.805l38.76.041-.032-2.846z" fill="#554740"/><path d="M78.954 18.135l-.013-.002a.198.198 0 1 1 .199-.199c0 .11-.077.2-.186.2m.387-.187a.362.362 0 1 0-.724 0 .362.362 0 0 0 .724 0m21.536.106l-.014-.001a.199.199 0 0 1 0-.398c.11 0 .199.089.199.199 0 .109-.076.2-.185.2m.025-.549a.361.361 0 1 0 .361.361.36.36 0 0 0-.361-.36m-27.302.752l-.014-.002a.198.198 0 1 1 .199-.198c0 .109-.077.2-.186.2m.025-.549a.361.361 0 1 0 .361.361.36.36 0 0 0-.36-.36m16.112 1.032l-.013-.002a.198.198 0 1 1 .199-.198c0 .11-.077.2-.186.2m.025-.55a.362.362 0 0 0 0 .724.362.362 0 0 0 0-.723m-20.841-.082l-.009-.002a.145.145 0 1 1 .145-.145c0 .08-.055.147-.136.147m.02-.402a.265.265 0 1 0-.001.529.265.265 0 0 0 0-.53m19.57.529l-.01-.001a.145.145 0 1 1 .145-.145c0 .08-.056.146-.136.146m.019-.401a.264.264 0 1 0 0 .528.264.264 0 0 0 0-.528m13.177.705l-.01-.002a.145.145 0 1 1 .145-.145c0 .08-.055.146-.135.146m.018-.401a.265.265 0 1 0 0 .529.265.265 0 0 0 0-.53m-23.597.174a.165.165 0 0 0-.165.165.165.165 0 1 0 .33 0 .165.165 0 0 0-.165-.165m13.404-.224a.165.165 0 1 0 .165.165.165.165 0 0 0-.166-.165m10.491-.489a.165.165 0 1 0 0 .33.165.165 0 0 0 0-.33m-25.237.278a.112.112 0 0 0 0 .224.112.112 0 0 0 0-.224m13.361-.254a.112.112 0 0 0 0 .224.112.112 0 0 0 0-.224m-15.524.047a.15.15 0 0 0 0 .298.149.149 0 0 0 0-.298m-6.854.131a.149.149 0 1 0 0 .298.149.149 0 0 0 0-.298m12.194-.048a.149.149 0 1 0 0 .297.149.149 0 0 0 0-.297m-.703.773a.095.095 0 0 0 0 .19.095.095 0 0 0 0-.19m-4.745-.191a.095.095 0 0 0 0 .19.095.095 0 0 0 0-.19m-3.8.282a.095.095 0 1 0 .095.095.095.095 0 0 0-.095-.095m1.086-.9a.095.095 0 0 0 0 .19.095.095 0 0 0 0-.19m-3.406.628a.095.095 0 0 0 0 .19.095.095 0 0 0 0-.19m11.368-.078a.095.095 0 0 0 0 .19.095.095 0 0 0 0-.19m1.938.191a.095.095 0 0 0 0 .19.095.095 0 0 0 0-.19m1.192-.64a.095.095 0 1 0 0 .19.095.095 0 0 0 0-.19m3.797.748a.095.095 0 1 0 .095.095.094.094 0 0 0-.095-.095m5.124-.896a.095.095 0 0 0 0 .19.095.095 0 0 0 0-.19m8.176.598a.095.095 0 0 0 0 .19.095.095 0 0 0 0-.19m3.023.176a.095.095 0 1 0 0 .19.095.095 0 0 0 0-.19m-5.532-.693a.095.095 0 1 0 0 .19.095.095 0 0 0 0-.19m-3.674.856a.095.095 0 1 0 .095.095.095.095 0 0 0-.095-.095m11.593 14.888c-.001.02-.046.477-.348.477l-19.862.054-19.864-.054c-.301 0-.346-.457-.347-.464l-.055-2.555c0-.149.151-.236.3-.286l.116 2.809s0 .285.679.3c0 0-.475-.123-.475-.437l.025-2.747.363-.182 1.707-.03.055-1.556h.072c-.003.016-.006.032-.006.05 0 .109.05.205.128.27a.353.353 0 0 0-.025.523.357.357 0 0 0 .044.537c-.155.054-.244.128-.268.226-.042.17.133.31.153.325l.022.017h.027c.135.003 9.086.133 19.306.133 5.149 0 10.62-.034 15.448-.133h.033l.024-.024c.05-.049.123-.164.088-.286-.038-.13-.177-.218-.425-.272l-.036.164c.246.052.292.125.301.154.01.035-.01.074-.027.098-14.144.29-33.785.013-34.68 0-.035-.034-.082-.093-.072-.135.006-.025.05-.107.365-.16l-.007-.04h33.917a.352.352 0 0 0 .351-.354.357.357 0 0 0-.102-.25.357.357 0 0 0-.025-.522.356.356 0 0 0 .127-.271c0-.018-.003-.034-.005-.05h.262l.056 1.555 1.706.03.333.168.026 2.762c0 .314-.476.436-.476.436.68-.014.68-.3.68-.3l.116-2.818c.157.047.33.136.33.292l-.055 2.546zm-39.313-4.593c0-.04.038-.074.084-.074h.974c.046 0 .084.034.084.074v.99c0 .04-.038.073-.084.073h-.974c-.046 0-.084-.033-.084-.073v-.99zm1.933.855c.03.009.06.014.091.014h33.965a.318.318 0 0 0 .091-.014.186.186 0 0 1-.091.348H68.108a.186.186 0 0 1-.09-.348zm.091-.529h33.965a.186.186 0 0 1 .091.348.318.318 0 0 0-.09-.014H68.107a.318.318 0 0 0-.09.014.186.186 0 0 1 .091-.348zm-.174-.404l17.253-.054 17.06.053a.17.17 0 0 1 .01.05.186.186 0 0 1-.184.188H68.108a.186.186 0 0 1-.184-.187c0-.018.005-.034.01-.05zm35.213.078c0-.04.037-.074.083-.074h.975c.046 0 .084.034.084.074v.99c0 .04-.038.073-.084.073h-.975c-.046 0-.083-.033-.083-.073v-.99zm1.793 1.29l-.267-.133a.478.478 0 0 0 .032-.167v-.99a.496.496 0 0 0-.5-.49h-.975a.512.512 0 0 0-.146.023v-.027l-17.65-.055v-.001h-.495v.001l-17.65.055-.001.027a.503.503 0 0 0-.146-.024h-.974c-.276 0-.5.22-.5.491v.99a.49.49 0 0 0 .031.167l-.267.133c-.364.038-.929.234-.928.766l.056 2.572c.025.298.216.86.763.86l19.171.052v.004l.693-.003.692.003v-.004l19.17-.052c.548 0 .739-.562.764-.872l.056-2.565c0-.527-.564-.723-.929-.76z" fill="#554740"/><path d="M108.547 30.023h-2.026l-.428 4.559-34.855.11a.583.583 0 0 0-.408 0l-7.01.023-.407-4.692h-1.868l-.48-12.021c.542-1.702 1.776-1.585 1.912-1.566l.035.006h43.87l.072-.006c.055-.01 1.354-.19 1.913 1.569l-.32 12.018zm-.373 1.792h-.9l.082-.873h.882l-.064.873zm-1.026 1.335l.078-.834h.706l-.104.834h-.68zm.87.8l-.985.42.068-.718h.938l-.022.298zm-9.746 9.447l-.135.092c-.348-.976-.913-1.622-1.681-1.923-.693-.272-1.434-.216-2.049-.07 1.962-1.588 3.038-3.797 3.536-5.085.125-.218.245-.443.355-.68.459.584 2.414 3.481-.026 7.666zm-6.278-3.929v-3.84l1.332-.004.043 3.264c-.45.227-.911.419-1.375.58zm-1.153-2.979h.487v-.528h-.487v.528zm-11.903 0h.402v-.528h-.402v.528zm.736.335v-.863h10.834v.863h.819V39.3h-12.39v-2.476h.737zm-3.051 1.838l.03-2.986 1.618-.005v3.738a9.603 9.603 0 0 1-1.648-.747zm19.659 7.343c-.749.676-6.325 5.828-6.512 9.202-.385 1.155-.827 2.977-1.126 5.74-.02-1.696.003-3.492.133-4.664 0 0 3.584-8.196 1.324-10.536 0 0 1.636 1.872-1.792 9.99 0 0-.497 0 .117 7.832a75.943 75.943 0 0 0-.127 3.933c-.081.827-.327 1.158-.484 1.287a.526.526 0 0 1-.407.127l-.04-.01H82.73l-.038-.002-.044.012a.431.431 0 0 1-.349-.1c-.184-.148-.494-.59-.494-1.89h-.053a75.752 75.752 0 0 0-.03-1.317c.867-9.871.288-9.873.288-9.873-3.428-8.117-1.792-9.99-1.792-9.99-2.26 2.341 1.324 10.537 1.324 10.537.199 1.785.145 5.017.08 7.138-.481-7.701-2.043-9.857-2.126-9.966l-.041.03c-1.383-3.18-5.426-6.912-6.055-7.48a14.729 14.729 0 0 1-1.841-2.36l.356.245a.169.169 0 0 0 .148.02.167.167 0 0 0 .105-.108c.308-.994.831-1.642 1.553-1.925 1.358-.532 3.015.374 3.116.43l.006.004c.08.046.181.017.227-.062a.166.166 0 0 0-.061-.227c-.003-.003-.01-.006-.019-.011-3.057-1.74-4.396-5.148-4.78-6.321l.437-.002c.203 1.06 1.76 6.28 12.714 5.895.173.017.691.06 1.434.06 2.417 0 7.202-.459 10.114-3.777-.76 1.414-1.984 3.087-3.842 4.145l-.018.01a.166.166 0 0 0 .165.29l.008-.004c.113-.064 1.759-.961 3.112-.43.724.283 1.248.93 1.556 1.925a.16.16 0 0 0 .077.09 15.09 15.09 0 0 1-1.685 2.113zM90.167 58.85a.599.599 0 0 0-.06.234l-.498 10.641-.492 2.461a.592.592 0 0 0-.01.158l.455 6.227c-.633-.463-1.342-.756-2.01-.94.266-2.926 1.366-3.896 1.375-3.903l.125-.103-.058-2.946c-.028-1.118-.035-2.165-.028-3.147.018-.197.028-.406.028-.63h-.02c.084-5.399.66-8.72 1.19-10.658.27.344.707 1.196.003 2.606zm-5.05 21.516h-.173c-2.616 0-4.258.896-5.207 1.7l.265-2.258c1.37-1.815 3.923-1.978 4.775-1.978.11 0 .173.003.19.004h.138a2.57 2.57 0 0 1 .182-.004c.762 0 2.888.129 4.329 1.432l.285 2.435c-1-.683-2.538-1.33-4.784-1.33zm-3.036-8.896c.19.184.413.318.667.406l-.24 1.593s.056.391-.427.396a3.556 3.556 0 0 0-.403-.534l.047-2.344c.093.174.208.34.356.483zm5.637-.36c-.357.347-.898.46-1.61.334a.25.25 0 0 0-.29.283l-.019-.011c.666 1.837-.5 2.421-.5 2.421 1.667 1.002-.166 3.172-.166 3.172.111 0 .247.01.394.024a6.844 6.844 0 0 0-.437 0h-.11s-.073-.004-.203-.004c-.066 0-.156.002-.263.006a4.27 4.27 0 0 1 .412-.026s-1.834-2.17-.168-3.172c0 0-1.081-.543-.565-2.223a.25.25 0 0 0 .136-.268.249.249 0 0 0-.29-.202c-.71.125-1.252.014-1.608-.333-.488-.473-.558-1.287-.551-1.778l.03.025a1.108 1.108 0 0 0 .856.216h4.53a1.201 1.201 0 0 0 .919-.25l.052-.046c.014.482-.042 1.34-.55 1.833zm-.403.792a1.78 1.78 0 0 0 1.021-.766l.044 2.195a3.564 3.564 0 0 0-.403.534c-.483-.005-.428-.396-.428-.396l-.234-1.567zm-7.74-12.818a.599.599 0 0 0-.06-.234c-.91-1.822.061-2.694.17-2.783a.576.576 0 0 0 .12-.134c.666 2.271 1.454 6.709 1.26 14.746l-.057 2.783v.161l.12.102c.011.01 1.118.984 1.38 3.93-.814.233-1.697.633-2.418 1.315l.484-6.626a.592.592 0 0 0-.01-.158l-.49-2.46-.499-10.642zm-8.16-23.392l.445-.001c.306.966 1.38 3.853 3.79 5.805-.614-.146-1.356-.202-2.048.07-.768.3-1.333.947-1.682 1.923l-.74-.507c-2.135-4.065-.14-6.828.234-7.29zm-9.3-1.487l-.035-.553h.728l.08.913-.773-.36zm.577-1.889l.073.834h-.44l-.104-.834h.471zm-.781-1.374h.662l.076.873h-.684l-.054-.873zm29.692 59.539l.058.817-.651-.726a28.633 28.633 0 0 0-.06-.616l.653.525zm-.493 1.55a38.496 38.496 0 0 0-.1-1.457l.662 1.206-.562.25zm.918 1.14l-.33.59a.581.581 0 0 0-.074.276l-.462-.326-.02-.922c-.006-.15-.011-.298-.018-.443l.857.601.047.224zm-.076 7.908a.59.59 0 0 0-.012.3l-.614-.686-.017-.734.815.572-.172.548zm.14 2.284c-.008.012-.012.025-.018.038l-.704-.785-.007-.295.965.677-.235.365zm.397 1.613l-.276.528a.603.603 0 0 0-.037.092l-.716-.8.67 1.22-.673.298-.049-2.078 1.06.688.021.052zm-.152 6.862a.582.582 0 0 0-.038.15l-.729-.813-.008-.373.933.656-.158.38zm.064 1.936a.591.591 0 0 0-.024.088l-.695-.776.668 1.218-.693.309-.008-.047-.04-1.704.896.628-.104.284zm.068 1.86l-.724-.68.662 1.035a.784.784 0 0 0 .006.042l-.671.299-.06-.381-.028-1.217.907.637-.092.265zm.015 1.731l-.738-.824.668 1.218-.683.304-.038-1.646.874.614-.083.334zm.04 1.715a.435.435 0 0 0-.006.052l-.688-.769.67 1.22-.695.308-.037-.235-.034-1.456.847.594-.057.286zm.017 2.495l-.693.308-.032-.202-.04-1.689.729.512-.022.149a.575.575 0 0 0 .015.244l.063.23-.689-.77.67 1.218zm-.97-10.388l.653 1.189-.62.275-.034-1.464zm-.039 11.024l.042-.036-.932-1.04.926.65.01.406-.046.02zm-.01-13.092l.66 1.2-.626.279-.034-1.479zm-.007-.311l.96.594-.196.554-.757-.844-.007-.304zm-.038-1.62l.629 1.145-.596.25-.033-1.395zm-.017-.725l.96.673-.167.464a.582.582 0 0 0-.007.373l.018.059-.788-.88-.016-.69zm-.06-2.559l-.027-1.187.53.964-.502.223zm-.072-3.095l.51.928-.483.214-.027-1.142zm-.026-1.12l-.031-1.345.593 1.08.005.012-.567.252zm-.046-1.971l.76.48-.216.687-.53-.592-.014-.575zm-.032-1.38l.42.764-.398.177-.022-.941zm-.023-1.015l.73.513-.245.485a.585.585 0 0 0-.052.16l-.415-.377-.018-.78zm-.035-1.45l.638.94-.61.271-.028-1.21zm-12.434-3.917c-.021.199-.042.403-.061.615l-.651.727.058-.817.654-.525zm-.16 2.074l-.563-.25.662-1.206c-.04.453-.073.938-.1 1.456zm-.032.76l-.021.921-.462.326a.581.581 0 0 0-.073-.277l-.33-.59.046-.223.857-.601-.017.444zm-.053 2.294l-.61-.27.638-.94-.028 1.21zm-.024 1.02l-.416.376a.585.585 0 0 0-.051-.159l-.245-.485.73-.513-.018.781zm-.027 1.175l-.398-.177.42-.764-.022.94zm-.024 1.014l-.53.592-.217-.687.76-.48-.013.575zm-.032 1.395l-.567-.252.005-.011.593-1.081-.031 1.344zm-.024 1.005l-.615.686a.59.59 0 0 0-.011-.3l-.172-.548.815-.572-.017.734zm-.03 1.258l-.483-.214.51-.928-.026 1.142zm-.015.665l-.704.785c-.006-.013-.01-.026-.017-.038l-.236-.365.964-.677-.007.295zm-.03 1.288l-.502-.223.53-.964-.028 1.187zm-.056 2.41l-.673-.299.67-1.219-.717.8a.603.603 0 0 0-.036-.092l-.276-.528.021-.052 1.059-.688-.048 2.078zm-.02.838l-.787.88.017-.059a.582.582 0 0 0-.007-.373l-.166-.464.959-.673-.016.69zm-.033 1.43l-.596-.249.629-1.145-.033 1.395zm-.013.53l-.756.844-.196-.554.96-.594-.008.304zm-.035 1.486l-.624-.279.66-1.2-.036 1.479zm.915 10.538l-.931 1.039.041.036-.045-.02.01-.406.925-.65zm-1.581-8.76l.653-1.19-.034 1.465-.619-.275zm-.272-.918l.934-.656-.009.373-.728.812a.584.584 0 0 0-.039-.149l-.158-.38zm.846 3.107l-.007.048-.694-.309.669-1.218-.695.776a.591.591 0 0 0-.024-.088l-.104-.284.895-.628-.04 1.703zM78 115.95l-.06.38-.673-.298a.396.396 0 0 0 .007-.042l.663-1.035-.724.68-.092-.265.908-.637-.03 1.217zm-.05 2.114l-.683-.304.669-1.218-.738.824-.083-.334.874-.614-.038 1.646zm-.037 1.593l-.036.235-.695-.309.67-1.219-.688.769a.58.58 0 0 0-.006-.052l-.058-.286.848-.594-.035 1.456zm-.047 2.024l-.032.203-.694-.308.67-1.218-.69.77.064-.23a.588.588 0 0 0 .015-.244l-.022-.15.729-.51-.04 1.687zm-.773 1.139l.033-.232a.668.668 0 0 0 .005-.088l.672-.472-.71.792zm.737.411l-.038.243-.607-.27.664-1.208.01-.007-.029 1.242zm31.936-105.42c-.607-2.04-2.15-2.388-2.916-2.286H63.082c-.768-.103-2.31.246-2.917 2.287l-.022.073.52 13.058h.246l.245 3.92 1.84.857 7.02-.022a7.33 7.33 0 0 0-.89 2.61c-.276 1.936.1 4.986 3.445 8.518.01.012.022.022.033.033 1.742 1.57 6.133 6.062 6.153 8.48-.6.63-1.236 2.022-.34 3.921l.495 10.564c.001.03.004.059.01.088l.485 2.426-.493 6.753-.714 6.081-1.184 4.024a.553.553 0 0 0-.022.123l-.144 2.011-.382 1.816a.584.584 0 0 0 .063.407l.295.527-.48 1.094a.586.586 0 0 0 .015.5l.467.92-.437.917a.584.584 0 0 0-.03.427l.35 1.113-.395.968a.585.585 0 0 0-.016.397l.268.852-.434 1.638a.588.588 0 0 0 .073.468l.238.366-.433 1.04a.588.588 0 0 0 .022.496l.284.543-.315.86a.59.59 0 0 0-.001.398l.264.735-.345 1.099a.585.585 0 0 0 .006.37l.325.915-.341.74a.583.583 0 0 0-.009.47l.296.711-.253 1.126a.586.586 0 0 0 .021.33l.154.42-.274.917a.582.582 0 0 0 .007.36l.238.687-.182.791a.58.58 0 0 0 .003.274l.147.59-.183.701a.595.595 0 0 0-.007.262l.13.653-.066.724a.558.558 0 0 0 .004.14l.091.611-.222.798a.587.587 0 0 0-.009.283l.161.742-.131.926a.597.597 0 0 0 .001.178l.095.564-.13.748a.593.593 0 0 0 .001.21l.122.637-.148.53a.594.594 0 0 0-.016.234l.062.458-.094.496a.588.588 0 0 0 0 .215l.087.464-.116.468a.585.585 0 0 0-.003.27l.065.288.623.04c.095-1.523.327-3.03.847-4.51l-.121-.05.347-.542a6.3 6.3 0 0 1 .138-.294l-.5.45.002-.01a.574.574 0 0 0 0-.196l-.001-.009.592-.416c.254-.468.563-.895.92-1.263l-.198-.089.66-1.201.099-.07-.815-.362.662-1.208-.86.962.014-.653 1.04-.731-.808-.36.714-1.104-.915.87.011-.468 1.084-.76-.816-.364.663-1.207-.9 1.005.01-.456 1.022-.716-.804-.357.73-.997-.916.756.008-.37 1.066-.75-.815-.362.663-1.208-.883.986.013-.537 1.149-.808-.815-.362.663-1.208-.963 1.075-.002-.001-.002.02.018-.776 1.144-.803-.816-.363.663-1.207-.96 1.072.015-.676 1.182-.83-.815-.363.663-1.207-.963 1.074h-.002v.002l-.04.259.03-1.297 1.095-.769-.815-.363.662-1.207-.911 1.017.02-.869.052-.033-.02-.009 1.238-.87-.786-.35.634-1.156-.92 1.029-.044-.02-.143.908.034-1.427.072-.05-.02-.008 1.238-.87-.815-.363.663-1.208-.963 1.074h-.001l-.165 1.052.047-2.013 1.202-.844-.816-.362.663-1.208-.962 1.074h-.001l-.001.003-.063.404.03-1.265.158-.1-.02-.01 1.238-.87-.815-.362.663-1.208-.962 1.075-.002-.001v.003l-.208 1.326-.049-.022.053-2.283 1.223-.858-.776-.345.657-1.196-.954 1.064-.044-.02-.087.56.035-1.514c.007-.217.016-.427.026-.634l.022-.014-.02-.01 1.238-.87-.818-.363.667-1.214-.966 1.077.009.008-.008-.004-.067.426c.038-.528.085-1.017.137-1.468l.105-.083 1.327-.78-.783-.427.666-1.212-.947 1.058-.008-.004-.005.018-.004.005.002.002-.315 1.306-.023-.008c.34-2.832.895-4.109.903-4.126a.125.125 0 0 0-.228-.102c-.03.068-.58 1.323-.92 4.138l-.502-.185.655-1.194-.582.65.98-3.333a.591.591 0 0 0 .02-.097l.296-2.522c.76-.797 2.373-1.968 5.297-1.968h.173c2.412 0 3.96.806 4.865 1.527l.348 2.963a.54.54 0 0 0 .02.097l.98 3.333-.582-.65.656 1.194-.503.185c-.34-2.815-.89-4.07-.92-4.138a.125.125 0 1 0-.227.102c.007.017.563 1.295.902 4.126l-.023.008-.314-1.306.002-.002-.005-.005-.004-.018-.008.004-.948-1.058.666 1.212-.782.427 1.327.78.105.084c.051.45.098.939.136 1.467l-.067-.426-.007.004.008-.008-.965-1.077.666 1.214-.818.364 1.24.87-.022.009.023.014c.01.207.018.416.026.633l.035 1.513-.088-.558-.044.02-.953-1.064.656 1.196-.776.345 1.223.858.053 2.283-.049.022-.207-1.326v-.003h-.002l-.962-1.074.663 1.208-.816.363 1.24.87-.022.008.16.1.029 1.266-.063-.404-.001-.003-.964-1.074.663 1.208-.815.362 1.202.844.047 2.013-.165-1.052h-.002l-.963-1.074.664 1.208-.815.362 1.238.87-.02.01.072.05.033 1.426-.142-.908-.044.02-.92-1.029.634 1.156-.787.35 1.239.87-.02.009.05.033.021.87-.911-1.018.663 1.207-.815.363 1.094.769.03 1.297-.04-.259v-.002h-.001l-.963-1.074.663 1.207-.816.363 1.183.83.015.676-.96-1.072.663 1.207-.816.363 1.143.803.018.774-.002-.018h-.002l-.962-1.074.663 1.208-.815.362 1.149.808.012.537-.883-.986.664 1.208-.815.363 1.065.748.009.37-.916-.755.73.997-.804.357 1.021.716.01.456-.9-1.005.664 1.207-.816.364 1.083.76.011.467-.914-.87.713 1.106-.808.359 1.04.73.015.654-.86-.962.662 1.208-.815.362.098.07.66 1.201-.716.32 1.04.73.007.328-.867-.697.628.877-.743.303-.005-.006.003.007-.063.025.127.082.596.997-.68.278.718.463c.068-.303.14-.604.226-.901l-.744-.762.817.527c.079-.258.156-.516.247-.767l-.013-.553.187.132c.05-.124.099-.248.153-.37l-.31.138-.038-.242-.028-1.243.01.007.532.97c.04-.085.089-.165.131-.249l-.617-.69.671.473c0 .03.001.058.005.088l.002.014c.002-.003.004-.006.004-.009l-.007-.084c-.131-1.623.358-3.095 1.22-4.326l-.15-.571.148-.59a.58.58 0 0 0 .002-.274l-.182-.791.238-.687a.582.582 0 0 0 .008-.36l-.275-.917.154-.42a.586.586 0 0 0 .021-.33l-.253-1.126.296-.711a.583.583 0 0 0-.008-.47l-.341-.74.324-.915a.585.585 0 0 0 .006-.37l-.344-1.099.264-.735a.586.586 0 0 0-.001-.399l-.316-.86.285-.542a.588.588 0 0 0 .021-.496l-.432-1.04.237-.366a.588.588 0 0 0 .074-.468l-.434-1.638.267-.852a.585.585 0 0 0-.016-.397l-.395-.968.35-1.113a.584.584 0 0 0-.03-.427l-.436-.917.467-.92a.586.586 0 0 0 .014-.5l-.48-1.094.296-.527a.588.588 0 0 0 .062-.407l-.382-1.816-.144-2.01a.553.553 0 0 0-.022-.124l-1.184-4.024-.182-1.553c.005-.001.01 0 .016-.002a.25.25 0 0 0 .17-.267l-.302-2.609a.269.269 0 0 0-.014-.06 4.769 4.769 0 0 0-.287-.616l-.114-.974-.493-6.753.484-2.426a.547.547 0 0 0 .01-.088l.495-10.564c.896-1.899.26-3.29-.34-3.92.02-2.417 4.411-6.91 6.153-8.481.011-.011.023-.021.033-.033 3.346-3.532 3.721-6.582 3.446-8.518a7.342 7.342 0 0 0-.944-2.703l7.134-.022 2.222-.95.271-3.69h.2l.347-13.061-.022-.07z" fill="#554740"/><path fill="#554740" d="M77.352 108.24l.002-.009.021.018zm14.978 0l-.024.01.021-.019zm11.404-79.04c.083 0 .15.07.15.157a.154.154 0 0 1-.15.156.154.154 0 0 1-.151-.156c0-.087.067-.157.15-.157m0 .48a.32.32 0 0 0 .318-.323.32.32 0 0 0-.317-.324.32.32 0 0 0-.318.324.32.32 0 0 0 .318.323m-37.095-.48c.083 0 .151.07.151.157a.154.154 0 0 1-.151.156.154.154 0 0 1-.151-.156c0-.087.068-.157.151-.157m0 .48a.32.32 0 0 0 .318-.323.32.32 0 0 0-.318-.324.32.32 0 0 0-.318.324.32.32 0 0 0 .318.323m15.451 8.896h1.5l.126-.333-.042-1.712-.166-.125-.043 1.753-1.166-.042-.042-1.544-.416-.209.041 1.92zm4.292 0h1.5l.126-.333-.042-1.712-.167-.125-.042 1.753-1.166-.042-.042-1.544-.416-.209.04 1.92zm-20.229-6.832c-.077-.04-.177-.115-.175-.166 0-.029.046-.078.172-.13a.084.084 0 0 0 .045-.109l-.008-.013c.913.014 12.698.197 23.538.197 5.582 0 10.914-.049 14.38-.193 0 .032.02.062.05.076.164.069.222.134.222.171 0 .055-.102.13-.182.168-10.23.732-37.2.022-38.042-.001m-.003.337a.084.084 0 0 0 .045-.11.084.084 0 0 0-.109-.045c-.067.028-.27.112-.275.281-.004.183.238.306.287.328.01.005.02.008.032.008.184.005 12.393.332 23.595.332 5.644 0 11.034-.083 14.497-.332a.083.083 0 0 0 .027-.007c.03-.012.295-.133.295-.326 0-.12-.096-.221-.288-.31.045-.02.288-.137.288-.324 0-.11-.08-.204-.244-.287.09-.057.262-.187.242-.342-.022-.17-.256-.23-.333-.25a.082.082 0 0 0-.101.06.083.083 0 0 0 .06.102c.16.04.206.088.209.11.005.044-.09.133-.185.19-10.218.435-37.1.014-38.035 0-.091-.06-.185-.151-.18-.193.003-.015.04-.052.16-.081a.084.084 0 1 0-.04-.162c-.064.015-.26.063-.283.219-.025.164.18.31.256.358-.079.034-.255.117-.259.275-.004.183.238.305.287.327a.07.07 0 0 0 .032.009c.184.005 12.393.331 23.595.331 5.589 0 10.928-.082 14.394-.325-.002.004-.006.007-.008.012a.083.083 0 0 0 .045.109c.163.07.22.134.22.172.002.055-.101.13-.181.168-10.23.732-37.2.022-38.042 0-.077-.04-.177-.117-.175-.167 0-.029.046-.079.172-.13"/><path d="M104.544 32.969c0-.126-.106-.233-.323-.325a.083.083 0 0 0-.11.044.083.083 0 0 0 .044.11c.164.069.222.134.222.171 0 .055-.102.13-.182.168-10.23.733-37.2.021-38.042 0-.077-.04-.176-.117-.175-.166 0-.03.046-.08.171-.13a.084.084 0 0 0 .046-.11.085.085 0 0 0-.109-.045c-.067.027-.27.111-.274.28-.005.184.237.306.285.329a.08.08 0 0 0 .034.008c.183.004 12.393.332 23.594.331 5.643 0 11.033-.083 14.496-.331a.082.082 0 0 0 .028-.007c.03-.013.296-.134.295-.327m-19.75 86.078s-1.68-.175-3.238 1.564l.01-1.297c.545-.457 3.8-2.927 6.859.415l.007 1.152c-.4-.606-1.501-1.882-3.638-1.834zm-3.217-1.348a.295.295 0 0 0 .018-.04s3.52-3.305 6.817.325l.007 1.037c-.412-.614-1.512-1.862-3.625-1.814 0 0-1.671-.174-3.224 1.55l.007-1.058zm.012-1.7l.004-.01s3.535-3.37 6.808.432l.006.848c-.42-.621-1.501-1.834-3.553-1.787 0 0-1.717-.181-3.273 1.662l.008-1.145zm.013-1.78c.639-.526 3.805-2.825 6.787.442l.008 1.088a3.977 3.977 0 0 0-3.594-1.937s-1.68-.18-3.21 1.647l.009-1.24zm.012-1.834c.666-.542 3.798-2.773 6.762.401l.007 1.165c-.412-.615-1.507-1.856-3.605-1.808 0 0-1.637-.17-3.173 1.51l.009-1.268zm.012-1.646c.363-.328 3.663-3.129 6.73.472l.008-.04.006.89c-.446-.634-1.541-1.789-3.576-1.743 0 0-1.636-.17-3.176 1.497l.008-1.076zm.011-1.68c.42-.374 3.68-3.08 6.715.479l.008 1.021c-.302-.523-1.36-2.018-3.582-1.966 0 0-1.64-.178-3.148 1.6l.007-1.135zm.014-1.769c.734-.588 3.791-2.685 6.689.428l.008 1.15c-.318-.54-1.378-1.996-3.57-1.945 0 0-1.632-.177-3.137 1.586l.01-1.219zm.011-1.648c.505-.441 3.69-2.983 6.667.473l.006.876c-.447-.635-1.537-1.783-3.557-1.737 0 0-1.602-.168-3.123 1.456l.007-1.068zm.013-1.847c.543-.472 3.693-2.936 6.64.47l.008 1.169c-.344-.57-1.404-1.956-3.545-1.905 0 0-1.615-.175-3.112 1.559l.009-1.293zm.013-1.831c.234-.22 3.533-3.189 6.614.39l.008 1.222c-.358-.583-1.418-1.933-3.532-1.884 0 0-1.606-.173-3.1 1.544l.01-1.272zm.014-2.032c.612-.522 3.692-2.844 6.586.462l.009 1.265c-.368-.595-1.416-1.907-3.476-1.859 0 0-1.635-.179-3.13 1.624l.011-1.492zm.014-2.007c.01.13.034.206.093.046 0 0 3.341-3.314 6.465.34l.009 1.382c-.382-.603-1.442-1.888-3.505-1.84 0 0-1.586-.17-3.072 1.513l.01-1.44zm.005-.749c0-1.29.059-2.41.158-3.386.15-.145 3.27-3.118 6.246.175.043.453.077.937.101 1.452-.414-.634-1.424-1.783-3.298-1.738 0 0-1.67-.189-3.149 1.767 0 0-.032.757.094.41 0 0 3.293-3.298 6.38.314.007.325.013.66.013 1.008l.003.423c-.388-.616-1.413-1.854-3.375-1.807 0 0-1.682-.19-3.176 1.76l.003-.378zm3.084-9.88l.025-.003s.057-.01.15-.01a1.5 1.5 0 0 1 .199.014c.024.003 2.122.35 2.845 5.778-.502-.641-1.478-1.494-3.096-1.455 0 0-1.543-.174-2.977 1.55.71-5.518 2.831-5.87 2.854-5.873zm4.174 40.152l-.213-30.272c0-9.907-3.39-10.363-3.525-10.376a1.853 1.853 0 0 0-.26-.018 1.27 1.27 0 0 0-.24.019c-.275.036-3.52.682-3.52 10.374l-.168 23.874a4.29 4.29 0 0 1 .747-.078c.94-.698 3.867-2.43 6.638.612l.01 1.327c-.39-.597-1.492-1.905-3.654-1.856 0 0-.537-.05-1.282.213.285.109.56.25.823.419.232.04.457.095.675.169 1.068.02 2.27.457 3.442 1.75l.015 2.195-.267-.138c.023.134.042.268.054.404l.216.112.01 1.276.006.435c-.05-.056-.103-.105-.155-.156.011.285.021.569.033.853l.135-.013.03 1.744c.167.018.333.038.5.057l-.05-2.926z" fill="#554740"/><g transform="translate(91.287 38.362)"><mask id="d" fill="#fff"><use xlink:href="#c"/></mask><path d="M48.658 17.13h-1.316l.099-6.904a5.054 5.054 0 0 0 1.25 1.261l-.033 5.643zm-1.917 0h-1.147l.03-8.186 1.223-.001-.106 8.187zM45 11.294h-1.14l.001.023-15.513.04h-3.189l-15.513-.04.001-.022-1.142-.001-.011-3.026-1.268-.001a2.024 2.024 0 0 1 .039-.552L8.7 7.708l.023 3.467 16.435.04h3.189l16.435-.04.023-3.467 1.437.007c.022.088.05.265.038.552l-1.267.001-.012 3.026zm-.008 1.963l-.257-.813h.261l-.004.813zm-.005 1.221l-.22-.694h.223l-.003.694zm-.004 1.222l-.215-.674h.217l-.002.674zm-.005 1.158l-.187-.592h.189l-.002.592zM9.055 14.067l16.104.096h3.189l16.104-.096.17.536-16.274.096h-3.189l-16.274-.096.17-.536zM29.2 12.274c.276-.386.873-.63 1.35-.773l13.323-.014.054.747-14.727.04zm-19.622-.04l.054-.747 13.323.014c.478.142 1.075.387 1.35.773l-14.727-.04zm15.58.688h3.189l16.103-.097.17.536-16.273.097h-3.189L8.887 13.36l.17-.536 16.102.097zm3.189 3.019h-3.189l-16.275-.096.17-.537 16.105.097h3.189l16.106-.097.17.537-16.276.096zm0 1.184h-3.189l-16.25-.06.157-.494 16.093.096h3.189l16.093-.096.156.494-16.25.06zM8.514 13.257l-.004-.813h.262l-.258.813zm.005 1.221l-.003-.694h.223l-.22.694zm.005 1.222l-.003-.674h.217l-.214.674zm.005 1.158l-.003-.592h.19l-.187.592zm-1.766.272L6.66 8.943l1.223.001.03 8.186h-1.15zm-1.914 0l-.034-5.643a5.041 5.041 0 0 0 1.251-1.26l.1 6.903H4.848zm39.497-9.171l-.019 2.708-15.98.04H25.16l-15.979-.04-.018-2.708h35.184zm7.408 74.867c.13.009.256.036.385.052.503-8.642 1.2-17.274 1.08-25.94a8.07 8.07 0 0 1 .146-1.68V17.13h-.001l-.011-8.44c-.005-.082-.72-8.174-12.319-8.651h-28.56C10.471.12 8.803.435 7.4.89c.006.023.017.041.023.064.035.139.059.282.09.421.068.173.135.347.191.525.005.016.002.031.005.047.01.025.026.047.036.071 1.303-.418 2.864-.706 4.752-.784H41.01c10.299.424 11.105 7.032 11.15 7.524l.01 8.37h-2.041l-.009-7.447c-.006-5.917-8.908-6.515-9.287-6.537h-28.16c-.184.01-2.392.16-4.608.994a7.075 7.075 0 0 1-.112.926c2.263-.952 4.71-1.121 4.743-1.123h28.115c.06.004 8.507.573 8.513 5.74l.001 1.04c-.251-.157-1.774-1.187-1.658-2.926.027-.394-.134-1.21-.938-1.482l-.067-.023H7.626a8.939 8.939 0 0 1-.344.847h39.232c.248.118.238.55.235.581-.011.19-.011.372.001.547h-.24c.02-.498-.072-.712-.084-.736a.114.114 0 0 0-.1-.069l-1.517-.007V7.45H8.699v.004l-1.517.007a.114.114 0 0 0-.101.069c-.012.024-.103.238-.084.737h-.24c.005-.068 0-.14 0-.21-.79 1.194-1.89 2.182-2.925 3.151-.154.144-.3.289-.447.433l-.006 5.489H1.337l.004-3.25c-.416.516-.812 1.05-1.196 1.606L.143 17.13v31.54c.116.662.225 1.327.324 1.994l.005.007c.046.117.088.237.132.356.222-.147.549-.117.624.212.407 1.782.423 3.592.292 5.405.018 1.31.134 2.64.233 3.968V18.743h50.001v64.083z" fill="#554740" mask="url(#d)"/></g><path d="M123.94 47.795l.013.002c.102 0 .186.094.186.207-.001.113-.084.205-.186.205-.104 0-.187-.092-.187-.205 0-.114.07-.209.173-.209m-.363.195c0 .207.152.375.339.375.189.001.34-.167.34-.375 0-.206-.15-.375-.34-.375-.187 0-.34.168-.34.375m-20.277.281c-.104 0-.187-.093-.187-.207 0-.113.072-.208.175-.208l.012.003c.103 0 .187.092.187.206 0 .114-.084.206-.187.206m-.036-.595c-.188 0-.34.168-.34.375 0 .208.151.376.339.376.188 0 .341-.168.341-.375s-.152-.376-.34-.376m25.723-.002l.013.002c.103 0 .187.093.187.206 0 .114-.085.206-.188.206-.102 0-.185-.092-.185-.206 0-.114.07-.208.173-.208m-.024.57c.188 0 .341-.168.341-.375s-.152-.376-.34-.376c-.188 0-.34.168-.34.375 0 .208.151.377.339.377m-15.168-.677c-.102 0-.186-.093-.186-.206 0-.114.071-.209.175-.209l.012.003c.103 0 .186.092.186.206 0 .113-.083.206-.187.206m-.035-.595c-.188 0-.34.168-.34.375 0 .208.151.376.34.377.187 0 .34-.169.34-.376s-.152-.376-.34-.376m19.634.859l.01.001c.076 0 .136.068.136.151 0 .085-.06.152-.137.152-.076 0-.136-.068-.136-.152 0-.083.052-.152.127-.152m-.018.418c.137 0 .25-.124.25-.275 0-.151-.112-.275-.25-.275-.136 0-.248.123-.248.274 0 .152.111.276.248.276m-18.427-.267c-.076 0-.137-.068-.136-.151 0-.083.052-.152.127-.152l.009.001c.075 0 .138.068.138.151 0 .084-.063.15-.138.15m-.027-.434c-.137-.001-.249.123-.249.274 0 .152.112.275.25.275.136 0 .248-.123.248-.274 0-.152-.112-.275-.249-.275m-12.405.106c-.076 0-.136-.067-.136-.15 0-.084.052-.153.127-.153l.009.002c.076 0 .137.067.137.15 0 .084-.062.151-.137.151m-.026-.435c-.137 0-.249.123-.25.274 0 .152.113.275.25.275s.248-.122.248-.274c0-.152-.11-.275-.248-.275m22.231.394c.087 0 .156-.076.156-.172 0-.094-.07-.172-.156-.172-.084 0-.154.077-.155.172 0 .095.07.172.155.172m-12.627-.126c-.086 0-.157.078-.157.172 0 .095.07.172.157.172.086 0 .155-.077.155-.171 0-.095-.069-.172-.155-.172m-9.885.496c-.086 0-.156.077-.157.172 0 .095.071.172.157.172.085 0 .156-.077.156-.172 0-.094-.07-.172-.156-.172m23.778.083c.058 0 .105-.053.105-.117s-.047-.116-.105-.116c-.059 0-.106.052-.106.116s.047.117.106.117m-12.589.018c-.058 0-.105.051-.105.115s.047.116.105.116c.058 0 .106-.051.106-.116 0-.064-.048-.115-.106-.115m14.625.199c.078 0 .141-.07.141-.155 0-.085-.062-.155-.14-.155-.077 0-.14.07-.14.155 0 .085.062.155.14.155m6.458-.13c.077 0 .14-.069.14-.154 0-.086-.063-.155-.14-.155-.078 0-.14.07-.141.155 0 .085.063.154.141.154m-11.489.038c.078 0 .141-.069.141-.155.001-.085-.063-.155-.141-.155-.076 0-.139.07-.139.155 0 .086.062.155.139.155m.663-.802c.05 0 .089-.043.089-.098 0-.055-.04-.1-.089-.1-.05 0-.09.045-.09.1 0 .055.04.098.09.098m4.47.202c.05 0 .09-.043.09-.097 0-.055-.04-.1-.09-.1-.048 0-.088.045-.089.099 0 .054.04.098.089.098m3.582-.288c.048 0 .088-.044.088-.098 0-.055-.04-.099-.088-.099-.05 0-.09.044-.09.099 0 .054.04.098.09.098m-1.025 1.454c.048 0 .088-.044.088-.099 0-.054-.04-.097-.088-.097-.05 0-.09.043-.09.097 0 .055.04.1.09.1m3.21-1.169c.05 0 .09-.045.09-.1 0-.054-.04-.097-.09-.097-.049 0-.089.043-.089.097 0 .055.04.1.09.1m-10.711.067c.05 0 .09-.043.09-.098 0-.054-.04-.098-.09-.098-.049 0-.089.044-.089.098 0 .055.04.098.09.098m-1.828-.199c.05 0 .09-.044.09-.099 0-.054-.04-.098-.09-.098-.049 0-.09.044-.09.098 0 .055.041.1.09.1m-1.125 1.183c.05 0 .089-.044.089-.098 0-.055-.039-.1-.088-.1-.05 0-.09.044-.09.1 0 .054.04.098.09.098m-3.576-1.499c-.05 0-.089.044-.089.098 0 .054.04.099.09.099.049 0 .09-.044.09-.099 0-.054-.04-.098-.09-.098m-4.83.925c-.049 0-.09.045-.09.099 0 .054.041.098.09.098.049 0 .088-.044.088-.098 0-.054-.04-.099-.088-.099m-7.702-.629c-.049 0-.088.044-.088.098 0 .055.039.098.088.098.05 0 .09-.043.09-.098 0-.054-.04-.098-.09-.098m-2.847-.186c-.05 0-.089.044-.089.098 0 .054.04.098.089.098.049 0 .09-.044.09-.098 0-.054-.041-.098-.09-.098m5.211.725c-.05 0-.09.044-.09.099 0 .054.04.097.09.097.048 0 .089-.043.089-.097 0-.055-.04-.1-.089-.1m3.462-.884c-.05 0-.09.044-.09.098 0 .055.04.098.09.098.049 0 .089-.043.089-.097 0-.055-.04-.1-.089-.1" fill="#554740"/><g transform="rotate(-90 105.768 -2.103)"><mask id="f" fill="#fff"><use xlink:href="#e"/></mask><path d="M9.732 1.173c4.916 0 8.914 4.123 8.914 9.193 0 5.069-3.998 9.193-8.914 9.193-4.916 0-8.915-4.124-8.915-9.193 0-5.07 3.999-9.193 8.915-9.193m0 19.228c5.365 0 9.73-4.501 9.73-10.035S15.097.33 9.732.33C4.366.33 0 4.832 0 10.366S4.366 20.4 9.732 20.4" fill="#41342D" mask="url(#f)"/></g><path d="M122.836 98.455c.677.509 1.05.014 1.05.014.18-.258-.31-.698-.31-.698l-4.542-4.224.719-.661s.316-.24.477-.686c0 0 .102-.276.427-.472 0 0 1.092-.714 1.38-.734l.331.413.06.026.237-.12.161.064.647.843s.228.147.467-.179c0 0 .127-.129.129-.333l-2.788-3.569s-.323-.13-.424.223l-.05.41.58.76-.06.211-.084.02-.017.138.207.26s-.87.56-1.11.81l-1.224 1.018-.868.807v-.001l-.002.002-.003-.002-.867-.806-1.225-1.018c-.24-.25-1.11-.81-1.11-.81l.207-.26-.016-.137-.085-.02-.06-.212.58-.76-.05-.41c-.1-.353-.424-.223-.424-.223l-2.788 3.569c.002.204.13.333.13.333.239.326.467.18.467.18l.646-.844.16-.064.239.12.059-.026.332-.413c.286.02 1.379.734 1.379.734.326.196.427.472.427.472.161.445.478.686.478.686l.718.66-4.542 4.225s-.489.44-.309.698c0 0 .373.495 1.05-.014l1.682-1.48 2.925-2.688 2.924 2.688 1.683 1.48z" fill="#41342D"/></g></svg>