<svg width="164" height="130" viewBox="0 0 164 130" xmlns="http://www.w3.org/2000/svg"><title>BOX</title><g fill="#554740" fill-rule="evenodd"><path d="M158.432 72.024l-.014.15.022.149c.345 2.378-.666 3.386-.926 3.602l-86.939 32.466c-1.441.511-2.261.609-2.726.595l.022-.35c-.8-.012-1.553-.182-2.31-.697l-.262-.17L3.39 70.253l-.258-.038c-.488-.07-.638-1.614-.501-2.616l.012-27.17c0-.595.772-1.12 1.47-1.448l-.16.273c.327-.238.651-.366 1.116-.437.025-.004.046 0 .07 0L4.9 38.68l1.696-.454L67.951 74.12l-.111.04c.961.441 1.816 1.171 2.713 1.763l90.4-32.072-2.521 28.173zm-62.87-57.569l59.626 28.714-84.861 30.108-61.11-35.75 86.345-23.072zm4.07-1.087l59.436 28.425-1.323.47-59.327-28.571 1.214-.324zm64.143 27.827l-63.46-30.348-.429-.205L4.2 36.208c-1.535.417-4.133 1.773-4.133 4.22v26.906c-.232 1.81.04 4.808 2.409 5.37l62.838 37.819c.363.458 1.11 1.025 2.593 1.025.965 0 2.153-.248 3.551-.744l87.116-32.532.215-.104c.115-.07 2.781-1.735 2.22-6.06l2.766-30.913z"/><path d="M11.4 43.099c.098.095.197.188.303.275.283.155.56.32.83.499a.451.451 0 0 1 .182.022c.232.077.455.17.682.258-.086-.05-.17-.102-.255-.152-.543-.31-1.134-.697-1.736-.913l-.007.01m79.597 8.482c-9.466 3.761-21.875 2.283-27.662-3.297-5.788-5.579-2.795-13.178 6.671-16.94 9.466-3.761 21.875-2.283 27.662 3.297 5.787 5.578 2.795 13.178-6.671 16.94m9.059-17.89c-6.592-6.355-20.728-8.039-31.51-3.754s-14.191 12.941-7.6 19.296c6.593 6.356 20.729 8.04 31.51 3.755 10.783-4.285 14.192-12.941 7.6-19.296"/><path d="M95.628 41.763l-14.274-1.512.599-1.36s.798-.98.561-1.642c0 0-.617.027-.215-.464 0 0 1.273-1.72 1.815-1.971l1.172.237.152-.016.319-.331.4-.05 2.334.506s.634-.001.702-.583c0 0 .09-.255-.16-.504L79.05 31.97s-.8.098-.56.603l.412.532 2.1.459.144.302-.142.092.138.177.734.152s-1.021 1.357-1.184 1.848l-1.156 2.19-.712 1.658-2.41-.256-3.697-.26c-.789-.113-3.209-.103-3.209-.103l.083-.476-.203-.152-.194.042-.383-.207.198-1.373-.61-.454c-.64-.344-1.117.065-1.117.065l-1.067 6.493c.262.245.674.3.674.3.882.204 1.149-.152 1.149-.152l.227-1.524.239-.205.62-.04.086-.08.14-.758c.595-.2 3.65-.201 3.65-.201.89-.02 1.437.231 1.437.231.874.409 1.801.45 1.801.45l1.926.197-3.636 8.465s-.637.871.26 1.085c0 0 1.268.328 2.061-.843l1.485-3.108 2.349-5.342 9.151.934 5.183.458c2.05.04 2.096-.81 2.096-.81.06-.593-1.485-.597-1.485-.597m-8.094 52.004c-4.084 1.064-7.443-1.738-7.49-6.247-.045-4.508 3.24-9.042 7.324-10.105 4.084-1.065 7.443 1.738 7.489 6.247.046 4.508-3.24 9.042-7.323 10.105m-.178-17.49c-4.651 1.212-8.394 6.376-8.341 11.511.052 5.136 3.878 8.328 8.53 7.117 4.652-1.212 8.394-6.376 8.342-11.512-.052-5.136-3.88-8.328-8.531-7.116"/><path d="M90.631 81.771l.287.329.052.012.201-.17.139.026.56.677s.197.093.398-.278c0 0 .107-.154.107-.354l-2.419-2.851s-.277-.054-.36.31l-.038.41.504.612-.05.218-.072.04-.013.136.179.208s-.737.738-.94 1.035l-1.036 1.263-.736.98-.662-.523-1.057-.717c-.208-.19-.956-.541-.956-.541l.174-.3-.015-.129-.073-.002-.053-.192.488-.87-.047-.386c-.09-.321-.364-.124-.364-.124l-2.348 4.094c.004.2.114.296.114.296.208.265.4.07.4.07l.545-.964.137-.099.204.066.05-.04.28-.475c.245-.044 1.186.407 1.186.407.28.118.37.364.37.364.142.397.415.56.415.56l.531.415-3.753 5.005s-.467.476-.257.748c0 0 .288.403.897-.247l1.424-1.815 2.384-3.151 2.527 1.965 1.452 1.065a.62.62 0 0 0 .898-.22c.203-.38-.272-.61-.272-.61l-3.923-3.1.608-.803s.55-.523.683-.991c0 0-.198-.074.078-.337 0 0 .927-.937 1.172-1.022m57.775-21.091L98.758 78.014a.642.642 0 1 0 .426 1.213l49.648-17.333a.642.642 0 1 0-.426-1.212m0 4.951L98.758 82.965a.642.642 0 1 0 .426 1.214l49.648-17.333a.642.642 0 1 0-.426-1.213m12.547-20.161L71.437 77.708l89.516-30.311zM2.581 41.035l66.712 36.673-65.34-38.454s-1.431-.571-1.372 1.781m64.836 67.87l2.626-30.663-1.313 31.02"/></g></svg>