<?xml version="1.0" encoding="UTF-8" standalone="no"?>
<svg width="14px" height="13px" viewBox="0 0 14 13" version="1.1" xmlns="http://www.w3.org/2000/svg" xmlns:xlink="http://www.w3.org/1999/xlink">
    <!-- Generator: Sketch 3.8.3 (29802) - http://www.bohemiancoding.com/sketch -->
    <title>CHECK_GRAY</title>
    <desc>Created with Sketch.</desc>
    <defs></defs>
    <g id="IMAGES" stroke="none" stroke-width="1" fill="none" fill-rule="evenodd">
        <g id="CHECK_GRAY" fill="#97908D">
            <path d="M13.077,0.464 C12.741,0.816 12.566,1.313 12.213,1.681 C12.053,2.001 11.797,2.257 11.636,2.593 C11.541,2.833 11.301,2.993 11.188,3.234 C11.093,3.33 11.141,3.425 11.06,3.538 L10.773,3.81 C10.74,3.873 10.677,4.001 10.66,4.098 C10.532,4.146 10.517,4.322 10.372,4.37 C10.244,4.466 10.356,4.642 10.18,4.754 C10.004,4.882 9.971,5.122 9.828,5.282 C9.732,5.346 9.668,5.459 9.588,5.538 C9.38,5.714 9.364,5.971 9.187,6.195 C9.107,6.291 9.044,6.403 8.931,6.467 C8.884,6.547 8.899,6.643 8.867,6.723 C8.739,6.995 8.499,7.123 8.388,7.395 C8.307,7.443 8.243,7.539 8.195,7.619 C8.148,7.652 8.131,7.747 8.148,7.827 C8.067,8.02 7.923,8.035 7.859,8.195 C7.843,8.244 7.779,8.26 7.812,8.323 C7.763,8.436 7.619,8.467 7.587,8.563 C7.603,8.612 7.555,8.612 7.555,8.643 C7.491,8.74 7.459,8.852 7.346,8.884 C7.251,8.916 7.266,9.06 7.235,9.14 C7.155,9.268 6.995,9.316 6.947,9.476 C6.947,9.524 6.915,9.556 6.915,9.604 C6.675,9.828 6.61,10.164 6.355,10.356 C6.37,10.452 6.242,10.516 6.227,10.629 C5.923,10.82 5.923,11.172 5.666,11.413 C5.538,11.557 5.458,11.733 5.395,11.909 C5.17,12.117 5.09,12.357 4.849,12.517 C4.721,12.629 4.466,12.565 4.338,12.661 C3.953,12.678 3.569,12.693 3.185,12.678 C2.609,12.661 2.049,12.709 1.488,12.597 C1.425,12.565 1.345,12.517 1.28,12.485 C1.184,12.325 1.024,12.181 1.04,11.925 C1.056,11.813 1.024,11.685 0.944,11.62 C0.929,11.461 0.992,11.237 0.897,11.14 C0.897,11.013 0.769,10.964 0.816,10.804 C0.944,10.516 0.656,10.484 0.752,10.196 C0.721,10.068 0.608,9.925 0.592,9.78 L0.608,9.78 C0.656,9.588 0.56,9.476 0.576,9.268 C0.464,9.156 0.513,8.916 0.416,8.788 C0.4,8.612 0.448,8.403 0.384,8.244 C0.273,8.148 0.32,7.923 0.24,7.827 C0.24,7.747 0.208,7.667 0.24,7.619 C0.273,7.395 0.112,7.283 0.095,7.075 C0.145,7.059 0.112,6.995 0.112,6.947 C0.08,6.883 0.032,6.851 0,6.771 L0,6.403 C0.08,6.37 0.064,6.243 0.16,6.243 C0.223,6.083 0.48,6.211 0.608,6.13 C0.672,6.163 0.752,6.146 0.832,6.211 C1.169,6.211 1.52,6.195 1.841,6.243 C2.081,6.195 2.352,6.211 2.625,6.211 C2.72,6.211 2.817,6.227 2.898,6.259 C2.945,6.291 2.993,6.323 3.041,6.355 C3.201,6.531 3.089,6.915 3.233,7.123 C3.218,7.363 3.266,7.652 3.313,7.907 C3.266,7.923 3.297,7.987 3.297,8.035 C3.474,8.308 3.281,8.74 3.681,8.916 C3.874,8.995 3.937,8.82 4.05,8.755 C4.082,8.676 4.162,8.596 4.258,8.563 C4.354,8.532 4.466,8.643 4.498,8.515 C4.466,8.452 4.354,8.467 4.338,8.403 C4.306,8.339 4.338,8.275 4.354,8.244 C4.418,7.987 4.754,7.939 4.754,7.699 L4.754,7.652 C4.802,7.571 4.834,7.491 4.93,7.428 C4.946,7.299 5.042,7.251 5.042,7.123 C5.282,6.947 5.33,6.547 5.586,6.387 C5.634,6.179 5.843,5.987 5.923,5.794 C5.971,5.635 6.162,5.635 6.211,5.459 L6.211,5.266 C6.45,5.106 6.547,4.818 6.723,4.594 C6.867,4.418 6.963,4.21 7.107,4.018 C7.251,3.922 7.219,3.714 7.299,3.602 L7.571,3.345 C7.619,3.186 7.747,3.073 7.763,2.913 C7.892,2.737 8.02,2.561 8.131,2.401 C8.34,2.129 8.419,1.793 8.659,1.553 C8.739,1.281 9.059,1.073 9.059,0.784 C9.107,0.656 9.187,0.544 9.284,0.448 C9.443,0.272 9.604,0.096 9.876,0.064 C10.18,0.048 10.564,0.08 10.885,0.032 L10.885,0.048 C11.108,0.064 11.397,0.08 11.605,0.032 C11.636,0.064 11.717,0.032 11.749,0.064 C12.005,0.064 12.357,0.16 12.533,0 C12.629,0.032 12.789,-0.048 12.806,0.064 C12.917,0.176 13.125,0.24 13.077,0.464 L13.077,0.464 Z M1.841,10.564 L1.841,10.612 C1.857,10.676 1.904,10.676 1.937,10.725 L2.193,10.725 C2.241,10.676 2.193,10.645 2.193,10.596 C2.144,10.484 1.921,10.532 1.841,10.564 L1.841,10.564 Z M2.641,9.204 C2.545,9.22 2.465,9.3 2.352,9.236 C2.272,9.22 2.144,9.236 2.049,9.236 C1.969,9.236 2.016,9.332 2.001,9.38 C2.016,9.38 2.064,9.364 2.064,9.412 C2.305,9.268 2.657,9.54 2.817,9.236 C2.801,9.172 2.705,9.22 2.641,9.204 L2.641,9.204 Z M2.257,8.643 C2.193,8.788 2.352,8.74 2.352,8.82 C2.481,8.852 2.562,8.82 2.609,8.74 C2.609,8.691 2.545,8.691 2.513,8.643 L2.257,8.643 L2.257,8.643 Z M3.105,10.18 C3.057,10.277 2.865,10.18 2.801,10.26 C2.833,10.26 2.833,10.308 2.833,10.324 C2.849,10.324 2.898,10.308 2.898,10.356 C3.009,10.388 3.138,10.388 3.266,10.405 C3.361,10.452 3.409,10.34 3.489,10.308 C3.522,10.277 3.489,10.228 3.537,10.212 C3.506,10.148 3.522,10.02 3.426,10.004 C3.281,9.988 3.218,10.148 3.105,10.18 L3.105,10.18 Z M2.945,8.676 C2.913,8.708 2.881,8.708 2.898,8.771 L2.977,8.771 C2.977,8.74 3.041,8.755 3.009,8.708 C2.977,8.724 2.977,8.676 2.945,8.676 L2.945,8.676 Z M3.233,9.716 C3.201,9.652 3.121,9.652 3.025,9.652 C2.977,9.684 2.881,9.7 2.913,9.812 C2.929,9.876 3.009,9.828 3.025,9.892 C3.138,9.925 3.185,9.828 3.233,9.764 L3.233,9.716 L3.233,9.716 Z M3.281,11.172 C3.218,11.188 3.185,11.221 3.185,11.301 C3.218,11.381 3.329,11.349 3.394,11.349 C3.426,11.317 3.506,11.268 3.489,11.221 C3.474,11.14 3.346,11.172 3.281,11.172 L3.281,11.172 Z M3.714,10.949 L3.714,11.028 C3.745,11.093 3.809,11.044 3.842,11.093 C3.953,11.077 4.065,11.14 4.193,11.14 C4.193,11.093 4.258,11.109 4.226,11.061 C4.098,11.061 3.953,10.981 3.809,10.933 C3.761,10.885 3.777,10.981 3.714,10.949 L3.714,10.949 Z M4.13,9.844 C4.017,9.86 3.857,9.812 3.777,9.86 L3.777,9.988 C3.809,10.036 3.842,10.004 3.857,10.053 C3.953,10.068 4.033,10.084 4.13,10.1 C4.273,10.132 4.386,10.1 4.466,10.02 C4.482,9.94 4.401,9.94 4.37,9.892 C4.273,9.908 4.226,9.86 4.13,9.86 L4.13,9.844 L4.13,9.844 Z M4.498,9.123 C4.498,9.14 4.513,9.172 4.466,9.172 C4.418,9.332 4.546,9.348 4.61,9.412 C4.818,9.444 4.946,9.348 5.122,9.396 C5.17,9.396 5.234,9.444 5.298,9.492 C5.345,9.508 5.378,9.476 5.395,9.428 C5.378,9.348 5.267,9.348 5.234,9.284 L5.042,9.268 C4.93,9.204 4.754,9.156 4.626,9.092 C4.546,9.06 4.562,9.14 4.498,9.123 L4.498,9.123 Z M5.682,7.603 L5.682,7.715 C5.746,7.699 5.746,7.747 5.778,7.78 C5.858,7.78 5.923,7.78 5.986,7.715 C6.002,7.652 5.923,7.652 5.954,7.603 C5.923,7.587 5.891,7.603 5.891,7.571 C5.794,7.539 5.794,7.635 5.682,7.603 L5.682,7.603 Z M6.099,8.771 L6.131,8.804 C6.194,8.82 6.242,8.788 6.259,8.74 C6.227,8.66 6.131,8.724 6.099,8.771 L6.099,8.771 Z M6.61,7.667 C6.627,7.667 6.659,7.652 6.659,7.699 C6.755,7.683 6.883,7.715 6.947,7.667 C6.995,7.571 6.867,7.571 6.835,7.539 C6.738,7.539 6.562,7.507 6.61,7.667 L6.61,7.667 Z M7.346,6.627 L7.346,6.659 C7.363,6.707 7.443,6.691 7.491,6.707 C7.491,6.659 7.555,6.675 7.539,6.627 C7.507,6.627 7.474,6.627 7.474,6.595 C7.411,6.579 7.411,6.643 7.346,6.627 L7.346,6.627 Z M7.443,5.538 L7.507,5.538 L7.443,5.538 Z M8.739,3.33 C8.691,3.345 8.691,3.41 8.739,3.425 C8.787,3.441 8.819,3.41 8.836,3.378 C8.804,3.345 8.787,3.313 8.739,3.33 L8.739,3.33 Z M10.148,2.273 C10.116,2.369 10.196,2.369 10.228,2.401 L10.389,2.401 C10.452,2.385 10.437,2.337 10.437,2.273 C10.42,2.273 10.389,2.273 10.389,2.241 C10.309,2.257 10.196,2.225 10.148,2.273 L10.148,2.273 Z" id="Check"></path>
        </g>
    </g>
</svg>