<?xml version="1.0" encoding="UTF-8" standalone="no"?>
<svg width="164px" height="130px" viewBox="0 0 164 130" version="1.1" xmlns="http://www.w3.org/2000/svg" xmlns:xlink="http://www.w3.org/1999/xlink">
    <!-- Generator: Sketch 40.3 (33839) - http://www.bohemiancoding.com/sketch -->
    <title>BOX</title>
    <desc>Created with Sketch.</desc>
    <defs/>
    <g id="Images" stroke="none" stroke-width="1" fill="none" fill-rule="evenodd">
        <g id="BOX" fill="#554740">
            <g id="GET-BLADES-ILLY" transform="translate(0.000000, 10.000000)">
                <g id="Group-3" transform="translate(0.000000, 0.189245)">
                    <path d="M158.431525,61.8351585 L158.418019,61.9852717 L158.439885,62.1334604 C158.78525,64.5115358 157.774238,65.5193472 157.514411,65.7361774 L70.5751169,98.2016868 C69.1338463,98.7129698 68.3138463,98.8104792 67.848858,98.796366 L67.8713678,98.4473849 C67.0713051,98.4351962 66.3175482,98.2651962 65.5612188,97.7500642 L65.299462,97.5794226 L3.38849725,60.0633094 L3.13059922,60.0261019 C2.64310118,59.9561774 2.49260706,58.4120642 2.62959529,57.4093849 L2.64245804,30.2388943 C2.64245804,29.6448566 3.41422275,29.1188189 4.11138353,28.7916491 L3.95252863,29.0642906 C4.27859922,28.8262906 4.60338353,28.6986302 5.06772863,28.6274226 C5.09345412,28.6235736 5.11403451,28.6280642 5.13847373,28.6274226 L4.8998698,28.4907811 L6.59646588,28.037234 L67.9511169,63.9309698 L67.8398541,63.9707434 C68.8013443,64.4121019 69.6560737,65.1421396 70.5526071,65.7336113 L160.952623,33.6613472 L158.431525,61.8351585 Z M95.5616424,4.26610189 L155.18754,32.9800642 L70.3268659,63.0880264 L9.21660706,27.3373472 L95.5616424,4.26610189 Z M99.632058,3.1787434 L159.067587,31.6033849 L157.744654,32.0729698 L98.4178149,3.50270566 L99.632058,3.1787434 Z M163.775352,31.0061396 L100.315713,0.657611321 L99.8860973,0.452328302 L4.20013647,26.0190453 C2.66496784,26.4353849 0.0673364706,27.7921774 0.0673364706,30.2388943 L0.0673364706,57.1444415 C-0.165479216,58.9547811 0.10721098,61.9531962 2.47588549,62.5138755 L65.3142541,100.333423 C65.6769835,100.79146 66.424309,101.358555 67.9073835,101.358555 C68.8720894,101.358555 70.0599639,101.110932 71.4581443,100.615045 L158.573658,68.0828189 L158.789109,67.9788943 C158.904231,67.9096113 161.570035,66.2442528 161.009219,61.9185547 L163.775352,31.0061396 Z" id="Fill-1"/>
                </g>
                <path d="M11.3992863,33.0988717 C11.4976863,33.1938151 11.5973725,33.2874755 11.7034902,33.3740792 C11.9864706,33.5293245 12.2636627,33.694834 12.5324941,33.8725321 C12.5897333,33.8674 12.6508314,33.8738151 12.7151451,33.8949849 C12.9466745,33.971966 13.1698431,34.0656264 13.3968706,34.1528717 C13.3113333,34.102834 13.2270824,34.0508717 13.1415451,34.0014755 C12.5993804,33.6903434 12.0076941,33.3035132 11.4057176,33.087966 C11.4037882,33.0918151 11.4012157,33.0950226 11.3992863,33.0988717" id="Fill-4"/>
                <path d="M90.995818,41.5793698 C81.5301239,45.3411811 69.1207906,43.8625019 63.3338416,38.2832943 C57.5462494,32.7040868 60.5394102,25.1054075 70.0051043,21.3435962 C79.4707984,17.5817849 91.8801318,19.0604642 97.6670808,24.6396717 C103.45403,30.2182377 100.461512,37.8175585 90.995818,41.5793698 M100.055049,23.6908792 C93.4628925,17.3354453 79.3273788,15.651483 68.5451827,19.9361245 C57.7629867,24.220766 54.3537161,32.8772943 60.9458729,39.2320868 C67.5380298,45.5875208 81.6735435,47.271483 92.4557396,42.9868415 C103.237936,38.7015585 106.647206,30.0456717 100.055049,23.6908792" id="Fill-6"/>
                <path d="M95.6282071,31.7633132 L81.3537757,30.2512755 L81.9525365,28.890634 C81.9525365,28.890634 82.7506698,27.9116906 82.5139953,27.2490113 C82.5139953,27.2490113 81.8972267,27.2759547 82.2991875,26.7845585 C82.2991875,26.7845585 83.5719561,25.0653132 84.1141208,24.8138415 L85.2859169,25.0512 L85.4383404,25.0351623 L85.7566933,24.7035019 L86.1573678,24.6541057 L88.4906698,25.1602566 C88.4906698,25.1602566 89.1254463,25.1589736 89.1929757,24.5771245 C89.1929757,24.5771245 89.2823718,24.3218038 89.0321914,24.0728981 L79.050058,21.9713132 C79.050058,21.9713132 78.2493522,22.0694642 78.4898855,22.5736906 L78.9021365,23.1061434 L81.0019796,23.5648226 L81.1460424,23.8669736 L81.003909,23.9593509 L81.1415404,24.1364075 L81.8760031,24.2878038 C81.8760031,24.2878038 80.8547012,25.6452377 80.6919875,26.1359925 L79.5362698,28.3254642 L78.8236737,29.9844075 L76.4138384,29.7284453 L72.7170855,29.4679925 C71.9279561,29.3550868 69.5084737,29.3653509 69.5084737,29.3653509 L69.5907953,28.8887094 L69.3882071,28.7373132 L69.1939796,28.7790113 L68.8106698,28.5724453 L69.0093992,27.1989736 L68.3997051,26.7454264 C67.7597835,26.4009358 67.2819325,26.8102189 67.2819325,26.8102189 L66.2149678,33.3029358 C66.4767247,33.5479925 66.8889757,33.6031623 66.8889757,33.6031623 C67.7707169,33.8071623 68.0376188,33.4511245 68.0376188,33.4511245 L68.2652894,31.9268981 L68.5038933,31.7216151 L69.1245208,31.6812 L69.210058,31.6022943 L69.350262,30.8440302 C69.9451639,30.6432377 73.0000659,30.6425962 73.0000659,30.6425962 C73.8901678,30.6220679 74.4368345,30.8741811 74.4368345,30.8741811 C75.310858,31.2828226 76.238262,31.3238792 76.238262,31.3238792 L78.164458,31.5208226 L74.5275169,39.9861811 C74.5275169,39.9861811 73.890811,40.8573509 74.7873443,41.0709736 C74.7873443,41.0709736 76.0562541,41.3987849 76.8492424,40.2280302 L78.3336031,37.119917 L80.6829835,31.7780679 L89.8341835,32.7121057 L95.0172267,33.1695019 C97.066262,33.2105585 97.113211,32.359917 97.113211,32.359917 C97.1723796,31.7665208 95.6282071,31.7633132 95.6282071,31.7633132" id="Fill-8"/>
                <path d="M87.5335529,83.7662491 C83.4496314,84.8298717 80.0905255,82.0277585 80.0442196,77.5192302 C79.9985569,73.0107019 83.2843451,68.4771547 87.3676235,67.4135321 C91.4515451,66.3492679 94.8112941,69.1520226 94.8569569,73.6605509 C94.9026196,78.1690792 91.6174745,82.7026264 87.5335529,83.7662491 M87.3560471,66.2761358 C82.7048784,67.4879472 78.9624627,72.6520981 79.0145569,77.7873811 C79.066651,82.9233057 82.8933176,86.1154566 87.5451294,84.9036453 C92.1969412,83.691834 95.9393569,78.527683 95.8872627,73.3917585 C95.8351686,68.2564755 92.0078588,65.0643245 87.3560471,66.2761358" id="Fill-10"/>
                <path d="M90.6310949,71.771434 L90.9179341,72.0998868 L90.9700282,72.1120755 L91.1713302,71.941434 L91.3096047,71.9683774 L91.8704204,72.6445283 C91.8704204,72.6445283 92.0665773,72.7375472 92.2678792,72.3673962 C92.2678792,72.3673962 92.3752831,72.2127925 92.3752831,72.013283 L89.9564439,69.1617736 C89.9564439,69.1617736 89.6792518,69.1078868 89.5969302,69.4729057 L89.558342,69.8828302 L90.0619184,70.4935472 L90.0117537,70.7123019 L89.9397224,70.7520755 L89.9268596,70.8880755 L90.1056518,71.0959245 C90.1056518,71.0959245 89.3692596,71.8343019 89.1666714,72.1313208 L88.1299341,73.3938113 L87.3941851,74.3746792 L86.7317537,73.8512075 L85.6750792,73.134 C85.4673459,72.9434717 84.7193773,72.592566 84.7193773,72.592566 L84.8930243,72.2923396 L84.877589,72.1640377 L84.8049145,72.1621132 L84.7515341,71.9703019 L85.2396753,71.1004151 L85.1933694,70.7135849 C85.1033302,70.3928302 84.8287106,70.5904151 84.8287106,70.5904151 L82.4806165,74.6838868 C82.4851184,74.8833962 82.5950949,74.9802642 82.5950949,74.9802642 C82.8028282,75.244566 82.9957694,75.0508302 82.9957694,75.0508302 L83.5398635,74.086 L83.6774949,73.9872075 L83.8807263,74.0526415 L83.9315341,74.0128679 L84.2106557,73.5375094 C84.4563341,73.4938868 85.3966008,73.9448679 85.3966008,73.9448679 C85.6770086,74.0629057 85.7670478,74.3092453 85.7670478,74.3092453 C85.9091812,74.7056981 86.1818714,74.8699245 86.1818714,74.8699245 L86.7131027,75.2836981 L82.9603969,80.2887547 C82.9603969,80.2887547 82.4934792,80.7647547 82.703142,81.0373962 C82.703142,81.0373962 82.9912675,81.4396226 83.5996753,80.7904151 L85.0235812,78.9749434 L87.4083341,75.8238491 L89.9345773,77.7887925 L91.3874243,78.8543396 C92.0054792,79.1840755 92.2846008,78.6343019 92.2846008,78.6343019 C92.4878322,78.2538868 92.0131969,78.0235849 92.0131969,78.0235849 L88.0900596,74.9238113 L88.6978243,74.121283 C88.6978243,74.121283 89.2477067,73.5984528 89.3808361,73.1295094 C89.3808361,73.1295094 89.1827498,73.0557358 89.4592988,72.7933585 C89.4592988,72.7933585 90.3860596,71.8561132 90.6310949,71.771434" id="Fill-12"/>
                <path d="M148.406044,50.6807849 L98.7584204,68.0130868 C98.4233459,68.130483 98.2464831,68.4967849 98.3641773,68.8316528 C98.456789,69.0959547 98.7056831,69.2614642 98.9712988,69.2614642 C99.0420439,69.2614642 99.1140753,69.2505585 99.1841773,69.2261811 L148.831801,51.8932377 C149.166875,51.776483 149.343738,51.4101811 149.226687,51.0753132 C149.109636,50.7410868 148.743048,50.5640302 148.406044,50.6807849" id="Fill-14"/>
                <path d="M148.406044,55.6331094 L98.7584204,72.9654113 C98.4233459,73.0828075 98.2464831,73.4491094 98.3641773,73.7839774 C98.456789,74.0482792 98.7056831,74.2137887 98.9712988,74.2137887 C99.0420439,74.2137887 99.1140753,74.202883 99.1841773,74.1785057 L148.831801,56.8455623 C149.166875,56.7288075 149.343738,56.3625057 149.226687,56.0276377 C149.109636,55.6934113 148.743048,55.5163547 148.406044,55.6331094" id="Fill-16"/>
                <polygon id="Fill-18" points="160.95288 35.4722642 71.4365349 67.7081132 160.95288 37.3967925"/>
                <path d="M2.58136,31.0351358 L69.2927012,67.7083057 L3.95252863,29.2536642 C3.95252863,29.2536642 2.52154824,28.6827208 2.58136,31.0351358" id="Fill-20"/>
                <polyline id="Fill-22" points="67.4170557 98.9046528 70.0429851 68.2424264 68.730342 99.2626151"/>
            </g>
        </g>
    </g>
</svg>