<?xml version="1.0" encoding="utf-8"?>
<!-- Generator: Adobe Illustrator 18.0.0, SVG Export Plug-In . SVG Version: 6.00 Build 0)  -->
<!DOCTYPE svg PUBLIC "-//W3C//DTD SVG 1.1//EN" "http://www.w3.org/Graphics/SVG/1.1/DTD/svg11.dtd">
<svg version="1.1" id="chairmans-seal" xmlns="http://www.w3.org/2000/svg" xmlns:xlink="http://www.w3.org/1999/xlink" x="0px"
	 y="0px" viewBox="0 0 48 33" enable-background="new 0 0 48 33" width="48px" height="33px" xml:space="preserve">
<path fill="#686461" d="M24,33l-0.1-0.1L0,16.5L24,0l0.1,0.1L48,16.5L24,33z M0.7,16.5l23.3,16l23.2-16L24,0.5L0.7,16.5z"/>
<path fill="#686461" d="M24,31.6L2,16.5L24,1.4l22,15.1L24,31.6z M2.8,16.5L24,31.1l21.2-14.6L24,1.9L2.8,16.5z"/>
<g>
	<path fill="#686461" d="M9.7,15.4c0.2,0,0.4-0.1,0.7-0.1c0.3,0,0.6,0.1,0.8,0.2c0.2,0.1,0.2,0.3,0.2,0.5c0,0.3-0.2,0.5-0.5,0.6l0,0
		c0.3,0.1,0.6,0.3,0.6,0.7c0,0.3-0.1,0.4-0.2,0.6c-0.2,0.2-0.5,0.3-1,0.3c-0.3,0-0.4,0-0.6,0L9.7,15.4L9.7,15.4z M10,16.6h0.3
		c0.4,0,0.6-0.2,0.6-0.5c0-0.3-0.3-0.4-0.6-0.4c-0.2,0-0.3,0-0.3,0V16.6z M10,17.9c0.1,0,0.2,0,0.3,0c0.4,0,0.7-0.1,0.7-0.5
		c0-0.4-0.3-0.5-0.7-0.5H10L10,17.9L10,17.9z"/>
	<path fill="#686461" d="M12.4,17.7c0.2,0.1,0.4,0.2,0.6,0.2c0.4,0,0.6-0.2,0.6-0.5c0-0.3-0.2-0.4-0.5-0.5c-0.4-0.2-0.7-0.4-0.7-0.8
		c0-0.4,0.3-0.8,0.9-0.8c0.3,0,0.5,0.1,0.6,0.1l-0.1,0.3c-0.1-0.1-0.3-0.1-0.5-0.1c-0.4,0-0.5,0.2-0.5,0.4c0,0.3,0.2,0.4,0.5,0.5
		c0.5,0.2,0.7,0.4,0.7,0.8c0,0.4-0.3,0.8-1,0.8c-0.3,0-0.6-0.1-0.7-0.2L12.4,17.7z"/>
</g>
<g>
	<path fill="#686461" d="M32.8,15.4h1.5v0.3h-1.1v0.9h1.1v0.3h-1.1v1.3h-0.3V15.4z"/>
	<path fill="#686461" d="M34.9,15.4c0.2,0,0.4-0.1,0.7-0.1c0.4,0,0.6,0.1,0.8,0.2c0.1,0.1,0.2,0.3,0.2,0.5c0,0.4-0.2,0.6-0.5,0.7
		l0,0c0.2,0.1,0.3,0.3,0.4,0.6c0.1,0.4,0.2,0.7,0.2,0.8h-0.4c0-0.1-0.1-0.3-0.2-0.7c-0.1-0.4-0.2-0.5-0.6-0.5h-0.3v1.2h-0.3
		L34.9,15.4C34.8,15.4,34.9,15.4,34.9,15.4z M35.2,16.7h0.4c0.4,0,0.6-0.2,0.6-0.5c0-0.3-0.3-0.5-0.6-0.5c-0.2,0-0.3,0-0.3,0
		L35.2,16.7L35.2,16.7z"/>
	<path fill="#686461" d="M38.5,16.8h-1.1v1h1.2v0.3h-1.6v-2.8h1.5v0.3h-1.1v0.9h1.1C38.5,16.5,38.5,16.8,38.5,16.8z"/>
	<path fill="#686461" d="M40.6,16.8h-1.1v1h1.2v0.3h-1.6v-2.8h1.5v0.3h-1.1v0.9h1.1L40.6,16.8L40.6,16.8z"/>
</g>
<g>
	<path fill="#686461" d="M15.4,10.7c-0.1,0-0.2-0.1-0.3-0.1c-0.1,0-0.2,0-0.2,0.1c-0.1,0.1-0.2,0.1-0.3,0.2
		c-0.1,0.1-0.1,0.2-0.2,0.3c0,0.1,0,0.2,0,0.3c0,0.1,0,0.2,0.1,0.3c0.1,0.1,0.1,0.2,0.2,0.3c0.1,0.1,0.2,0.1,0.3,0.2
		c0.1,0,0.2,0.1,0.3,0.1c0.1,0,0.2,0,0.3-0.1c0.1,0,0.2-0.1,0.2-0.2c0.1-0.1,0.1-0.2,0.1-0.3l0.4,0.1c0,0.2-0.1,0.3-0.2,0.4
		c-0.1,0.1-0.2,0.2-0.4,0.3c-0.2,0.1-0.3,0.1-0.5,0.1c-0.2,0-0.3,0-0.4-0.1c-0.2-0.1-0.3-0.1-0.4-0.2c-0.1-0.1-0.2-0.3-0.3-0.4
		c-0.1-0.2-0.1-0.3-0.1-0.5c0-0.2,0-0.3,0.1-0.4c0.1-0.1,0.1-0.3,0.3-0.4s0.3-0.2,0.4-0.3c0.1-0.1,0.3-0.1,0.4-0.1
		c0.2,0,0.3,0,0.4,0.1L15.4,10.7z"/>
	<path fill="#686461" d="M16.1,9.9l0.4-0.1l0.3,0.9l1-0.3l-0.3-0.9l0.4-0.1l0.7,2.2l-0.4,0.1l-0.3-0.9l-1,0.3l0.3,0.9L16.8,12
		L16.1,9.9z"/>
	<path fill="#686461" d="M19.4,8.9l0.3-0.1l1.5,2.1L20.8,11l-0.3-0.5l-1,0.2l-0.1,0.6L19,11.4L19.4,8.9z M20.2,10.2l-0.5-0.9l-0.2,1
		L20.2,10.2z"/>
	<path fill="#686461" d="M21.3,8.6l0.4-0.1l0.3,2.3l-0.4,0.1L21.3,8.6z"/>
	<path fill="#686461" d="M22.5,8.4l0.8,0c0.1,0,0.2,0,0.3,0c0.1,0,0.2,0.1,0.3,0.1C24,8.6,24,8.6,24.1,8.7c0,0.1,0.1,0.2,0.1,0.3
		c0,0.2,0,0.3-0.1,0.4c-0.1,0.1-0.2,0.2-0.4,0.2l0.6,1h-0.5l-0.6-0.9h-0.3l0,1h-0.4L22.5,8.4z M23.3,9.4c0.1,0,0.1,0,0.2,0
		c0.1,0,0.1,0,0.2,0c0.1,0,0.1-0.1,0.1-0.1c0,0,0-0.1,0-0.2c0-0.1,0-0.1,0-0.2c0,0-0.1-0.1-0.1-0.1c0,0-0.1,0-0.2,0
		c-0.1,0-0.1,0-0.2,0h-0.3l0,0.6L23.3,9.4z"/>
	<path fill="#686461" d="M24.9,8.4l0.6,0.1l0.5,1.6l0.7-1.5l0.6,0l-0.2,2.3l-0.4,0l0.2-1.9l0,0l-0.8,1.9l-0.3,0l-0.5-2l0,0l-0.2,1.9
		l-0.4,0L24.9,8.4z"/>
	<path fill="#686461" d="M28.9,8.8l0.3,0.1l0.6,2.4l-0.5-0.1l-0.1-0.6l-1-0.2L28,11l-0.4-0.1L28.9,8.8z M29.2,10.3l-0.2-1l-0.5,0.9
		L29.2,10.3z"/>
	<path fill="#686461" d="M30.8,9.1l0.5,0.2l0.6,2l0,0l0.5-1.6l0.4,0.1l-0.7,2.2l-0.5-0.2l-0.6-2l0,0l-0.4,1.7l-0.4-0.1L30.8,9.1z"/>
	<path fill="#686461" d="M33.8,10.2l0.3,0.2L33.5,11l-0.3-0.2L33.8,10.2z"/>
	<path fill="#686461" d="M35.6,11.9c0-0.1,0-0.2,0-0.2s-0.1-0.1-0.2-0.2c0,0-0.1-0.1-0.1-0.1c0,0-0.1,0-0.1,0c0,0-0.1,0-0.1,0
		c0,0-0.1,0-0.1,0.1c-0.1,0.1-0.1,0.1-0.1,0.2c0,0.1,0,0.1,0.1,0.2c0,0.1,0.1,0.2,0.2,0.2c0.1,0.1,0.1,0.2,0.1,0.3
		c0,0.1,0,0.2,0,0.3c0,0.1-0.1,0.2-0.2,0.3c-0.1,0.1-0.2,0.2-0.3,0.2c-0.1,0-0.2,0.1-0.3,0.1s-0.2,0-0.3-0.1s-0.2-0.1-0.3-0.2
		c-0.1-0.1-0.2-0.2-0.3-0.3c-0.1-0.1-0.1-0.3-0.1-0.4l0.4,0c0,0.1,0,0.2,0,0.3c0,0.1,0.1,0.2,0.2,0.2c0,0,0.1,0.1,0.1,0.1
		c0,0,0.1,0,0.1,0c0,0,0.1,0,0.1,0c0,0,0.1,0,0.1-0.1c0.1-0.1,0.1-0.1,0.1-0.2c0-0.1,0-0.1-0.1-0.2c-0.1-0.1-0.1-0.2-0.2-0.2
		c-0.1-0.1-0.1-0.2-0.1-0.3c0-0.1,0-0.2,0-0.3s0.1-0.2,0.2-0.3c0.1-0.1,0.2-0.2,0.3-0.2c0.1,0,0.2-0.1,0.3,0c0.1,0,0.2,0,0.3,0.1
		c0.1,0,0.2,0.1,0.3,0.2c0.1,0.1,0.2,0.2,0.2,0.3s0.1,0.2,0.1,0.3L35.6,11.9z"/>
</g>
<g>
	<path fill="#686461" d="M21.5,24.6c0-0.1-0.1-0.1-0.2-0.2c-0.1,0-0.1-0.1-0.2-0.1c0,0-0.1,0-0.1,0s-0.1,0-0.1,0c0,0-0.1,0-0.1,0.1
		c0,0-0.1,0.1-0.1,0.1c0,0.1,0,0.1,0,0.2c0,0.1,0.1,0.1,0.2,0.2c0.1,0,0.2,0.1,0.3,0.1c0.1,0,0.2,0.1,0.2,0.2
		c0.1,0.1,0.1,0.1,0.2,0.2c0,0.1,0,0.2,0,0.3c0,0.1-0.1,0.2-0.1,0.3c-0.1,0.1-0.1,0.2-0.2,0.2c-0.1,0-0.2,0.1-0.3,0.1
		c-0.1,0-0.2,0-0.3,0c-0.1,0-0.3-0.1-0.4-0.2C20.1,26.1,20,26,20,25.9l0.3-0.2c0,0.1,0.1,0.2,0.2,0.2c0.1,0.1,0.2,0.1,0.3,0.1
		c0,0,0.1,0,0.2,0s0.1,0,0.1,0c0,0,0.1,0,0.1-0.1c0-0.1,0.1-0.1,0.1-0.1c0-0.1,0-0.2,0-0.2c0-0.1-0.1-0.1-0.2-0.2
		c-0.1,0-0.2-0.1-0.3-0.1c-0.1,0-0.2-0.1-0.2-0.2c-0.1-0.1-0.1-0.1-0.2-0.2c0-0.1,0-0.2,0-0.3c0-0.1,0.1-0.2,0.1-0.3
		c0.1-0.1,0.1-0.1,0.2-0.2S20.9,24,21,24c0.1,0,0.2,0,0.3,0c0.1,0,0.2,0.1,0.3,0.1c0.1,0.1,0.2,0.1,0.3,0.2L21.5,24.6z"/>
	<path fill="#686461" d="M22.4,24.2l1.5,0.1l0,0.4l-1.1-0.1l0,0.6l1.1,0.1v0.3l-1.1-0.1l0,0.6l1.2,0.1l0,0.4l-1.6-0.1L22.4,24.2z"/>
	<path fill="#686461" d="M25.1,24.3h0.3l1.1,2.2h-0.4L25.9,26l-1,0l-0.2,0.5l-0.4,0L25.1,24.3z M25.7,25.7l-0.4-0.9L25,25.7
		L25.7,25.7z"/>
	<path fill="#686461" d="M26.8,24.2l0.4-0.1l0.3,1.9l1-0.2l0.1,0.4l-1.4,0.2L26.8,24.2z"/>
</g>
<path fill="#686461" d="M21.4,19.2c-1.3,0-2.4-1-2.4-2.3s1.1-2.3,2.4-2.3s2.4,1,2.4,2.3C23.7,18.2,22.7,19.2,21.4,19.2z M21.4,14.8
	c-1.2,0-2.1,0.9-2.1,2.1c0,1.2,0.9,2.1,2.1,2.1c1.2,0,2.1-0.9,2.1-2.1C23.5,15.7,22.5,14.8,21.4,14.8z"/>
<path fill="#686461" d="M24.3,19.2c-1.3,0-2.4-1-2.4-2.3c0-1.3,1-2.3,2.4-2.3c1.3,0,2.4,1,2.4,2.3C26.6,18.2,25.6,19.2,24.3,19.2z
	 M24.3,14.8c-1.2,0-2.1,0.9-2.1,2.1c0,1.2,0.9,2.1,2.1,2.1c1.2,0,2.1-0.9,2.1-2.1C26.4,15.7,25.4,14.8,24.3,14.8z"/>
<path fill="#686461" d="M27.1,19.2c-1.3,0-2.4-1-2.4-2.3s1.1-2.3,2.4-2.3c1.3,0,2.4,1,2.4,2.3C29.5,18.2,28.4,19.2,27.1,19.2z
	 M27.1,14.8c-1.2,0-2.1,0.9-2.1,2.1C25,18,26,19,27.1,19c1.2,0,2.1-0.9,2.1-2.1C29.2,15.7,28.3,14.8,27.1,14.8z"/>
</svg>
