<?xml version="1.0" encoding="utf-8"?>
<!-- Generator: Adobe Illustrator 18.0.0, SVG Export Plug-In . SVG Version: 6.00 Build 0)  -->
<!DOCTYPE svg PUBLIC "-//W3C//DTD SVG 1.1//EN" "http://www.w3.org/Graphics/SVG/1.1/DTD/svg11.dtd">
<svg version="1.1" id="bbb" xmlns="http://www.w3.org/2000/svg" xmlns:xlink="http://www.w3.org/1999/xlink" x="0px" y="0px"
	 viewBox="0 0 33 35" enable-background="new 0 0 33 35" width="33px" height="35px" xml:space="preserve">
<g>
	<path fill="#686461" d="M22,14.4v2l0,0H24V22H22l0,0v2l0,0h7.3c1.5-0.1,3.6-0.9,3.7-2.9c0-1.2-0.7-1.9-1.4-2.3
		c0.5-0.5,0.9-1.3,0.9-2c-0.3-2-1.7-2.4-3.3-2.5L22,14.4L22,14.4z M26.3,16.4h2.6c0.4,0,1,0.1,1,0.8c0,0.8-0.6,0.8-1,0.8h-2.6V16.4z
		 M26.3,20.2h2.6c0.5,0,1.3,0.1,1.3,1c0,0.9-0.8,1-1.3,1h-2.6V20.2z"/>
	<polygon fill="#686461" points="0,25.1 0,26.5 14.1,26.5 15.2,35 17.7,35 18.8,26.5 32.9,26.5 32.9,25.1 	"/>
	<path fill="#686461" d="M12.9,12h-1.3v1.5h10.1V12h-1.5c0.8-0.7,1.5-1.6,1.8-2.5c0.1-0.4,0.2-0.7,0.2-1.1c0-0.7-0.1-1.2-0.2-1.7
		c-0.9-2.7-3.9-3-4.8-4.9c0-0.1-0.1-0.2-0.1-0.3c0-0.3-0.3-0.3-0.3,0c0,0.6,0.2,1,0.4,1.4c1.1,1.7,3.8,2.2,3.9,5.3
		c0,1.3-0.8,2.5-1.9,3.6h-5.2c-1.2-0.8-2.1-1.9-2.1-3.2c0.1-2.8,2.7-3.3,2.9-5.3c0-0.1,0-0.3,0-0.4s0-0.1,0-0.1c0-0.1-0.1,0-0.2,0.1
		c-0.3,2.3-2.8,2.6-3.5,4.7C11.1,7.9,11,8.3,11,8.7s0.1,0.8,0.2,1.1C11.6,11,12.3,11.5,12.9,12z"/>
	<path fill="#686461" d="M7.5,24.1c1.5-0.1,3.5-0.9,3.7-2.7c0-0.1,0-0.1,0-0.2s0-0.2,0-0.2c-0.1-1.1-0.7-1.6-1.4-2.1
		c0.5-0.5,0.9-1.3,0.9-2c-0.3-2-1.7-2.4-3.3-2.5H0.2v2h1.9v5.6H0.2v2L7.5,24.1z M4.4,16.4H7c0.4,0,1,0.1,1,0.8C8,18,7.4,18,7,18H4.4
		V16.4z M4.4,22.1v-2H7c0.5,0,1.3,0.1,1.3,1c0,0.9-0.8,1-1.3,1H4.4z"/>
	<path fill="#686461" d="M11.2,22.1L11.2,22.1v2l0,0h7.3c1.5-0.1,3.5-0.9,3.7-2.7c0-0.1,0-0.1,0-0.2c0-0.1,0-0.2,0-0.2
		C22,20,21.4,19.5,20.8,19c0.5-0.5,0.9-1.3,0.9-2c-0.3-2-1.7-2.4-3.3-2.5h-7.3l0,0v2l0,0H13v5.6L11.2,22.1z M15.3,16.4H18
		c0.4,0,1,0.1,1,0.8c0,0.8-0.6,0.8-1,0.8h-2.6V16.4z M15.3,20.2H18c0.5,0,1.3,0.1,1.3,1c0,0.9-0.8,1-1.3,1h-2.6V20.2z"/>
	<path fill="#686461" d="M15.8,5c0-0.2-0.1-0.3-0.2,0c0,0.8-0.4,1.3-0.9,1.8c-0.5,0.7-1,1.3-1,2.5c0,0.7,0.4,1.3,1,1.7
		c0.2,0.2,0.5,0.3,0.8,0.5c0.2,0.1,0.3,0,0.2-0.1c-0.4-0.3-0.7-0.6-1-1c-0.2-0.4-0.4-0.8-0.4-1.2c0-0.8,0.2-1.4,0.4-1.9
		C15.2,6.5,15.7,5.9,15.8,5z"/>
	<path fill="#686461" d="M12.4,8.7c0,0.9,0.5,1.9,1.6,2.5c0.3,0.2,0.5,0,0.3-0.1C13.5,10.4,13,9.5,13,8.7c0.1-1.6,1-2.4,1.7-3.7
		c0.3-0.6,0.6-1.3,0.8-2.2c0.1-0.2,0.2-0.2,0.2,0c0.1,0.9,0.8,1.7,1.6,2.4c1,1,2.1,2.1,2.1,3.4c0,0.9-0.2,1.9-0.8,2.6
		c-0.2,0.2,0.1,0.3,0.2,0.2c1.1-0.8,1.6-1.9,1.6-3c-0.1-2.2-1.8-3.2-3-4.3c-0.5-0.5-0.9-0.9-1.1-1.5C16.1,1.9,16,1,16.5,0.3
		c0.1-0.2,0-0.4-0.2-0.2c-0.6,0.8-0.9,1.7-0.9,2.6c-0.1,0.7-0.3,1.3-0.5,1.8C14,6.1,12.4,6.9,12.4,8.7z"/>
</g>
</svg>
