<svg xmlns="http://www.w3.org/2000/svg" width="79" height="76" viewBox="0 0 79 76">
  <metadata><?xpacket begin="﻿" id="W5M0MpCehiHzreSzNTczkc9d"?>
<x:xmpmeta xmlns:x="adobe:ns:meta/" x:xmptk="Adobe XMP Core 5.6-c138 79.159824, 2016/09/14-01:09:01        ">
   <rdf:RDF xmlns:rdf="http://www.w3.org/1999/02/22-rdf-syntax-ns#">
      <rdf:Description rdf:about=""/>
   </rdf:RDF>
</x:xmpmeta>
                                                                                                    
                                                                                                    
                                                                                                    
                                                                                                    
                                                                                                    
                                                                                                    
                                                                                                    
                                                                                                    
                                                                                                    
                                                                                                    
                                                                                                    
                                                                                                    
                                                                                                    
                                                                                                    
                                                                                                    
                                                                                                    
                                                                                                    
                                                                                                    
                                                                                                    
                                                                                                    
                           
<?xpacket end="w"?></metadata>
<defs>
    <style>
      .cls-1 {
        fill: #00a6fb;
        fill-rule: evenodd;
      }
    </style>
  </defs>
  <path class="cls-1" d="M77.466,51.63a4.291,4.291,0,0,0-3.506-.947L48.717,55.077V46.06c1.946-.118,5.529-0.681,8-3.152,3.463-3.462,3.192-9.148,3.177-9.388a1.313,1.313,0,0,0-1.242-1.242c-0.238-.021-5.924-0.285-9.382,3.177-0.2.2-.379,0.4-0.553,0.614V31.578c1.946-.119,5.529-0.681,8-3.152,3.463-3.462,3.192-9.148,3.177-9.388a1.313,1.313,0,0,0-1.242-1.243c-0.238-.018-5.924-0.284-9.382,3.179-0.2.2-.379,0.4-0.553,0.614V17.675l7.389-7.241a6.043,6.043,0,0,0,0-8.659,0,0,0,0,0,0,0,6.3,6.3,0,0,0-8.7-.054,6.294,6.294,0,0,0-8.706.055,6.043,6.043,0,0,0,0,8.661l7.388,7.238v3.913c-0.174-.211-0.355-0.416-0.553-0.614-3.459-3.465-9.144-3.2-9.383-3.179a1.313,1.313,0,0,0-1.242,1.242c-0.015.24-.286,5.926,3.177,9.388,2.471,2.474,6.054,3.035,8,3.153v4.491c-0.174-.211-0.355-0.418-0.553-0.614-3.46-3.462-9.142-3.2-9.383-3.178a1.313,1.313,0,0,0-1.242,1.242c-0.015.24-.286,5.926,3.177,9.388,2.471,2.474,6.054,3.035,8,3.152v7.4l-5.652-5.656a1.315,1.315,0,0,0-.931-0.385H26.333A1.316,1.316,0,0,0,25.017,46.1H0v2.635H18.433V67.182H0v2.635H25.017A1.316,1.316,0,0,0,26.333,68.5h3.639l14.077,7.043a4.288,4.288,0,0,0,4.092-.13L76.866,58.646A4.308,4.308,0,0,0,77.466,51.63ZM51.131,37.317c1.775-1.776,4.508-2.253,6.1-2.375a9.86,9.86,0,0,1-2.379,6.1c-1.775,1.776-4.508,2.253-6.1,2.375A9.865,9.865,0,0,1,51.131,37.317Zm0-14.481c1.775-1.777,4.508-2.254,6.1-2.377a9.86,9.86,0,0,1-2.379,6.1c-1.774,1.774-4.5,2.252-6.1,2.375C48.881,27.341,49.358,24.61,51.131,22.836ZM39.945,26.561c-1.776-1.776-2.253-4.511-2.375-6.106a9.847,9.847,0,0,1,6.1,2.381c1.774,1.774,2.25,4.506,2.374,6.1C44.448,28.813,41.719,28.336,39.945,26.561Zm0,14.482c-1.776-1.776-2.253-4.512-2.375-6.106a9.845,9.845,0,0,1,6.1,2.38c1.774,1.776,2.25,4.507,2.374,6.1C44.448,43.295,41.719,42.818,39.945,41.043ZM23.7,67.182H21.067V48.739H23.7V67.182ZM40.537,8.553a3.407,3.407,0,0,1,0-4.9,3.647,3.647,0,0,1,5.078,0L46.48,4.506a1.313,1.313,0,0,0,1.841,0l0.865-.848a3.649,3.649,0,0,1,5.076,0,3.407,3.407,0,0,1,0,4.9L47.4,15.277Zm35,47.816L46.815,73.136a1.662,1.662,0,0,1-1.588.05L30.873,66a1.314,1.314,0,0,0-.59-0.14h-3.95V50.056H38.955l10.374,10.38a2.408,2.408,0,1,1-3.4,3.407l-6.81-6.814-1.862,1.863,6.81,6.814a5.042,5.042,0,0,0,7.129-7.132l-1.066-1.067L74.409,53.28a1.649,1.649,0,0,1,1.362.367A1.67,1.67,0,0,1,75.538,56.369ZM27.65,3.946H25.017A3.956,3.956,0,0,1,21.067,7.9v2.635a3.956,3.956,0,0,1,3.95,3.952H27.65a3.956,3.956,0,0,1,3.95-3.952V7.9A3.956,3.956,0,0,1,27.65,3.946Zm-1.317,6.628a6.571,6.571,0,0,0-1.358-1.358,6.575,6.575,0,0,0,1.358-1.358,6.57,6.57,0,0,0,1.357,1.358A6.566,6.566,0,0,0,26.333,10.574ZM19.75,15.8H17.117a3.956,3.956,0,0,1-3.95,3.952V22.39a3.956,3.956,0,0,1,3.95,3.952H19.75A3.956,3.956,0,0,1,23.7,22.39V19.755A3.956,3.956,0,0,1,19.75,15.8Zm-1.317,6.628a6.576,6.576,0,0,0-1.357-1.358,6.567,6.567,0,0,0,1.357-1.358,6.569,6.569,0,0,0,1.357,1.358A6.578,6.578,0,0,0,18.433,22.431ZM69.783,9.216H67.15a3.956,3.956,0,0,1-3.95,3.952V15.8a3.956,3.956,0,0,1,3.95,3.952h2.633a3.956,3.956,0,0,1,3.95-3.952V13.168A3.956,3.956,0,0,1,69.783,9.216Zm-1.317,6.628a6.568,6.568,0,0,0-1.358-1.358,6.577,6.577,0,0,0,1.358-1.358,6.571,6.571,0,0,0,1.357,1.358A6.562,6.562,0,0,0,68.467,15.844ZM23.7,40.834h2.633v2.635H23.7V40.834Zm-5.267,0h2.633v2.635H18.433V40.834Zm-5.267,0H15.8v2.635H13.167V40.834Z"/>
</svg>
