<svg xmlns="http://www.w3.org/2000/svg" width="75" height="75" viewBox="0 0 75 75">
  <metadata><?xpacket begin="﻿" id="W5M0MpCehiHzreSzNTczkc9d"?>
<x:xmpmeta xmlns:x="adobe:ns:meta/" x:xmptk="Adobe XMP Core 5.6-c138 79.159824, 2016/09/14-01:09:01        ">
   <rdf:RDF xmlns:rdf="http://www.w3.org/1999/02/22-rdf-syntax-ns#">
      <rdf:Description rdf:about=""/>
   </rdf:RDF>
</x:xmpmeta>
                                                                                                    
                                                                                                    
                                                                                                    
                                                                                                    
                                                                                                    
                                                                                                    
                                                                                                    
                                                                                                    
                                                                                                    
                                                                                                    
                                                                                                    
                                                                                                    
                                                                                                    
                                                                                                    
                                                                                                    
                                                                                                    
                                                                                                    
                                                                                                    
                                                                                                    
                                                                                                    
                           
<?xpacket end="w"?></metadata>
<defs>
    <style>
      .cls-1 {
        fill: #00a6fb;
        fill-rule: evenodd;
      }
    </style>
  </defs>
  <path class="cls-1" d="M73.75,33.75H71.033A33.96,33.96,0,0,0,41.25,3.966V1.25A1.25,1.25,0,0,0,40,0H35a1.25,1.25,0,0,0-1.25,1.25V3.966A33.96,33.96,0,0,0,3.967,33.75H1.25A1.25,1.25,0,0,0,0,35v5a1.25,1.25,0,0,0,1.25,1.25H3.967A33.96,33.96,0,0,0,33.75,71.033V73.75A1.25,1.25,0,0,0,35,75h5a1.25,1.25,0,0,0,1.25-1.25V71.033A33.96,33.96,0,0,0,71.033,41.25H73.75A1.25,1.25,0,0,0,75,40V35A1.25,1.25,0,0,0,73.75,33.75ZM41.25,6.516A31.405,31.405,0,0,1,68.484,33.75h-2.51A28.657,28.657,0,0,0,41.25,9.027V6.516Zm0,5.005A26.193,26.193,0,0,1,63.478,33.75H55.871A18.8,18.8,0,0,0,41.25,19.127V11.521ZM55.873,41.25h7.606A26.2,26.2,0,0,1,41.25,63.479V55.872A18.8,18.8,0,0,0,55.873,41.25Zm-2.186-5H46.15a8.756,8.756,0,0,0-7.4-7.4V21.314A16.253,16.253,0,0,1,53.686,36.25Zm-14.936,0V31.376a6.269,6.269,0,0,1,4.874,4.874H38.75Zm4.874,2.5a6.269,6.269,0,0,1-4.874,4.874V38.75h4.874ZM36.25,10.119V2.5h2.5V18.75h-2.5V10.119Zm0,11.195V28.85a8.756,8.756,0,0,0-7.4,7.4H21.314A16.253,16.253,0,0,1,36.25,21.314ZM31.376,36.25a6.269,6.269,0,0,1,4.874-4.874V36.25H31.376Zm4.874,2.5v4.874a6.269,6.269,0,0,1-4.874-4.874H36.25Zm-17.122-5H11.521A26.2,26.2,0,0,1,33.75,11.521v7.606A18.8,18.8,0,0,0,19.128,33.75ZM33.75,6.516v2.51A28.657,28.657,0,0,0,9.027,33.75H6.516A31.405,31.405,0,0,1,33.75,6.516ZM2.5,38.75v-2.5H18.75v2.5H2.5ZM33.75,68.482A31.4,31.4,0,0,1,6.516,41.25h2.51A28.657,28.657,0,0,0,33.75,65.972v2.51Zm0-5A26.193,26.193,0,0,1,11.522,41.25h7.606A18.8,18.8,0,0,0,33.75,55.872v7.606ZM21.314,38.75H28.85a8.756,8.756,0,0,0,7.4,7.4v7.536A16.253,16.253,0,0,1,21.314,38.75ZM38.75,64.881V72.5h-2.5V56.25h2.5v8.631Zm0-11.2V46.15a8.756,8.756,0,0,0,7.4-7.4h7.536A16.253,16.253,0,0,1,38.75,53.686Zm2.5,14.8v-2.51A28.657,28.657,0,0,0,65.973,41.25h2.51A31.4,31.4,0,0,1,41.25,68.483ZM72.5,38.75H56.25v-2.5H72.5v2.5Z"/>
</svg>
