<svg xmlns="http://www.w3.org/2000/svg" width="76" height="76" viewBox="0 0 76 76">
  <metadata><?xpacket begin="﻿" id="W5M0MpCehiHzreSzNTczkc9d"?>
<x:xmpmeta xmlns:x="adobe:ns:meta/" x:xmptk="Adobe XMP Core 5.6-c138 79.159824, 2016/09/14-01:09:01        ">
   <rdf:RDF xmlns:rdf="http://www.w3.org/1999/02/22-rdf-syntax-ns#">
      <rdf:Description rdf:about=""/>
   </rdf:RDF>
</x:xmpmeta>
                                                                                                    
                                                                                                    
                                                                                                    
                                                                                                    
                                                                                                    
                                                                                                    
                                                                                                    
                                                                                                    
                                                                                                    
                                                                                                    
                                                                                                    
                                                                                                    
                                                                                                    
                                                                                                    
                                                                                                    
                                                                                                    
                                                                                                    
                                                                                                    
                                                                                                    
                                                                                                    
                           
<?xpacket end="w"?></metadata>
<defs>
    <style>
      .cls-1 {
        fill: #00a6fb;
        fill-rule: evenodd;
      }
    </style>
  </defs>
  <path class="cls-1" d="M59.533,60.8v4.542l-4.773-4.773a27.374,27.374,0,0,0,3.506-13.2v-0.5H60.8V44.333H58.267v-11.4A1.266,1.266,0,0,0,57,31.667H48.133v-7.6A1.266,1.266,0,0,0,46.867,22.8h-3.8V19a19,19,0,0,0-38,0v3.8h-3.8A1.266,1.266,0,0,0,0,24.067v38A6.341,6.341,0,0,0,6.333,68.4H27.189A43.556,43.556,0,0,0,37.4,75.85a1.264,1.264,0,0,0,1.192,0A40.226,40.226,0,0,0,53.414,62.8l4.328,4.329H53.2v2.533h7.6A1.266,1.266,0,0,0,62.067,68.4V60.8H59.533ZM7.6,19a16.467,16.467,0,0,1,32.933,0v3.8h-3.8V19A12.667,12.667,0,0,0,11.4,19v3.8H7.6V19Zm26.6,0v3.8H13.933V19A10.133,10.133,0,0,1,34.2,19ZM2.533,34.2h7.6V38h-7.6V34.2Zm0,6.333h7.6v3.8h-7.6v-3.8Zm0,6.333h7.6v3.8h-7.6v-3.8Zm0,6.333h7.6V57h-7.6V53.2Zm3.8,12.667a3.8,3.8,0,0,1-3.8-3.8V59.533H11.4a1.266,1.266,0,0,0,1.267-1.267V32.933A1.266,1.266,0,0,0,11.4,31.667H2.533V25.333H45.6v6.333H19a1.266,1.266,0,0,0-1.267,1.267V47.371a28.834,28.834,0,0,0,7.139,18.5H6.333ZM38,73.292C26.882,67.151,20.267,57.5,20.267,47.371V34.2H55.733V44.333H53.2V38a1.266,1.266,0,0,0-1.267-1.267H24.067A1.266,1.266,0,0,0,22.8,38v6.929A27.989,27.989,0,0,0,37.393,69.512a1.269,1.269,0,0,0,1.213,0A27.968,27.968,0,0,0,49.476,58.867l2.105,2.105A37.177,37.177,0,0,1,38,73.292Zm0-28.958a1.266,1.266,0,0,0-.9,2.162L47.612,57A25.437,25.437,0,0,1,38,66.947,25.453,25.453,0,0,1,25.333,44.93V39.267H50.667v5.067H38Zm12.587,2.533a25.435,25.435,0,0,1-1.819,7.709l-7.71-7.709h9.529ZM52.893,58.7l-2.206-2.206a27.942,27.942,0,0,0,2.446-9.629h2.6v0.506A24.686,24.686,0,0,1,52.893,58.7Zm10.44-14.368h2.533v2.533H63.333V44.333Zm5.067,0h2.533v2.533H68.4V44.333Zm5.067,0H76v2.533H73.467V44.333ZM68.4,10.133h2.533v2.533H68.4V10.133Zm5.067,0H76v2.533H73.467V10.133Zm0,12.667H58.791l2.9-2.9L59.9,18.1l-5.067,5.067a1.266,1.266,0,0,0,0,1.791L59.9,30.029,61.7,28.238l-2.9-2.9H73.467V22.8ZM76,34.2H65.124l2.9-2.9L66.238,29.5l-5.067,5.067a1.265,1.265,0,0,0,0,1.791l5.067,5.067,1.791-1.791-2.9-2.9H76V34.2ZM65.867,10.133H51.191l2.9-2.9L52.3,5.438,47.238,10.5a1.265,1.265,0,0,0,0,1.791L52.3,17.362,54.1,15.571l-2.9-2.9H65.867V10.133Z"/>
</svg>
