<svg xmlns="http://www.w3.org/2000/svg" width="76" height="76" viewBox="0 0 76 76">
  <metadata><?xpacket begin="﻿" id="W5M0MpCehiHzreSzNTczkc9d"?>
<x:xmpmeta xmlns:x="adobe:ns:meta/" x:xmptk="Adobe XMP Core 5.6-c138 79.159824, 2016/09/14-01:09:01        ">
   <rdf:RDF xmlns:rdf="http://www.w3.org/1999/02/22-rdf-syntax-ns#">
      <rdf:Description rdf:about=""/>
   </rdf:RDF>
</x:xmpmeta>
                                                                                                    
                                                                                                    
                                                                                                    
                                                                                                    
                                                                                                    
                                                                                                    
                                                                                                    
                                                                                                    
                                                                                                    
                                                                                                    
                                                                                                    
                                                                                                    
                                                                                                    
                                                                                                    
                                                                                                    
                                                                                                    
                                                                                                    
                                                                                                    
                                                                                                    
                                                                                                    
                           
<?xpacket end="w"?></metadata>
<defs>
    <style>
      .cls-1 {
        fill: #00a6fb;
        fill-rule: evenodd;
      }
    </style>
  </defs>
  <path class="cls-1" d="M8.867,65.867A8.878,8.878,0,0,0,0,74.733,1.265,1.265,0,0,0,1.267,76h15.2a1.265,1.265,0,0,0,1.267-1.267A8.878,8.878,0,0,0,8.867,65.867Zm-6.205,7.6A6.342,6.342,0,0,1,7.6,68.539v2.394h2.533V68.539a6.343,6.343,0,0,1,4.939,4.927H2.661Zm72.072-19H72.512c-0.07-.176-0.142-0.351-0.22-0.527l1.572-1.572a1.265,1.265,0,0,0,0-1.791L68.49,45.2a1.246,1.246,0,0,0-.951-0.36,6.319,6.319,0,0,0,3.395-5.577V6.333A6.34,6.34,0,0,0,64.6,0H6.333A6.34,6.34,0,0,0,0,6.333V39.267A6.34,6.34,0,0,0,6.333,45.6h16.53l-4.785,8.866H15.833a4.434,4.434,0,0,0,0,8.867H43.067A1.266,1.266,0,0,0,44.333,64.6h2.222c0.07,0.176.142,0.351,0.22,0.527L45.2,66.7a1.265,1.265,0,0,0,0,1.791l5.373,5.373a1.265,1.265,0,0,0,1.791,0l1.572-1.572c0.176,0.079.351,0.151,0.527,0.22v2.222A1.265,1.265,0,0,0,55.733,76h7.6A1.265,1.265,0,0,0,64.6,74.733V72.511c0.176-.07.351-0.142,0.527-0.22L66.7,73.863a1.265,1.265,0,0,0,1.791,0l5.373-5.373a1.265,1.265,0,0,0,0-1.791l-1.572-1.572c0.078-.176.151-0.351,0.22-0.527h2.222A1.266,1.266,0,0,0,76,63.333v-7.6A1.266,1.266,0,0,0,74.733,54.466ZM2.533,6.333a3.8,3.8,0,0,1,3.8-3.8H64.6a3.8,3.8,0,0,1,3.8,3.8v26.6H2.533V6.333Zm3.8,36.733a3.8,3.8,0,0,1-3.8-3.8v-3.8H68.4v3.8a3.8,3.8,0,0,1-3.8,3.8H6.333ZM66.682,45.22l-1.555,1.556c-0.176-.079-0.351-0.151-0.527-0.22V45.6A6.251,6.251,0,0,0,66.682,45.22Zm-12.216.38v0.955c-0.176.07-.351,0.142-0.527,0.22L52.764,45.6h1.7Zm-4.288,0-1.092,1.092L48.344,45.6h1.835ZM43.067,60.8H15.833a1.9,1.9,0,1,1,0-3.8H43.067v3.8Zm-22.11-6.335L25.741,45.6H45.278l1.986,2.914L45.2,50.575a1.265,1.265,0,0,0,0,1.791l1.572,1.572c-0.079.176-.151,0.351-0.22,0.527h-25.6Zm52.51,7.6H71.619a1.267,1.267,0,0,0-1.208.885,11.4,11.4,0,0,1-.773,1.848,1.267,1.267,0,0,0,.228,1.482l1.312,1.312L67.6,71.176l-1.312-1.312a1.269,1.269,0,0,0-1.482-.228,11.418,11.418,0,0,1-1.848.772,1.27,1.27,0,0,0-.887,1.21v1.848H57V71.618a1.267,1.267,0,0,0-.885-1.208,11.406,11.406,0,0,1-1.848-.773,1.269,1.269,0,0,0-1.482.228l-1.312,1.312L47.89,67.6,49.2,66.283A1.267,1.267,0,0,0,49.43,64.8a11.4,11.4,0,0,1-.773-1.848,1.27,1.27,0,0,0-1.21-.887H45.6V57h1.848a1.268,1.268,0,0,0,1.208-.885,11.385,11.385,0,0,1,.773-1.848,1.267,1.267,0,0,0-.228-1.482l-1.312-1.312,3.582-3.582L52.783,49.2a1.265,1.265,0,0,0,1.482.228,11.4,11.4,0,0,1,1.848-.773A1.27,1.27,0,0,0,57,47.448V45.6h5.067v1.848a1.267,1.267,0,0,0,.885,1.208,11.4,11.4,0,0,1,1.848.773,1.265,1.265,0,0,0,1.482-.228l1.312-1.312,3.582,3.582-1.312,1.312a1.267,1.267,0,0,0-.228,1.482,11.4,11.4,0,0,1,.773,1.848,1.27,1.27,0,0,0,1.21.887h1.848v5.067ZM59.533,51.933a7.6,7.6,0,1,0,7.6,7.6A7.608,7.608,0,0,0,59.533,51.933Zm0,12.667A5.067,5.067,0,1,1,64.6,59.533,5.072,5.072,0,0,1,59.533,64.6ZM24.962,9.762L23.171,7.971,14.3,16.837a1.266,1.266,0,0,0,0,1.791L23.171,27.5,24.962,25.7l-7.971-7.971Zm27.867,7.075L43.962,7.971,42.171,9.762l7.971,7.971L42.171,25.7,43.962,27.5l8.867-8.867A1.265,1.265,0,0,0,52.829,16.837ZM26.732,27.3l11.4-22.793L40.395,5.64,29,28.433ZM49.4,25.333h2.533v2.533H49.4V25.333Zm5.067,0H57v2.533H54.467V25.333Zm5.067,0h2.533v2.533H59.533V25.333Z"/>
</svg>
