<svg xmlns="http://www.w3.org/2000/svg" width="79" height="75" viewBox="0 0 79 75">
  <metadata><?xpacket begin="﻿" id="W5M0MpCehiHzreSzNTczkc9d"?>
<x:xmpmeta xmlns:x="adobe:ns:meta/" x:xmptk="Adobe XMP Core 5.6-c138 79.159824, 2016/09/14-01:09:01        ">
   <rdf:RDF xmlns:rdf="http://www.w3.org/1999/02/22-rdf-syntax-ns#">
      <rdf:Description rdf:about=""/>
   </rdf:RDF>
</x:xmpmeta>
                                                                                                    
                                                                                                    
                                                                                                    
                                                                                                    
                                                                                                    
                                                                                                    
                                                                                                    
                                                                                                    
                                                                                                    
                                                                                                    
                                                                                                    
                                                                                                    
                                                                                                    
                                                                                                    
                                                                                                    
                                                                                                    
                                                                                                    
                                                                                                    
                                                                                                    
                                                                                                    
                           
<?xpacket end="w"?></metadata>
<defs>
    <style>
      .cls-1 {
        fill: #00a6fb;
        fill-rule: evenodd;
      }
    </style>
  </defs>
  <path class="cls-1" d="M9.879,19.4a3.879,3.879,0,1,0,3.861,3.879A3.875,3.875,0,0,0,9.879,19.4Zm0,5.173a1.293,1.293,0,1,1,1.287-1.293A1.292,1.292,0,0,1,9.879,24.569ZM79,30.655l-1.82-1.828-18.417,18.5c-0.07-.079-0.125-0.168-0.2-0.244L47.735,36.207,49.4,34.535l-1.82-1.828-3.821,3.839a6.114,6.114,0,0,1-7.577.852l9.353-9.323,0,0L69.99,3.5,68.17,1.673,44.628,25.327l-1.664-1.672a1.28,1.28,0,0,0-.91-0.379H37.439l-2.2-2.207L17.224,2.965,15.4,4.793,27.364,16.81,10.9,33.349,1.74,24.909,0,26.816,15.027,40.655v3.31a1.293,1.293,0,0,0,.377.914l5.566,5.592a4.014,4.014,0,0,0,3.08,6.41,4.016,4.016,0,0,0,3.861,3.879,4.016,4.016,0,0,0,3.861,3.879,4,4,0,0,0,5.569,3.573l0.1,0.1a5.129,5.129,0,0,0,7.28,0L58.564,54.4a5.149,5.149,0,0,0,1.508-3.657,5.238,5.238,0,0,0-.1-0.976ZM12.8,35.1l16.381-16.46,3.328,3.344L16.275,38.3ZM25.212,53.886a1.433,1.433,0,0,1-1.021.424,1.452,1.452,0,0,1-1.021-2.475l6.124-6.153a1.434,1.434,0,0,1,1.021-.424,1.452,1.452,0,0,1,1.021,2.475Zm3.861,3.879a1.434,1.434,0,0,1-1.021.424,1.452,1.452,0,0,1-1.021-2.475l6.124-6.153a1.433,1.433,0,0,1,1.021-.424A1.452,1.452,0,0,1,35.2,51.613Zm3.861,3.879a1.433,1.433,0,0,1-1.021.424,1.452,1.452,0,0,1-1.02-2.475l6.124-6.153a1.433,1.433,0,0,1,1.02-.424,1.452,1.452,0,0,1,1.021,2.475ZM36.8,65.524a1.447,1.447,0,0,1-2.041-2.051l6.124-6.152A1.433,1.433,0,0,1,41.9,56.9a1.452,1.452,0,0,1,1.021,2.475Zm19.948-12.95L42.9,66.483a2.622,2.622,0,0,1-3.517.1L44.74,61.2a4.033,4.033,0,0,0-2.7-6.876,4.015,4.015,0,0,0-3.861-3.879,4.016,4.016,0,0,0-3.861-3.879,4.023,4.023,0,0,0-4-3.894,3.982,3.982,0,0,0-2.84,1.182L22.749,48.6,17.6,43.43V40.621l16.731-16.81L36,25.483a1.28,1.28,0,0,0,.91.379h4.615L42.8,27.151l-9.459,9.431a1.3,1.3,0,0,0,0,1.839,8.674,8.674,0,0,0,12.229-.048l0.337-.338,10.829,10.88A2.6,2.6,0,0,1,56.744,52.574ZM8.974,54.231L6.716,55.473c0.423,0.777.882,1.552,1.362,2.3l2.165-1.4C9.794,55.676,9.368,54.956,8.974,54.231ZM27.338,70.223l-0.9,2.422c0.825,0.31,1.676.595,2.53,0.846l0.723-2.481C28.9,70.775,28.106,70.512,27.338,70.223ZM18.654,65.45l-1.546,2.069c0.708,0.534,1.445,1.049,2.189,1.53l1.393-2.175C20,66.425,19.311,65.947,18.654,65.45Zm4.171,2.7-1.235,2.268c0.775,0.425,1.576.83,2.383,1.2l1.072-2.351C24.293,68.922,23.547,68.546,22.825,68.15ZM14.9,62.184l-1.821,1.827c0.625,0.63,1.282,1.244,1.95,1.826l1.687-1.954C16.1,63.341,15.488,62.768,14.9,62.184Zm-3.25-3.765L9.6,59.97c0.533,0.714,1.1,1.415,1.672,2.083l1.945-1.7C12.677,59.736,12.153,59.083,11.655,58.418ZM4.818,40l-2.568.184c0.062,0.886.157,1.781,0.282,2.661l2.548-.365C4.965,41.656,4.876,40.822,4.818,40ZM2.251,34.828c-0.063.88-.094,1.778-0.094,2.672v0l2.574,0c0-.833.03-1.671,0.088-2.488Zm3.268,10.1L3,45.477c0.188,0.87.409,1.743,0.658,2.594l2.47-.727C5.9,46.552,5.695,45.738,5.519,44.927Zm1.4,4.779L4.5,50.612c0.309,0.83.651,1.662,1.019,2.47l2.341-1.075C7.52,51.253,7.2,50.48,6.914,49.707Zm64.184,2.3c-0.345.755-.72,1.505-1.115,2.231l2.259,1.241c0.423-.779.826-1.584,1.2-2.395ZM68.716,56.38c-0.448.7-.925,1.386-1.418,2.047l2.059,1.553c0.53-.709,1.042-1.45,1.524-2.2Zm-2.978,3.987c-0.539.626-1.108,1.24-1.691,1.825l1.819,1.83c0.627-.629,1.238-1.288,1.817-1.959Zm7.094-13.029c-0.233.8-.5,1.59-0.782,2.364l2.41,0.905c0.31-.831.592-1.687,0.842-2.542Zm1.049-4.867c-0.117.822-.265,1.647-0.439,2.453l2.516,0.547c0.187-.865.345-1.751,0.47-2.635ZM62.229,63.892c-0.62.541-1.27,1.067-1.932,1.566l1.545,2.069c0.709-.534,1.407-1.1,2.073-1.68ZM32.094,71.625L31.55,74.151c0.861,0.188,1.743.347,2.623,0.472l0.363-2.559C33.717,71.947,32.9,71.8,32.094,71.625ZM74.229,37.5c0,0.831-.028,1.67-0.086,2.492l2.568,0.182c0.062-.883.093-1.783,0.093-2.674H74.229Zm-29.8,34.562c-0.816.116-1.646,0.206-2.468,0.264l0.183,2.58c0.882-.062,1.772-0.158,2.649-0.283Zm-4.951.352c-0.828,0-1.66-.029-2.478-0.087l-0.181,2.579C37.7,74.969,38.595,75,39.481,75V72.414Zm18.782-5.535c-0.69.446-1.407,0.874-2.131,1.272l1.236,2.269c0.777-.428,1.547-0.887,2.288-1.367Zm-4.346,2.388c-0.75.344-1.52,0.666-2.288,0.953l0.9,2.423c0.826-.31,1.654-0.654,2.458-1.024Zm-4.641,1.741c-0.789.231-1.6,0.438-2.405,0.615l0.547,2.527c0.866-.189,1.735-0.411,2.582-0.661ZM54.493,3.279L53.359,5.6c0.714,0.352,1.449.749,2.184,1.179l1.3-2.234C56.052,4.085,55.261,3.658,54.493,3.279ZM39.48,0L38.942,0,38.979,2.59l0.5,0q1.019,0,1.992.047l0.121-2.584C40.9,0.017,40.2,0,39.48,0ZM49.5,1.323L48.776,3.805c0.779,0.229,1.561.5,2.326,0.8L52.04,2.194C51.2,1.866,50.35,1.574,49.5,1.323ZM44.246,0.265l-0.3,2.568c0.831,0.1,1.652.228,2.44,0.386l0.5-2.537C46.036,0.51,45.147.371,44.246,0.265ZM25.929,2.547c-0.825.323-1.647,0.68-2.445,1.062l1.1,2.337c0.744-.354,1.511-0.688,2.279-0.989Zm5.09-1.579c-0.864.2-1.73,0.436-2.573,0.7l0.761,2.471c0.784-.244,1.59-0.463,2.394-0.65Zm5.263-.833C35.4,0.212,34.507.319,33.636,0.458l0.4,2.555c0.81-.129,1.639-0.23,2.462-0.3Z"/>
</svg>
