<?xml version="1.0" encoding="UTF-8" standalone="no"?>
<!-- Generator: Adobe Illustrator 21.1.0, SVG Export Plug-In . SVG Version: 6.00 Build 0)  -->

<svg
   xmlns:dc="http://purl.org/dc/elements/1.1/"
   xmlns:cc="http://creativecommons.org/ns#"
   xmlns:rdf="http://www.w3.org/1999/02/22-rdf-syntax-ns#"
   xmlns:svg="http://www.w3.org/2000/svg"
   xmlns="http://www.w3.org/2000/svg"
   xmlns:sodipodi="http://sodipodi.sourceforge.net/DTD/sodipodi-0.dtd"
   xmlns:inkscape="http://www.inkscape.org/namespaces/inkscape"
   version="1.1"
   id="РЎР»РѕР№_1"
   x="0px"
   y="0px"
   viewBox="0 0 2500 1000"
   xml:space="preserve"
   sodipodi:docname="drager_shop_topbg.svg"
   width="2500"
   height="1000"
   inkscape:version="0.92.1 r15371"><metadata
     id="metadata3769"><rdf:RDF><cc:Work
         rdf:about=""><dc:format>image/svg+xml</dc:format><dc:type
           rdf:resource="http://purl.org/dc/dcmitype/StillImage" /><dc:title></dc:title></cc:Work></rdf:RDF></metadata><defs
     id="defs3767" /><sodipodi:namedview
     pagecolor="#ffffff"
     bordercolor="#666666"
     borderopacity="1"
     objecttolerance="10"
     gridtolerance="10"
     guidetolerance="10"
     inkscape:pageopacity="0"
     inkscape:pageshadow="2"
     inkscape:window-width="1600"
     inkscape:window-height="837"
     id="namedview3765"
     showgrid="false"
     inkscape:zoom="0.0944"
     inkscape:cx="1250"
     inkscape:cy="1250"
     inkscape:window-x="-8"
     inkscape:window-y="-8"
     inkscape:window-maximized="1"
     inkscape:current-layer="РЎР»РѕР№_1" /><path
     d="m 373.6,70.31186 c 48.9,2.2 97.2,39.3 114.7,83.9 0,0 6.5,20.1 7.3,32.2 0.8,12 -0.7,514.3 -0.7,514.3 -5.8,38.7 -34.3,76 -70.1,92.8 -22.7,13.9 -50.4,14.6 -78.2,13.9 H 36.8 l 0.1,-577 156.2,-0.1 0.7,496 103,0.1 c 16.4,-2.3 34.9,-12 42.9,-28.8 0,0 5.7,-9 6,-18 0.4,-8.9 1.5,-479.3 1.5,-479.3 -1.5,-20.5 -12.7,-47.5 -37.3,-50.6 l -273,0.2 -0.1,-79.4 z m 442.7,298.7 c -30.7,-11 -80.4,-21.9 -107.4,6.6 -15.3,12.4 -13.2,31.4 -14.6,49.7 v 380.6 H 545.4 l -0.1,-477.8 c 72.3,-59.9 175.9,-55.5 271.7,-57.7 z m 1646.3,0.4 c -30.7,-11 -80.4,-21.9 -107.4,6.6 -15.4,12.4 -13.2,31.4 -14.6,49.7 v 380.6 h -148.9 l -0.1,-477.8 c 72.3,-59.9 175.9,-55.5 271.7,-57.7 z m -434.2,-100.5 c 9.8,0.9 19.3,2 28.5,3.6 40.2,11.7 79.9,55.5 82.6,92.1 l 1.5,236 -276.2,0.1 -0.3,76.2 c 2.6,16.9 10.9,31.4 28.8,39.9 51.1,15.4 111.8,7.3 164.4,0 l 79.5,-17.8 -0.6,103.6 -299.5,0.4 c -47.5,-2.2 -92.8,-32.9 -111,-77.4 0,0 -7.2,-19.6 -7.3,-29.2 -0.1,-9.6 0,-319.3 0,-319.3 3.7,-40.9 31.4,-78.2 68.7,-97.2 12.7,-7.1 27.3,-10 42.6,-11.4 z m -135.2,84.7 c -13.2,7.3 -26.5,23.7 -26.3,36.4 l -0.3,129.1 125.2,0.3 c 0,0 0.5,-123.4 0.4,-129.3 0,-5.9 -6.3,-17.5 -6.3,-17.5 -19.7,-30.7 -63.5,-32.9 -92.7,-19 z m -785.4,-83.3 c 40.9,4.4 81.8,30.7 100.8,70.1 17.5,34.3 8.8,80.4 11,122 l -0.7,343.7 -311.2,-0.3 c -40.2,-5.8 -79.6,-36.5 -96.4,-74.5 -13.2,-51.1 -8,-105.2 -8,-159.3 5.8,-38.7 35.1,-76.7 70.9,-94.2 11.8,-5.1 24.5,-7.7 37.8,-9.1 23,-2.3 158.7,-2.3 158.7,-2.3 l -0.2,-78.3 c -0.9,-13.5 -7.6,-22 -19.5,-29.4 -44.6,-22.6 -105.9,-10.1 -152.7,0.8 -16.1,4.4 -28.7,7 -45.4,11 l -0.6,-99.9 z m -37.7,278.8 -79.20004,0.7 c -21.29996,0.4 -43.19996,19.9 -45.29996,40.5 -0.7,35.1 -8,76.7 5.8,107.4 10,16.9 24.8,23.6 42.19996,24.3 l 76.10004,-0.2 z m -140.3,-334.2 c 43.7,0.6 79.7,-34.4 80.2,-78.2 0.6,-43.7 -34.4,-79.7 -78.2,-80.2 -0.7,0 -1.4,0 -2,0 -43.7,0.6 -78.7,36.5 -78.2,80.2 0.6,43 35.2,77.6 78.2,78.2 z m 199.3,0.4 c 43.7,0.6 79.7,-34.5 80.2,-78.2 0.6,-43.7 -34.5,-79.7 -78.2,-80.2 -0.7,0 -1.4,0 -2,0 -43.7,0.6 -78.8,36.5 -78.2,80.2 0.6,43 35.3,77.7 78.2,78.2 z m 540.5,54.9 c 0,0 1.5,152.8 0,229.5 -1.1,35.3 -35.8,81.1 -74.5,96.4 -32.9,16.8 -77.4,8.8 -114.7,11 l -99.9,-1.3 c -24.2,-1.7 -47,-7.5 -65.9,-24.3 -27,-21.2 -44.6,-50.4 -48.2,-82.6 3.6,-67.9 -20.5,-161.5 50.4,-206.8 19.7,-12.4 40.2,-21.9 64.3,-22.6 z m -174.1,254.7 c 22.1,-7.7 35.7,-17 35.9,-48 v -77.2 c -1.1,-31.9 -13.9,-40.3 -35.9,-48 -14.8,-5.2 -39,-5.2 -53.8,0 -22,7.7 -35.8,17.5 -35.9,48 v 77.2 c 0,32.4 13.8,40.3 35.9,48 14.8,5.2 39,5.2 53.8,0 z m 82.1,105.6 c 40.2,5.8 81.8,38.7 96.4,78.2 15.4,46.7 7.3,107.4 6.6,157.8 -5.1,40.2 -38,83.3 -77.4,96.4 0,0 -19.4,5.5 -30,5.8 -10.6,0.4 -201.6,0 -201.6,0 -44.6,-2.2 -86.2,-35.1 -103,-76 -16.8,-51.1 -8,-108.9 -6.6,-164.4 5.3,-38.7 40.9,-79.6 79.6,-89.5 0,0 23.1,-7.8 32.2,-8 9.2,-0.1 203.8,-0.3 203.8,-0.3 z m -79.9,255.5 c 22.1,-7.8 37.8,-17 37.9,-48 v -77.2 c -1.1,-31.9 -15.9,-40.3 -37.9,-48 -14.8,-5.2 -39,-5.2 -53.8,0 -22,7.7 -37.9,17.5 -37.9,48 v 77.2 c 0,32.4 15.8,40.3 37.9,48 14.8,5.2 39,5.2 53.8,0 z"
     id="path3762"
     inkscape:connector-curvature="0"
     style="fill:#cccccc" /></svg>