<?xml version="1.0" encoding="UTF-8" standalone="no"?>
<!-- Created with Inkscape (http://www.inkscape.org/) -->

<svg
   xmlns:dc="http://purl.org/dc/elements/1.1/"
   xmlns:cc="http://creativecommons.org/ns#"
   xmlns:rdf="http://www.w3.org/1999/02/22-rdf-syntax-ns#"
   xmlns:svg="http://www.w3.org/2000/svg"
   xmlns="http://www.w3.org/2000/svg"
   xmlns:sodipodi="http://sodipodi.sourceforge.net/DTD/sodipodi-0.dtd"
   xmlns:inkscape="http://www.inkscape.org/namespaces/inkscape"
   id="svg5290"
   version="1.1"
   inkscape:version="0.91 r13725"
   width="88"
   height="35"
   viewBox="0 0 88 35"
   sodipodi:docname="drager.png">
  <metadata
     id="metadata5296">
    <rdf:RDF>
      <cc:Work
         rdf:about="">
        <dc:format>image/svg+xml</dc:format>
        <dc:type
           rdf:resource="http://purl.org/dc/dcmitype/StillImage" />
        <dc:title></dc:title>
      </cc:Work>
    </rdf:RDF>
  </metadata>
  <defs
     id="defs5294" />
  <sodipodi:namedview
     pagecolor="#ffffff"
     bordercolor="#666666"
     borderopacity="1"
     objecttolerance="10"
     gridtolerance="10"
     guidetolerance="10"
     inkscape:pageopacity="0"
     inkscape:pageshadow="2"
     inkscape:window-width="1600"
     inkscape:window-height="837"
     id="namedview5292"
     showgrid="false"
     inkscape:zoom="4.3181818"
     inkscape:cx="15.168421"
     inkscape:cy="17.5"
     inkscape:window-x="-8"
     inkscape:window-y="-8"
     inkscape:window-maximized="1"
     inkscape:current-layer="svg5290" />
  <path
     style="fill:#ffffff"
     d="m 45.365152,32.417167 c -2.962023,-5.53459 0.14977,-10.111904 6.87437,-10.111904 5.911131,0 7.289673,1.43853 6.87685,7.176095 l -0.311109,4.323905 -6.190111,0.296163 c -5.32104,0.254583 -6.338915,0.01812 -7.25,-1.684259 z m 8.759333,-4.017538 c 0.284404,-2.896943 0.06737,-3.215766 -1.989784,-2.922988 -2.647349,0.376775 -3.575056,3.225281 -1.761928,5.409966 1.835187,2.211266 3.391769,1.179422 3.751712,-2.486978 z M 0.30526278,17.805263 l 0,-10.4999995 3.00000012,0 3,0 0,8.9409825 c 0,9.054526 0.541443,10.555948 3.4097583,9.455273 1.3117918,-0.503382 1.5902418,-2.420892 1.5902418,-10.950985 l 0,-10.3407515 -5.1713971,-0.302259 c -8.350051,-0.488047 -7.4705241,-2.80226 1.065011,-2.80226 l 7.0602801,0 1.620496,2.47319 c 1.277556,1.949797 1.546968,4.457286 1.273053,11.8486365 -0.444558,11.99601 -0.980999,12.678173 -9.9698871,12.678173 l -6.87755612,0 0,-10.5 z m 18.92936322,9.75 c -0.373823,-3.969112 0.381613,-16.937109 1.024725,-17.5906596 0.454977,-0.462363 2.290985,-0.912363 4.080016,-1 3.727787,-0.182608 5.338757,2.1688876 2.071252,3.0233596 l -2.105356,0.550563 0,7.883368 0,7.883369 -2.5,0 c -1.375,0 -2.531787,-0.3375 -2.570637,-0.75 z m 10.312087,-0.40855 c -1.585747,-1.585747 -1.61362,-8.06928 -0.04145,-9.64145 0.66,-0.66 2.636855,-1.2 4.393011,-1.2 3.318422,0 4.806153,-1.736105 3.415686,-3.985927 -0.537675,-0.869978 -1.863094,-1.093194 -3.978733,-0.670066 -2.657259,0.531452 -3.118899,0.352038 -2.842591,-1.104756 0.524285,-2.7642185 8.110115,-2.9417625 10.799128,-0.25275 1.827383,1.827383 2.058788,3.084509 1.804819,9.804819 l -0.29132,7.70868 -6.00855,0.29145 c -3.81166,0.184888 -6.462458,-0.162458 -7.25,-0.95 z m 7.915862,-4.940569 c -0.411224,-4.081035 -0.436692,-4.114639 -2.514184,-3.317431 -1.946135,0.746802 -2.252452,6.006154 -0.393128,6.749883 2.39253,0.957012 3.24786,-0.05281 2.907312,-3.432452 z m 25.042688,4.899119 c -1.369368,-1.369368 -1.636126,-14.563954 -0.335897,-16.614355 0.458413,-0.7228956 3.000246,-1.4366726 5.648517,-1.5861706 6.393827,-0.360941 8.721156,1.8016776 8.292199,7.7053446 l -0.304819,4.195181 -4.75,0.304791 c -7.252232,0.465351 -7.029964,4.195209 0.25,4.195209 3.777778,0 5,0.366667 5,1.5 0,1.897192 -11.943174,2.156826 -13.8,0.3 z M 71.10352,15.717758 c 0.333576,-2.334706 -2.144265,-4.934718 -3.754452,-3.939568 -0.574093,0.354809 -1.043805,1.999847 -1.043805,3.655641 0,3.67307 4.277859,3.926203 4.798257,0.283927 z m 7.201743,3.646522 c 0,-9.7891856 -0.107418,-9.5730366 5.257616,-10.5795226 3.363163,-0.6309339 3.742384,-0.4881359 3.742384,1.4092146 0,1.16121 -0.3375,2.058002 -0.75,1.99287 -2.905708,-0.458796 -3.25,0.401236 -3.25,8.118421 l 0,8 -2.5,0 -2.5,0 0,-8.940983 z m -31.25,0.860884 c -2.225809,-1.296415 -2.47475,-9.4136 -0.325705,-10.6202106 0.783362,-0.439829 3.933362,-0.645543 7,-0.45714 l 5.575705,0.342549 0,4.2524626 c 0,6.561896 -6.346982,9.920531 -12.25,6.482339 z m 7.25,-4.860884 c 0,-3.294633 -1.051537,-4.360207 -3.409758,-3.455273 -1.579598,0.606149 -2.199753,4.453411 -0.923575,5.729589 1.863082,1.863083 4.333333,0.566591 4.333333,-2.274316 z M 30.69525,4.8791705 c -0.909796,-2.370891 0.377503,-4.76533303 2.356989,-4.38411903 1.107023,0.213194 1.753024,1.24877503 1.753024,2.81021203 0,2.850627 -3.156276,4.059306 -4.110013,1.573907 z m 7,0 c -0.909796,-2.370891 0.377503,-4.76533303 2.356989,-4.38411903 1.107023,0.213194 1.753024,1.24877503 1.753024,2.81021203 0,2.850627 -3.156276,4.059306 -4.110013,1.573907 z"
     id="path5870"
     inkscape:connector-curvature="0" />
</svg>
