<?xml version="1.0" encoding="UTF-8" standalone="no"?>
<!-- Created with Inkscape (http://www.inkscape.org/) -->

<svg
   xmlns:dc="http://purl.org/dc/elements/1.1/"
   xmlns:cc="http://creativecommons.org/ns#"
   xmlns:rdf="http://www.w3.org/1999/02/22-rdf-syntax-ns#"
   xmlns:svg="http://www.w3.org/2000/svg"
   xmlns="http://www.w3.org/2000/svg"
   xmlns:sodipodi="http://sodipodi.sourceforge.net/DTD/sodipodi-0.dtd"
   xmlns:inkscape="http://www.inkscape.org/namespaces/inkscape"
   id="svg4733"
   version="1.1"
   inkscape:version="0.91 r13725"
   width="1085"
   height="262"
   viewBox="0 0 1085 262"
   sodipodi:docname="logo.svg">
  <metadata
     id="metadata4739">
    <rdf:RDF>
      <cc:Work
         rdf:about="">
        <dc:format>image/svg+xml</dc:format>
        <dc:type
           rdf:resource="http://purl.org/dc/dcmitype/StillImage" />
        <dc:title></dc:title>
      </cc:Work>
    </rdf:RDF>
  </metadata>
  <defs
     id="defs4737" />
  <sodipodi:namedview
     pagecolor="#ffffff"
     bordercolor="#666666"
     borderopacity="1"
     objecttolerance="10"
     gridtolerance="10"
     guidetolerance="10"
     inkscape:pageopacity="0"
     inkscape:pageshadow="2"
     inkscape:window-width="1600"
     inkscape:window-height="837"
     id="namedview4735"
     showgrid="false"
     inkscape:zoom="0.9906012"
     inkscape:cx="556.49233"
     inkscape:cy="64.373794"
     inkscape:window-x="-8"
     inkscape:window-y="-8"
     inkscape:window-maximized="1"
     inkscape:current-layer="svg4733" />
  <g
     id="g5283"
     transform="translate(1.0094877,0.48988153)"
     style="fill:#000000">
    <path
       style="fill:#000000"
       d="m 496.5,185 c 2.14824,-2.2 4.1309,-4 4.4059,-4 0.275,0 -1.25766,1.8 -3.4059,4 -2.14824,2.2 -4.1309,4 -4.4059,4 -0.275,0 1.25766,-1.8 3.4059,-4 z m 123,-3 c 2.14824,-2.2 4.1309,-4 4.4059,-4 0.275,0 -1.25766,1.8 -3.4059,4 -2.14824,2.2 -4.1309,4 -4.4059,4 -0.275,0 1.25766,-1.8 3.4059,-4 z m 396.9529,-0.25 -3.9529,-4.25 4.25,3.95295 c 2.3375,2.17412 4.25,4.08662 4.25,4.25 0,0.75658 -0.8709,-4.9e-4 -4.5471,-3.95295 z m -463.58046,-2.5 c -1.24387,-1.58606 -1.2085,-1.62143 0.37756,-0.37756 0.9625,0.75485 1.75,1.54235 1.75,1.75 0,0.82304 -0.82119,0.29331 -2.12756,-1.37244 z M 504.46092,132.5 c 2.1e-4,-25.3 0.12996,-35.506641 0.28833,-22.68142 0.15837,12.82521 0.1582,33.52521 -3.8e-4,46 C 504.59028,168.29336 504.46071,157.8 504.46092,132.5 Z M 459.48279,132 459.5,92.5 l 8.5,-0.05834 8.5,-0.05834 -8.23856,0.347106 -8.23856,0.347106 -0.27865,39.211238 -0.27865,39.21123 0.0172,-39.5 z M 994.5,143 c 2.14824,-2.2 4.1309,-4 4.4059,-4 0.275,0 -1.25766,1.8 -3.4059,4 -2.14824,2.2 -4.1309,4 -4.4059,4 -0.275,0 1.25766,-1.8 3.4059,-4 z m -419.0659,0.68886 c -0.27673,-0.72113 -0.3751,-6.45863 -0.21862,-12.75 L 575.5,119.5 l 11,-0.0558 11,-0.0558 -10.75,0.33962 -10.75,0.33962 0,11.93234 0,11.93234 10.75,0.32145 10.75,0.32145 -10.78138,0.21238 c -8.12599,0.16007 -10.90531,-0.11055 -11.28452,-1.09876 z M 528.49893,139.26396 544,138.94921 544,130.5 l 0,-8.44921 -15.75,-0.31602 -15.75,-0.31601 16,0.0406 16,0.0406 0,9 0,9 -15.75107,0.0394 -15.75107,0.0394 15.50107,-0.31475 z M 1003.4324,111 c 0,-13.475 0.1416,-18.9875 0.3146,-12.25 0.173,6.7375 0.173,17.7625 0,24.5 -0.173,6.7375 -0.3146,1.225 -0.3146,-12.25 z M 63,130.72497 c 0,-0.15126 3.4875,-3.63876 7.75,-7.75 L 78.5,115.5 71.025028,123.25 C 64.082438,130.44803 63,131.45627 63,130.72497 Z M 102.5,91 c 6.03124,-6.05 11.19089,-11 11.46589,-11 0.275,0 -4.43465,4.95 -10.46589,11 -6.03124,6.05 -11.190892,11 -11.465892,11 -0.275,0 4.434652,-4.95 10.465892,-11 z m 273.75,1.264961 c 2.6125,-0.205999 6.8875,-0.205999 9.5,0 2.6125,0.205998 0.475,0.374543 -4.75,0.374543 -5.225,0 -7.3625,-0.168545 -4.75,-0.374543 z m 207,0 c 2.6125,-0.205999 6.8875,-0.205999 9.5,0 2.6125,0.205998 0.475,0.374543 -4.75,0.374543 -5.225,0 -7.3625,-0.168545 -4.75,-0.374543 z m 88,0.04571 c 0.9625,-0.251527 2.5375,-0.251527 3.5,0 0.9625,0.251528 0.175,0.457323 -1.75,0.457323 -1.925,0 -2.7125,-0.205795 -1.75,-0.457323 z m 81,-0.05398 c 4.2625,-0.187451 11.2375,-0.187451 15.5,0 4.2625,0.187451 0.775,0.34082 -7.75,0.34082 -8.525,0 -12.0125,-0.153369 -7.75,-0.34082 z m 114,0.0083 c 2.6125,-0.205999 6.8875,-0.205999 9.5,0 2.6125,0.205998 0.475,0.374543 -4.75,0.374543 -5.225,0 -7.3625,-0.168545 -4.75,-0.374543 z m 46,0 c 2.6125,-0.205999 6.8875,-0.205999 9.5,0 2.6125,0.205998 0.475,0.374543 -4.75,0.374543 -5.225,0 -7.3625,-0.168545 -4.75,-0.374543 z m 52.52643,0.0015 c 2.35204,-0.211245 5.95204,-0.208273 8,0.0066 2.04796,0.214878 0.12357,0.387715 -4.27643,0.384083 -4.4,-0.0036 -6.07561,-0.179441 -3.72357,-0.390687 z m 79.47357,-0.0015 c 2.6125,-0.205999 6.8875,-0.205999 9.5,0 2.6125,0.205998 0.475,0.374543 -4.75,0.374543 -5.225,0 -7.3625,-0.168545 -4.75,-0.374543 z M 442.5,76 c 2.14824,-2.2 4.1309,-4 4.4059,-4 0.275,0 -1.25766,1.8 -3.4059,4 -2.14824,2.2 -4.1309,4 -4.4059,4 -0.275,0 1.25766,-1.8 3.4059,-4 z m 209,2 c 0.99549,-1.1 2.03498,-2 2.30998,-2 0.275,0 -0.31449,0.9 -1.30998,2 -0.99549,1.1 -2.03498,2 -2.30998,2 -0.275,0 0.31449,-0.9 1.30998,-2 z m -86,-5 c 2.14824,-2.2 4.1309,-4 4.4059,-4 0.275,0 -1.25766,1.8 -3.4059,4 -2.14824,2.2 -4.1309,4 -4.4059,4 -0.275,0 1.25766,-1.8 3.4059,-4 z m 504.9529,-0.25 -3.9529,-4.25 4.25,3.952948 c 2.3375,2.174121 4.25,4.086621 4.25,4.25 0,0.756577 -0.8709,-4.9e-4 -4.5471,-3.952948 z m -464.58046,-3.5 c -1.24387,-1.586056 -1.2085,-1.621426 0.37756,-0.377555 0.9625,0.754844 1.75,1.542344 1.75,1.75 0,0.823034 -0.82119,0.293303 -2.12756,-1.372445 z M 1029,70.622445 c 0,-0.207656 0.7875,-0.995156 1.75,-1.75 1.5861,-1.243871 1.6214,-1.208501 0.3776,0.377555 -1.3064,1.665748 -2.1276,2.195479 -2.1276,1.372445 z M 96.315404,21.251136 c 10.348476,-0.162661 26.998476,-0.162407 36.999996,5.65e-4 10.00153,0.162971 1.5346,0.296058 -18.8154,0.295748 -20.35,-3.11e-4 -28.533068,-0.133651 -18.184596,-0.296313 z"
       id="path5297"
       inkscape:connector-curvature="0" />
    <path
       style="fill:#000000"
       d="m 77.999182,240.75 c 4.5e-4,-0.4125 16.538318,-0.65173 36.750818,-0.53163 20.2125,0.12011 30.9,0.34306 23.75,0.49545 -32.97593,0.70282 -60.501563,0.71929 -60.500818,0.0362 z m 182.460248,-45 c -0.26278,-0.6875 -0.35774,-29.825 -0.21102,-64.75 l 0.26677,-63.5 0.24241,64.22097 0.24241,64.22098 13.25,0.31065 13.25,0.31066 -13.28138,0.21837 c -9.86935,0.16227 -13.40414,-0.10276 -13.75919,-1.03163 z m 56.83628,0.50587 c 4.28763,-0.1879 11.03763,-0.18676 15,0.003 3.96236,0.1893 0.45429,0.34304 -7.79571,0.34164 -8.25,-0.001 -11.49193,-0.15629 -7.20429,-0.34419 z m 33.91054,0.004 c 3.68844,-0.19186 9.98844,-0.19314 14,-0.003 4.01156,0.1903 0.99375,0.34727 -6.70625,0.34883 -7.7,0.002 -10.98219,-0.15414 -7.29375,-0.34599 z m 45,0 c 3.68844,-0.19186 9.98844,-0.19314 14,-0.003 4.01156,0.1903 0.99375,0.34727 -6.70625,0.34883 -7.7,0.002 -10.98219,-0.15414 -7.29375,-0.34599 z m 64.09285,-0.005 c 4.83951,-0.18371 12.48951,-0.18277 17,0.002 4.5105,0.18485 0.5509,0.33516 -8.7991,0.33401 -9.35,-0.001 -13.0404,-0.1524 -8.2009,-0.3361 z m 120,0 c 4.83951,-0.18371 12.48951,-0.18277 17,0.002 4.5105,0.18485 0.5509,0.33516 -8.7991,0.33401 -9.35,-0.001 -13.0404,-0.1524 -8.2009,-0.3361 z m 57.4509,0.003 c 3.9875,-0.18981 10.5125,-0.18981 14.5,0 3.9875,0.18982 0.725,0.34512 -7.25,0.34512 -7.975,0 -11.2375,-0.1553 -7.25,-0.34512 z m 44.45625,0.002 c 3.68844,-0.19186 9.98844,-0.19314 14,-0.003 4.01156,0.1903 0.99375,0.34727 -6.70625,0.34883 -7.7,0.002 -10.98219,-0.15414 -7.29375,-0.34599 z m 50.10492,-0.008 c 8.14615,-0.16828 21.19615,-0.16789 29,8.6e-4 7.80386,0.16876 1.13883,0.30644 -14.81117,0.30596 -15.95,-4.7e-4 -22.33497,-0.13854 -14.18883,-0.30682 z m 58.89508,0.008 c 3.68844,-0.19186 9.98844,-0.19314 14,-0.003 4.01156,0.1903 0.99375,0.34727 -6.70625,0.34883 -7.7,0.002 -10.98219,-0.15414 -7.29375,-0.34599 z m 50.08946,-0.004 c 4.28763,-0.1879 11.03763,-0.18676 15,0.003 3.96236,0.1893 0.45429,0.34304 -7.79571,0.34164 -8.25,-0.001 -11.49193,-0.15629 -7.20429,-0.34419 z m 39.17398,-0.4767 C 880.20023,195.07562 880.10103,171.55 880.24925,143.5 l 0.26949,-51 0.24063,51.75 L 881,196 l 12.991,0 12.991,0 0.2725,-51.25 0.2725,-51.25 -0.0135,51.5 -0.0135,51.5 -13.27019,0.27917 c -10.0625,0.21168 -13.38862,-0.03 -13.76012,-1 z m 59.73656,0.48028 c 3.68844,-0.19186 9.98844,-0.19314 14,-0.003 4.01156,0.1903 0.99375,0.34727 -6.70625,0.34883 -7.7,0.002 -10.98219,-0.15414 -7.29375,-0.34599 z m 100.09285,-0.005 c 4.8395,-0.18371 12.4895,-0.18277 17,0.002 4.5105,0.18485 0.5509,0.33516 -8.7991,0.33401 -9.35,-0.001 -13.0404,-0.1524 -8.2009,-0.3361 z M 91.416832,177.5 c 9.61e-4,-10.45 0.149144,-14.58913 0.329296,-9.19806 0.180152,5.39107 0.179366,13.94107 -0.0017,19 -0.181113,5.05893 -0.32851,0.64806 -0.327549,-9.80194 z M 568.40499,193.75 566.5,191.5 l 2.25,1.90499 c 2.11444,1.79022 2.70524,2.59501 1.90499,2.59501 -0.18976,0 -1.20226,-1.0125 -2.25,-2.25 z M 1068,193.5 c 1.2917,-1.375 2.5736,-2.5 2.8486,-2.5 0.275,0 -0.5569,1.125 -1.8486,2.5 -1.2917,1.375 -2.5736,2.5 -2.8486,2.5 -0.275,0 0.5569,-1.125 1.8486,-2.5 z M 446.43709,191.75 443.5,188.5 l 3.25,2.93709 c 1.7875,1.6154 3.25,3.0779 3.25,3.25 0,0.77256 -0.82513,0.0924 -3.56291,-2.93709 z M 501,180.62244 c 0,-0.20765 0.7875,-0.99515 1.75,-1.75 1.58606,-1.24387 1.62143,-1.2085 0.37756,0.37756 C 501.82119,180.91575 501,181.44548 501,180.62244 Z M 135.5,160 c 0.99549,-1.1 2.03498,-2 2.30998,-2 0.275,0 -0.31449,0.9 -1.30998,2 -0.99549,1.1 -2.03498,2 -2.30998,2 -0.275,0 0.31449,-0.9 1.30998,-2 z m 6.5,-6.37756 c 0,-0.20765 0.7875,-0.99515 1.75,-1.75 1.58606,-1.24387 1.62143,-1.2085 0.37756,0.37756 C 142.82119,153.91575 142,154.44548 142,153.62244 Z M 114.39172,131 c 0,-7.425 0.15742,-10.4625 0.34983,-6.75 0.19241,3.7125 0.19241,9.7875 0,13.5 -0.19241,3.7125 -0.34983,0.675 -0.34983,-6.75 z m 397.96324,-0.5 c -0.003,-4.95 0.16605,-7.10108 0.37577,-4.78017 0.20972,2.3209 0.21222,6.3709 0.006,9 C 512.5296,137.34892 512.358,135.45 512.35496,130.5 Z M 1000.5,137 c 0.9955,-1.1 2.035,-2 2.31,-2 0.275,0 -0.3145,0.9 -1.31,2 -0.9955,1.1 -2.03498,2 -2.30998,2 -0.275,0 0.31449,-0.9 1.30998,-2 z M 51,105.5 C 65.016911,91.475 76.710293,80 76.985293,80 77.260293,80 66.016911,91.475 52,105.5 37.983089,119.525 26.289707,131 26.014707,131 25.739707,131 36.983089,119.525 51,105.5 Z m 40.416832,-21 c 9.61e-4,-10.45 0.149144,-14.589126 0.329296,-9.198059 0.180152,5.391068 0.179366,13.941068 -0.0017,19 C 91.563268,99.360874 91.415871,94.95 91.416832,84.5 Z M 436,82.5 c 1.29175,-1.375 2.57363,-2.5 2.84863,-2.5 0.275,0 -0.55688,1.125 -1.84863,2.5 -1.29175,1.375 -2.57363,2.5 -2.84863,2.5 -0.275,0 0.55688,-1.125 1.84863,-2.5 z m 120,0.187091 c 0,-0.1721 1.4625,-1.6346 3.25,-3.25 L 562.5,76.5 559.56291,79.75 C 556.82513,82.779455 556,83.459652 556,82.687091 Z m 91,-0.06465 c 0,-0.207656 0.7875,-0.995156 1.75,-1.75 1.58606,-1.243871 1.62143,-1.208501 0.37756,0.377555 C 647.82119,82.915748 647,83.445479 647,82.622445 Z M 1076.9243,79.25 1074.5,76.5 l 2.75,2.424314 c 1.5125,1.333373 2.75,2.570873 2.75,2.75 0,0.784274 -0.8098,0.145975 -3.0757,-2.424314 z m -465.97813,-5 -3.44617,-3.75 3.75,3.446167 C 614.74042,77.153784 615.45979,78 614.69617,78 c -0.16711,0 -1.85461,-1.6875 -3.75,-3.75 z m 378,-1 -3.44617,-3.75 3.75,3.446167 C 992.74042,76.153784 993.45979,77 992.69617,77 c -0.16711,0 -1.85461,-1.6875 -3.75,-3.75 z M 1023,76.687091 c 0,-0.1721 1.4625,-1.6346 3.25,-3.25 L 1029.5,70.5 l -2.9371,3.25 C 1023.8251,76.779455 1023,77.459652 1023,76.687091 Z M 487.43709,70.75 484.5,67.5 l 3.25,2.937091 C 490.77946,73.174872 491.45965,74 490.68709,74 c -0.1721,0 -1.6346,-1.4625 -3.25,-3.25 z M 660,70.622445 c 0,-0.207656 0.7875,-0.995156 1.75,-1.75 1.58606,-1.243871 1.62143,-1.208501 0.37756,0.377555 C 660.82119,70.915748 660,71.445479 660,70.622445 Z M 102.5,54 c 6.03124,-6.05 11.19089,-11 11.46589,-11 0.275,0 -4.43465,4.95 -10.46589,11 -6.03124,6.05 -11.190892,11 -11.465892,11 -0.275,0 4.434652,-4.95 10.465892,-11 z"
       id="path5295"
       inkscape:connector-curvature="0" />
    <path
       style="fill:#000000"
       d="M 101.98369,207.25 90.5,195.5 l 11.75,11.48369 c 6.4625,6.31603 11.75,11.60353 11.75,11.75 0,0.72017 -1.34959,-0.5696 -12.01631,-11.48369 z M 287.35496,187.5 c -0.003,-4.95 0.16605,-7.10108 0.37577,-4.78017 0.20972,2.3209 0.21222,6.3709 0.006,9 C 287.5296,194.34892 287.358,192.45 287.35496,187.5 Z M 605,195.62244 c 0,-0.20765 0.7875,-0.99515 1.75,-1.75 1.58606,-1.24387 1.62143,-1.2085 0.37756,0.37756 C 605.82119,195.91575 605,196.44548 605,195.62244 Z M 1029.8724,194.25 c -1.2438,-1.58606 -1.2085,-1.62143 0.3776,-0.37756 1.6657,1.30637 2.1955,2.12756 1.3724,2.12756 -0.2076,0 -0.9951,-0.7875 -1.75,-1.75 z m -465.46741,-4.5 -1.90499,-2.25 2.25,1.90499 c 1.2375,1.04774 2.25,2.06024 2.25,2.25 0,0.80025 -0.80479,0.20945 -2.59501,-1.90499 z M 1072.5,189 c 0.9955,-1.1 2.035,-2 2.31,-2 0.275,0 -0.3145,0.9 -1.31,2 -0.9955,1.1 -2.035,2 -2.31,2 -0.275,0 0.3145,-0.9 1.31,-2 z M 440.92431,186.25 438.5,183.5 l 2.75,2.42431 c 2.57029,2.26589 3.20859,3.07569 2.42431,3.07569 -0.17912,0 -1.41662,-1.2375 -2.75,-2.75 z M 50.992646,156.25 25.5,130.5 51.25,155.99265 C 75.178459,179.68196 77.450626,182 76.742646,182 c -0.141544,0 -11.729044,-11.5875 -25.75,-25.75 z M 117.5,178 c 0.99549,-1.1 2.03498,-2 2.30998,-2 0.275,0 -0.31449,0.9 -1.30998,2 -0.99549,1.1 -2.03498,2 -2.30998,2 -0.275,0 0.31449,-0.9 1.30998,-2 z m 3.5,-3.37756 c 0,-0.20765 0.7875,-0.99515 1.75,-1.75 1.58606,-1.24387 1.62143,-1.2085 0.37756,0.37756 C 121.82119,174.91575 121,175.44548 121,174.62244 Z M 477.45571,132.5 c 2.7e-4,-22 0.13226,-30.85753 0.29331,-19.6834 0.16105,11.17413 0.16083,29.17413 -4.9e-4,40 -0.16132,10.82587 -0.29309,1.6834 -0.29282,-20.3166 z M 966.25,153.26101 c 3.1625,-0.19845 8.3375,-0.19845 11.5,0 3.1625,0.19845 0.575,0.36082 -5.75,0.36082 -6.325,0 -8.9125,-0.16237 -5.75,-0.36082 z M 146.5,149 c 0.99549,-1.1 2.03498,-2 2.30998,-2 0.275,0 -0.31449,0.9 -1.30998,2 -0.99549,1.1 -2.03498,2 -2.30998,2 -0.275,0 0.31449,-0.9 1.30998,-2 z M 770.21238,128.77988 770,117.05975 l -12.75,-0.31254 -12.75,-0.31255 12.78138,-0.21733 c 9.79349,-0.16652 12.89929,0.0899 13.28572,1.09694 0.27738,0.72284 0.35883,6.23534 0.181,12.25 L 770.42476,140.5 770.21238,128.77988 Z M 287.43869,95 c 0,-15.125 0.13899,-21.3125 0.30888,-13.75 0.16988,7.5625 0.16988,19.9375 0,27.5 -0.16989,7.5625 -0.30888,1.375 -0.30888,-13.75 z M 123.75,117.25493 c 5.0875,-0.18149 13.4125,-0.18149 18.5,0 5.0875,0.18149 0.925,0.32999 -9.25,0.32999 -10.175,0 -14.3375,-0.1485 -9.25,-0.32999 z m 435.54159,-7.99743 c 3.73537,-0.19293 9.58537,-0.19149 13,0.003 3.41462,0.19468 0.35841,0.35253 -6.79159,0.35078 -7.15,-0.002 -9.94379,-0.16103 -6.20841,-0.35396 z M 553.5,85 c 0.99549,-1.1 2.03498,-2 2.30998,-2 0.275,0 -0.31449,0.9 -1.30998,2 -0.99549,1.1 -2.03498,2 -2.30998,2 -0.275,0 0.31449,-0.9 1.30998,-2 z m 528.4243,-0.75 -2.4243,-2.75 2.75,2.424314 c 1.5125,1.333373 2.75,2.570873 2.75,2.75 0,0.784274 -0.8098,0.145975 -3.0757,-2.424314 z M 616.40499,79.75 614.5,77.5 l 2.25,1.904988 c 1.2375,1.047743 2.25,2.060243 2.25,2.25 0,0.800253 -0.80479,0.209457 -2.59501,-1.904988 z m 378,-1 -1.90499,-2.25 2.25,1.904988 c 1.2375,1.047743 2.25,2.060243 2.25,2.25 0,0.800253 -0.80479,0.209457 -2.59501,-1.904988 z M 1020.5,79 c 0.9955,-1.1 2.035,-2 2.31,-2 0.275,0 -0.3145,0.9 -1.31,2 -0.9955,1.1 -2.035,2 -2.31,2 -0.275,0 0.3145,-0.9 1.31,-2 z M 492.40499,75.75 490.5,73.5 l 2.25,1.904988 C 494.86444,77.195206 495.45524,78 494.65499,78 c -0.18976,0 -1.20226,-1.0125 -2.25,-2.25 z"
       id="path5293"
       inkscape:connector-curvature="0" />
    <path
       style="fill:#000000"
       d="m 486.5,194 c 0.99549,-1.1 2.03498,-2 2.30998,-2 0.275,0 -0.31449,0.9 -1.30998,2 -0.99549,1.1 -2.03498,2 -2.30998,2 -0.275,0 0.31449,-0.9 1.30998,-2 z M 610,190.5 c 1.29175,-1.375 2.57363,-2.5 2.84863,-2.5 0.275,0 -0.55688,1.125 -1.84863,2.5 -1.29175,1.375 -2.57363,2.5 -2.84863,2.5 -0.275,0 0.55688,-1.125 1.84863,-2.5 z m 416.405,0.25 -1.905,-2.25 2.25,1.90499 c 2.1144,1.79022 2.7052,2.59501 1.905,2.59501 -0.1898,0 -1.2023,-1.0125 -2.25,-2.25 z m -466.48069,-5.5 -2.42431,-2.75 2.75,2.42431 c 1.5125,1.33338 2.75,2.57088 2.75,2.75 0,0.78428 -0.8098,0.14598 -3.07569,-2.42431 z M 1076.5,185 c 0.9955,-1.1 2.035,-2 2.31,-2 0.275,0 -0.3145,0.9 -1.31,2 -0.9955,1.1 -2.035,2 -2.31,2 -0.275,0 0.3145,-0.9 1.31,-2 z M 436.40499,181.75 434.5,179.5 l 2.25,1.90499 c 1.2375,1.04774 2.25,2.06024 2.25,2.25 0,0.80025 -0.80479,0.20945 -2.59501,-1.90499 z M 102.48295,169.75 91.5,158.5 102.75,169.48295 C 113.19944,179.68434 114.45409,181 113.73295,181 c -0.14688,0 -5.20938,-5.0625 -11.25,-11.25 z M 287.29966,174 c 0,-3.025 0.18747,-4.2625 0.41659,-2.75 0.22913,1.5125 0.22913,3.9875 0,5.5 -0.22912,1.5125 -0.41659,0.275 -0.41659,-2.75 z M 984,152.62244 c 0,-0.20765 0.7875,-0.99515 1.75,-1.75 1.58606,-1.24387 1.62143,-1.2085 0.37756,0.37756 C 984.82119,152.91575 984,153.44548 984,152.62244 Z M 70.47318,137.75 63.5,130.5 l 7.25,6.97318 c 3.9875,3.83525 7.25,7.09775 7.25,7.25 0,0.73351 -1.050128,-0.23938 -7.52682,-6.97318 z m 680.81841,2.5075 c 3.73537,-0.19293 9.58537,-0.19149 13,0.003 3.41462,0.19468 0.35841,0.35253 -6.79159,0.35078 -7.15,-0.002 -9.94379,-0.16103 -6.20841,-0.35396 z M 158.49574,86.75 114.5,42.5 158.75,86.495738 C 183.0875,110.69339 203,130.60589 203,130.74574 c 0,0.70358 -3.61144,-2.86659 -44.50426,-43.99574 z m -26.00616,12 L 114.5,80.5 132.75,98.489581 C 149.70584,115.20347 151.45182,117 150.73958,117 c -0.14323,0 -8.35573,-8.2125 -18.25,-18.25 z m 487.91541,-15 -1.90499,-2.25 2.25,1.904988 c 1.2375,1.047743 2.25,2.060243 2.25,2.25 0,0.800253 -0.80479,0.209457 -2.59501,-1.904988 z M 1016,83.5 c 1.2917,-1.375 2.5736,-2.5 2.8486,-2.5 0.275,0 -0.5569,1.125 -1.8486,2.5 -1.2917,1.375 -2.5736,2.5 -2.8486,2.5 -0.275,0 0.5569,-1.125 1.8486,-2.5 z M 998.40499,82.75 996.5,80.5 l 2.25,1.904988 c 1.2375,1.047743 2.25,2.060243 2.25,2.25 0,0.800253 -0.8048,0.209457 -2.59501,-1.904988 z M 496.92431,80.25 494.5,77.5 l 2.75,2.424314 c 1.5125,1.333373 2.75,2.570873 2.75,2.75 0,0.784274 -0.8098,0.145975 -3.07569,-2.424314 z"
       id="path5291"
       inkscape:connector-curvature="0" />
    <path
       style="fill:#000000"
       d="m 86.75,224.25068 c 14.9875,-0.15555 39.5125,-0.15555 54.5,0 14.9875,0.15556 2.725,0.28283 -27.25,0.28283 -29.975,0 -42.2375,-0.12727 -27.25,-0.28283 z M 158.5,175 c 24.19531,-24.2 44.21648,-44 44.49148,-44 0.275,0 -19.29617,19.8 -43.49148,44 -24.19531,24.2 -44.21648,44 -44.49148,44 -0.275,0 19.29617,-19.8 43.49148,-44 z m 69.92476,0 c 0,-11.825 0.14466,-16.6625 0.32145,-10.75 0.1768,5.9125 0.1768,15.5875 0,21.5 -0.17679,5.9125 -0.32145,1.075 -0.32145,-10.75 z M 718.4713,132 c 0,-35.475 0.1252,-49.9875 0.27821,-32.25 0.15301,17.7375 0.15301,46.7625 0,64.5 -0.15301,17.7375 -0.27821,3.225 -0.27821,-32.25 z m 92.87151,56.5 c 0.004,-4.4 0.17944,-6.07561 0.39069,-3.72357 0.21124,2.35204 0.20827,5.95204 -0.007,8 -0.21487,2.04796 -0.38771,0.12357 -0.38408,-4.27643 z M 490.5,190 c 0.99549,-1.1 2.03498,-2 2.30998,-2 0.275,0 -0.31449,0.9 -1.30998,2 -0.99549,1.1 -2.03498,2 -2.30998,2 -0.275,0 0.31449,-0.9 1.30998,-2 z m 531.905,-3.25 -1.905,-2.25 2.25,1.90499 c 2.1144,1.79022 2.7052,2.59501 1.905,2.59501 -0.1898,0 -1.2023,-1.0125 -2.25,-2.25 z M 613,187.62244 c 0,-0.20765 0.7875,-0.99515 1.75,-1.75 1.58606,-1.24387 1.62143,-1.2085 0.37756,0.37756 C 613.82119,187.91575 613,188.44548 613,187.62244 Z M 555.87244,181.25 c -1.24387,-1.58606 -1.2085,-1.62143 0.37756,-0.37756 1.66575,1.30637 2.19548,2.12756 1.37244,2.12756 -0.20765,0 -0.99515,-0.7875 -1.75,-1.75 z M 1080.5,181 c 0.9955,-1.1 2.035,-2 2.31,-2 0.275,0 -0.3145,0.9 -1.31,2 -0.9955,1.1 -2.035,2 -2.31,2 -0.275,0 0.3145,-0.9 1.31,-2 z m 3.9609,-48.5 c 2e-4,-25.3 0.13,-35.506641 0.2883,-22.68142 0.1584,12.82521 0.1582,33.52521 -3e-4,46 -0.1586,12.47478 -0.2882,1.98142 -0.288,-23.31858 z M 432.46053,132 c 0,-25.025 0.12983,-35.2625 0.28851,-22.75 0.15868,12.5125 0.15868,32.9875 0,45.5 -0.15868,12.5125 -0.28851,2.275 -0.28851,-22.75 z m 164.93686,26 c 0,-7.975 0.1553,-11.2375 0.34512,-7.25 0.18981,3.9875 0.18981,10.5125 0,14.5 -0.18982,3.9875 -0.34512,0.725 -0.34512,-7.25 z m 442.05881,-26 c 0,-22.275 0.1317,-31.3875 0.2926,-20.25 0.1609,11.1375 0.1609,29.3625 0,40.5 -0.1609,11.1375 -0.2926,2.025 -0.2926,-20.25 z m -752.0957,28 c 0,-5.225 0.16854,-7.3625 0.37454,-4.75 0.206,2.6125 0.206,6.8875 0,9.5 -0.206,2.6125 -0.37454,0.475 -0.37454,-4.75 z M 988.5,148 c 0.99549,-1.1 2.03498,-2 2.30998,-2 0.275,0 -0.31449,0.9 -1.30998,2 -0.99549,1.1 -2.03498,2 -2.30998,2 -0.275,0 0.31449,-0.9 1.30998,-2 z m -864.75,-3.74507 c 5.0875,-0.18149 13.4125,-0.18149 18.5,0 5.0875,0.18149 0.925,0.32999 -9.25,0.32999 -10.175,0 -14.3375,-0.1485 -9.25,-0.32999 z m 844.7248,-14.97904 7.48138,-0.35923 0.30684,-18.70833 0.30685,-18.70833 -0.0349,19 -0.0349,19 -7.75328,0.0676 -7.75329,0.0676 7.48137,-0.35924 z M 811.20929,94.75 c 0.20886,-27.194525 0.5485,-24.073732 1.03401,9.50124 0.14119,9.76318 -0.0808,17.75068 -0.4933,17.75 -0.4125,-6.8e-4 -0.65582,-12.26374 -0.54071,-27.25124 z M 597.39739,106 c 0,-7.975 0.1553,-11.2375 0.34512,-7.25 0.18981,3.9875 0.18981,10.5125 0,14.5 -0.18982,3.9875 -0.34512,0.725 -0.34512,-7.25 z M 228.42476,87 c 0,-11.825 0.14466,-16.6625 0.32145,-10.75 0.1768,5.9125 0.1768,15.5875 0,21.5 -0.17679,5.9125 -0.32145,1.075 -0.32145,-10.75 z m 633.9606,-7 c 0,-6.875 0.15977,-9.6875 0.35504,-6.25 0.19527,3.4375 0.19527,9.0625 0,12.5 -0.19527,3.4375 -0.35504,0.625 -0.35504,-6.25 z m 63,0 c 0,-6.875 0.15977,-9.6875 0.35504,-6.25 0.19527,3.4375 0.19527,9.0625 0,12.5 -0.19527,3.4375 -0.35504,0.625 -0.35504,-6.25 z M 500.87244,84.25 C 499.62857,82.663944 499.66394,82.628574 501.25,83.872445 502.91575,85.178814 503.44548,86 502.62244,86 c -0.20765,0 -0.99515,-0.7875 -1.75,-1.75 z M 448.5,71 c 0.99549,-1.1 2.03498,-2 2.30998,-2 0.275,0 -0.31449,0.9 -1.30998,2 -0.99549,1.1 -2.03498,2 -2.30998,2 -0.275,0 0.31449,-0.9 1.30998,-2 z"
       id="path5289"
       inkscape:connector-curvature="0" />
    <path
       style="fill:#000000"
       d="m 371.46533,144 c 0,-28.875 0.12777,-40.6875 0.28394,-26.25 0.15616,14.4375 0.15616,38.0625 0,52.5 -0.15617,14.4375 -0.28394,2.625 -0.28394,-26.25 z m 19,0 c 0,-28.875 0.12777,-40.6875 0.28394,-26.25 0.15616,14.4375 0.15616,38.0625 0,52.5 -0.15617,14.4375 -0.28394,2.625 -0.28394,-26.25 z m 26.00597,-12 c 0,-35.475 0.1252,-49.9875 0.27821,-32.25 0.15301,17.7375 0.15301,46.7625 0,64.5 -0.15301,17.7375 -0.27821,3.225 -0.27821,-32.25 z m 259.99372,12.5 c 1.7e-4,-28.6 0.12814,-40.15594 0.28439,-25.67987 0.15624,14.47608 0.1561,37.87608 -3.1e-4,52 C 676.59269,184.94406 676.46485,173.1 676.46502,144.5 Z M 702.4713,132 c 0,-35.475 0.1252,-49.9875 0.27821,-32.25 0.15301,17.7375 0.15301,46.7625 0,64.5 -0.15301,17.7375 -0.27821,3.225 -0.27821,-32.25 z m 232,0 c 0,-35.475 0.1252,-49.9875 0.27821,-32.25 0.15301,17.7375 0.15301,46.7625 0,64.5 -0.15301,17.7375 -0.27821,3.225 -0.27821,-32.25 z m 25.95346,43 c 0,-11.825 0.14466,-16.6625 0.32145,-10.75 0.1768,5.9125 0.1768,15.5875 0,21.5 -0.17679,5.9125 -0.32145,1.075 -0.32145,-10.75 z M 493,187.68709 c 0,-0.1721 1.4625,-1.6346 3.25,-3.25 l 3.25,-2.93709 -2.93709,3.25 C 493.82513,187.77946 493,188.45965 493,187.68709 Z M 619,181.5 c 1.86578,-1.925 3.61733,-3.5 3.89233,-3.5 0.275,0 -1.02655,1.575 -2.89233,3.5 -1.86578,1.925 -3.61733,3.5 -3.89233,3.5 -0.275,0 1.02655,-1.575 2.89233,-3.5 z m 398.4371,0.25 -2.9371,-3.25 3.25,2.93709 c 1.7875,1.6154 3.25,3.0779 3.25,3.25 0,0.77256 -0.8251,0.0924 -3.5629,-2.93709 z M 811.3605,172 c 0,-5.225 0.16854,-7.3625 0.37454,-4.75 0.206,2.6125 0.206,6.8875 0,9.5 -0.206,2.6125 -0.37454,0.475 -0.37454,-4.75 z m -258.91629,-5.5 0.0558,-11 13.25,-0.27903 13.25,-0.27902 0,8.4915 0,8.4915 9.25,0.35038 9.25,0.35038 -9.5,-0.0628 -9.5,-0.0629 -0.29044,-8.25 -0.29044,-8.25 -12.42573,0 -12.42573,0 -0.33962,10.75 -0.33962,10.75 0.0558,-11 z M 463.25,172.26496 c 2.6125,-0.206 6.8875,-0.206 9.5,0 2.6125,0.206 0.475,0.37454 -4.75,0.37454 -5.225,0 -7.3625,-0.16854 -4.75,-0.37454 z m 289,-0.008 c 4.2625,-0.18745 11.2375,-0.18745 15.5,0 4.2625,0.18745 0.775,0.34082 -7.75,0.34082 -8.525,0 -12.0125,-0.15337 -7.75,-0.34082 z m 292,0.008 c 2.6125,-0.206 6.8875,-0.206 9.5,0 2.6125,0.206 0.475,0.37454 -4.75,0.37454 -5.225,0 -7.3625,-0.16854 -4.75,-0.37454 z M 287.28601,146.5 c 0.008,-2.75 0.20172,-3.75631 0.43157,-2.23625 0.22986,1.52006 0.22371,3.77006 -0.0136,5 -0.23736,1.22994 -0.42542,-0.0137 -0.41792,-2.76375 z M 991,145.68709 c 0,-0.1721 1.4625,-1.6346 3.25,-3.25 l 3.25,-2.93709 -2.93709,3.25 C 991.82513,145.77946 991,146.45965 991,145.68709 Z M 70.5,124 c 3.820499,-3.85 7.171361,-7 7.446361,-7 0.275,0 -2.625862,3.15 -6.446361,7 -3.820499,3.85 -7.171361,7 -7.446361,7 -0.275,0 2.625862,-3.15 6.446361,-7 z m 889.91683,-13.5 c 9.6e-4,-10.45 0.14915,-14.589126 0.3293,-9.19806 0.18015,5.39107 0.17936,13.94107 -0.002,19 -0.18111,5.05893 -0.32851,0.64806 -0.32755,-9.80194 z M 552.37817,98 c 0,-6.325 0.16237,-8.9125 0.36082,-5.75 0.19845,3.1625 0.19845,8.3375 0,11.5 -0.19845,3.1625 -0.36082,0.575 -0.36082,-5.75 z m 25.97124,3 c 0,-4.675 0.17226,-6.5875 0.3828,-4.25 0.21053,2.3375 0.21053,6.1625 0,8.5 -0.21054,2.3375 -0.3828,0.425 -0.3828,-4.25 z M 102.5,92 c 6.03124,-6.05 11.19089,-11 11.46589,-11 0.275,0 -4.43465,4.95 -10.46589,11 -6.03124,6.05 -11.190892,11 -11.465892,11 -0.275,0 4.434652,-4.95 10.465892,-11 z M 651,79.622445 c 0,-0.207656 0.7875,-0.995156 1.75,-1.75 1.58606,-1.243871 1.62143,-1.208501 0.37756,0.377555 C 651.82119,79.915748 651,80.445479 651,79.622445 Z M 441,78.687091 c 0,-0.1721 1.4625,-1.6346 3.25,-3.25 L 447.5,72.5 444.56291,75.75 C 441.82513,78.779455 441,79.459652 441,78.687091 Z M 567,72.5 c 1.86578,-1.925 3.61733,-3.5 3.89233,-3.5 0.275,0 -1.02655,1.575 -2.89233,3.5 -1.86578,1.925 -3.61733,3.5 -3.89233,3.5 -0.275,0 1.02655,-1.575 2.89233,-3.5 z m 502.4371,0.25 -2.9371,-3.25 3.25,2.937091 c 3.0295,2.737781 3.7097,3.562909 2.9371,3.562909 -0.1721,0 -1.6346,-1.4625 -3.25,-3.25 z m -464.56466,-3.5 c -1.24387,-1.586056 -1.2085,-1.621426 0.37756,-0.377555 0.9625,0.754844 1.75,1.542344 1.75,1.75 0,0.823034 -0.82119,0.293303 -2.12756,-1.372445 z"
       id="path5287"
       inkscape:connector-curvature="0" />
    <path
       style="fill:#000000"
       d="M 96.685466,251.24543 79.870931,241.5 l 17.62904,-0.27334 c 9.695969,-0.15033 25.239339,-0.15033 34.540819,0 L 148.95257,241.5 132.29149,251 c -9.1636,5.225 -17.14043,9.61045 -17.72629,9.74543 -0.58586,0.13499 -8.63174,-4.14001 -17.879734,-9.5 z M 33.555702,177.85322 C 18.900503,152.47249 7.0426618,131.10622 7.2049431,130.37262 7.3672244,129.63902 19.425,108.33797 34,83.03696 l 26.5,-46.001844 53.90219,0.232442 53.90219,0.232442 15.62142,27 c 8.59179,14.85 20.72585,35.8724 26.9646,46.71644 l 11.34317,19.71645 -26.85905,46.53355 L 168.51548,224 114.3585,224 60.201518,224 33.555702,177.85322 Z M 159.0068,86.506805 114.51922,42.010793 102.75961,53.739765 91,65.468736 91,84.234368 C 91,94.555466 91.330459,103 91.734353,103 c 0.403894,0 5.697256,-4.948825 11.763027,-10.997388 L 114.52606,81.005224 132.50261,99.002612 150.47916,117 132.23958,117 114,117 l 0,14 0,14 18.23958,0 18.23958,0 -17.97686,17.9977 -17.97687,17.9977 L 102.76271,169.26333 91,157.53126 l 0,19.46935 0,19.46935 11.74148,11.77215 11.74147,11.77214 44.50572,-44.50571 44.50572,-44.50572 L 159.0068,86.506805 Z M 71.299121,137.79757 64.553639,131 71.27682,124.2249 78,117.44981 78,97.977285 78,78.504762 51.754797,104.74996 25.509594,130.99517 51.504797,157.00624 77.5,183.01731 l 0.272302,-19.21109 0.272301,-19.21108 -6.745482,-6.79757 z m 123.139189,74.87635 c 1.33839,-2.29566 9.4373,-16.31479 17.99757,-31.15363 L 228,154.54058 l -0.0306,20.97971 -0.0306,20.97971 -17.96698,10.17392 -17.96699,10.17392 2.43345,-4.17392 z M 17.25,205.83412 0,195.84884 0,174.75776 C 0,163.15766 0.16200217,153.85417 0.36000482,154.08333 0.62305471,154.38779 23.112563,193.32615 35.687842,215.25 36.609103,216.85613 33.908309,215.47689 17.25,205.83412 Z M 261,132 l 0,-64 13,0 13,0 0.04,27.75 c 0.0338,23.40088 0.24376,27.35819 1.33994,25.25 0.71495,-1.375 5.53017,-13.8625 10.7005,-27.75 l 9.40059,-25.25 13.86646,0 c 10.70688,0 13.74666,0.284821 13.34072,1.25 -0.28915,0.6875 -5.95156,13.73442 -12.58313,28.993155 l -12.0574,27.743155 13.47614,34.22176 C 331.93574,179.03004 338,194.79547 338,195.24237 c 0,0.4469 -6.3847,0.68769 -14.18822,0.53509 L 309.62357,195.5 299.08602,168.75 C 293.29038,154.0375 288.20007,142 287.77424,142 287.34841,142 287,154.15 287,169 l 0,27 -13,0 -13,0 0,-64 z m 84,0 0,-64 35.5,0 35.5,0 0,64 0,64 -12.5,0 -12.5,0 0,-52 0,-52 -10,0 -10,0 0,52 0,52 -13,0 -13,0 0,-64 z m 97.3653,54.81578 -9.3653,-9.18422 0,-45.64143 0,-45.641428 9.91823,-9.174351 L 452.83647,68 l 15.85053,0 15.85052,0 9.73124,9.767891 9.73124,9.76789 -0.0268,44.982109 -0.0268,44.98211 -9.88801,9.25 -9.888,9.25 -16.21988,0 -16.21987,0 -9.3653,-9.18422 z M 477.76134,132.25 478.02269,92 468.51134,92 459,92 l 0,40.53753 0,40.53752 9.25,-0.28752 9.25,-0.28753 0.26134,-40.25 z M 562.23025,186.73121 553,177.46242 553,166.73121 553,156 l 12.45956,0 12.45956,0 0.29044,8.25 0.29044,8.25 9.5,0 9.5,0 0.27746,-14.25 0.27745,-14.25 -11.02745,0 -11.02746,0 0,-12 0,-12 11,0 11,0 0,-14.03621 0,-14.036214 -9.75,0.286212 -9.75,0.286212 -0.29044,8.25 -0.29044,8.25 -12.45956,0 -12.45956,0 0,-11.403479 0,-11.403478 9.75,-9.069386 9.75,-9.069386 15.72461,-0.02714 L 603.94921,68 613.97461,77.622614 624,87.245228 l 0,44.729902 0,44.72991 -9.75,9.63439 -9.75,9.6344 -16.51975,0.0131 -16.51975,0.0131 -9.23025,-9.26879 z m 69.76017,7.01879 c -0.005,-1.2375 2.72402,-25.875 6.06509,-54.75 l 6.07468,-52.5 9.68491,-9.200669 9.6849,-9.20067 19.25,-0.04933 L 702,68 l 0,64 0,64 -12.491,0 -12.491,0 -0.259,-51.75 -0.259,-51.75 -3.75,-0.310365 c -2.85689,-0.236448 -3.75,0.05953 -3.75,1.242748 0,2.510141 -8.97313,95.755267 -9.5575,99.317617 l -0.53313,3.25 -13.45468,0 c -13.28351,0 -13.45481,-0.0286 -13.46427,-2.25 z M 719,132 l 0,-64 28,0 28,0 0,12 0,12 -15,0 -15,0 0,12.5 0,12.5 12.5,0 12.5,0 0,11.5 0,11.5 -12.5,0 -12.5,0 0,16.5 0,16.5 15,0 15,0 0,11.5 0,11.5 -28,0 -28,0 0,-64 z m 66,0 0,-64 13,0 13,0 0,27.666667 c 0,15.216663 0.3375,27.335403 0.75,26.930513 0.4125,-0.40488 5.26497,-12.74238 10.78327,-27.416665 L 832.56655,68.5 846.28327,68.22178 C 853.82747,68.06876 860,68.178273 860,68.465144 c 0,0.28687 -5.5771,13.34082 -12.39356,29.008777 l -12.39356,28.487189 10.92006,27.76945 c 6.00603,15.27319 12.23209,31.04382 13.83568,35.04584 l 2.91563,7.2764 -14.534,-0.2764 -14.53399,-0.2764 -10.65813,-27 -10.65813,-27 -0.61441,12 c -0.33793,6.6 -0.67543,18.8625 -0.75,27.25 L 811,196 l -13,0 -13,0 0,-64 z m 96,12 0,-52 -9,0 -9,0 0,-12 0,-12 31,0 31,0 0,12 0,12 -9,0 -9,0 0,52 0,52 -13,0 -13,0 0,-52 z m 54,-12 0,-64 24.05413,0 24.05413,0 9.94587,9.651045 9.94587,9.651045 -5e-4,23.59896 -5e-4,23.59895 -9.68879,9 -9.68879,9 -11.56071,0.5 -11.56071,0.5 -0.26989,21.25 -0.26989,21.25 -12.48011,0 -12.48011,0 0,-64 z m 42,-21 0,-19 -8.5,0 -8.5,0 0,18.33333 c 0,10.08334 0.3,18.63334 0.66667,19 0.36666,0.36667 4.19166,0.66667 8.5,0.66667 l 7.83333,0 0,-19 z m 45.75,75.41389 -9.75,-9.53465 0,-44.78857 0,-44.78858 9.9459,-9.651045 9.9458,-9.651045 15.8042,0.02714 15.8041,0.02714 9.75,9.069386 9.75,9.069386 0,45.673228 0,45.67323 -9.2688,9.23025 -9.2688,9.23025 -16.4812,-0.0257 -16.4812,-0.0257 -9.75,-9.53465 z M 1058,132.5 l 0,-40.5 -9.5,0 -9.5,0 0,39.83333 c 0,21.90834 0.3,40.13334 0.6667,40.5 0.3666,0.36667 4.6416,0.66667 9.5,0.66667 l 8.8333,0 0,-40.5 z m -545,-2 0,-8.5 15.5,0 15.5,0 0,8.5 0,8.5 -15.5,0 -15.5,0 0,-8.5 z M 0.23387911,87.142685 0.5,65.785369 17.814692,55.79071 C 27.337772,50.293647 35.278245,45.954439 35.460187,46.148025 35.642129,46.341611 27.730763,60.45 17.879374,77.5 l -17.91161579,31 0.2661209,-21.357315 z M 224.21112,100.75 c -1.63889,-2.8875 -9.53415,-16.608644 -17.54504,-30.491431 l -14.56524,-25.241432 5.19958,2.997791 c 2.85977,1.648786 10.93551,6.25743 17.9461,10.241432 l 12.74652,7.24364 0.003,20.25 c 0.002,11.1375 -0.17856,20.25 -0.40106,20.25 -0.2225,0 -1.74545,-2.3625 -3.38434,-5.25 z M 96,11 C 105.625,5.5090759 113.88692,1.0127887 114.35983,1.0082508 115.35213,0.99872883 149,20.049354 149,20.620692 c 0,0.208619 -15.8625,0.375595 -35.25,0.371057 L 78.5,20.983498 96,11 Z"
       id="path5285"
       inkscape:connector-curvature="0" />
  </g>
</svg>
