<svg id="Group_7_copy_2" data-name="Group 7 copy 2" xmlns="http://www.w3.org/2000/svg" xmlns:xlink="http://www.w3.org/1999/xlink" width="50" height="51" viewBox="0 0 50 51">
  <metadata><?xpacket begin="﻿" id="W5M0MpCehiHzreSzNTczkc9d"?>
<x:xmpmeta xmlns:x="adobe:ns:meta/" x:xmptk="Adobe XMP Core 5.6-c138 79.159824, 2016/09/14-01:09:01        ">
   <rdf:RDF xmlns:rdf="http://www.w3.org/1999/02/22-rdf-syntax-ns#">
      <rdf:Description rdf:about=""/>
   </rdf:RDF>
</x:xmpmeta>
                                                                                                    
                                                                                                    
                                                                                                    
                                                                                                    
                                                                                                    
                                                                                                    
                                                                                                    
                                                                                                    
                                                                                                    
                                                                                                    
                                                                                                    
                                                                                                    
                                                                                                    
                                                                                                    
                                                                                                    
                                                                                                    
                                                                                                    
                                                                                                    
                                                                                                    
                                                                                                    
                           
<?xpacket end="w"?></metadata>
<defs>
    <style>
      .cls-1 {
        fill: #00a6fb;
        filter: url(#filter);
      }

      .cls-1, .cls-2 {
        fill-rule: evenodd;
      }

      .cls-2 {
        fill: #fff;
      }
    </style>
    <filter id="filter" x="0" y="0" width="50" height="51" filterUnits="userSpaceOnUse">
      <feOffset result="offset" dy="1" in="SourceAlpha"/>
      <feGaussianBlur result="blur"/>
      <feFlood result="flood" flood-color="#016293"/>
      <feComposite result="composite" operator="in" in2="blur"/>
      <feBlend result="blend" in="SourceGraphic"/>
    </filter>
  </defs>
  <g>
    <path id="Rounded_Rectangle_1" data-name="Rounded Rectangle 1" class="cls-1" d="M5,0H50V50H5a5,5,0,0,1-5-5V5A5,5,0,0,1,5,0Z"/>
    <path id="Forma_1" data-name="Forma 1" class="cls-2" d="M35.678,35a2.249,2.249,0,0,0,1.522-.562l-7.366-7.211-0.51.359q-0.827.6-1.342,0.93a8.347,8.347,0,0,1-1.371.681,4.254,4.254,0,0,1-1.6.348H24.986a4.255,4.255,0,0,1-1.6-.348,8.334,8.334,0,0,1-1.371-.681q-0.515-.334-1.342-0.93c-0.154-.11-0.324-0.231-0.508-0.361L12.8,34.437A2.25,2.25,0,0,0,14.322,35H35.678ZM13.466,22.685A7.649,7.649,0,0,1,12,21.449V32.42l6.493-6.355Q16.544,24.733,13.466,22.685Zm23.084,0q-2.965,1.964-5.039,3.382L38,32.42V21.449A7.945,7.945,0,0,1,36.549,22.685ZM35.678,15H14.322a2.092,2.092,0,0,0-1.719.738,2.826,2.826,0,0,0-.6,1.846,3.28,3.28,0,0,0,.8,1.939,7.12,7.12,0,0,0,1.7,1.64q0.493,0.341,2.974,2.024c0.893,0.606,1.669,1.134,2.337,1.589,0.569,0.388,1.06.724,1.464,1l0.217,0.151,0.4,0.282q0.471,0.334.784,0.54t0.755,0.461a4.43,4.43,0,0,0,.834.384,2.354,2.354,0,0,0,.725.128h0.029A2.351,2.351,0,0,0,25.74,27.6a4.436,4.436,0,0,0,.835-0.384q0.443-.256.754-0.461t0.784-.54l0.4-.282,0.217-.151,1.468-1,5.322-3.617a6.83,6.83,0,0,0,1.77-1.747A3.7,3.7,0,0,0,38,17.274a2.157,2.157,0,0,0-.689-1.605A2.269,2.269,0,0,0,35.678,15Z"/>
  </g>
</svg>
