<?xml version="1.0" encoding="UTF-8" standalone="no"?>
<!-- Created with Inkscape (http://www.inkscape.org/) -->

<svg
   xmlns:dc="http://purl.org/dc/elements/1.1/"
   xmlns:cc="http://creativecommons.org/ns#"
   xmlns:rdf="http://www.w3.org/1999/02/22-rdf-syntax-ns#"
   xmlns:svg="http://www.w3.org/2000/svg"
   xmlns="http://www.w3.org/2000/svg"
   xmlns:sodipodi="http://sodipodi.sourceforge.net/DTD/sodipodi-0.dtd"
   xmlns:inkscape="http://www.inkscape.org/namespaces/inkscape"
   version="1.1"
   id="svg10"
   width="403"
   height="411"
   viewBox="0 0 403 411"
   sodipodi:docname="form_button_for_svg.png"
   inkscape:version="0.92.1 r15371">
  <metadata
     id="metadata16">
    <rdf:RDF>
      <cc:Work
         rdf:about="">
        <dc:format>image/svg+xml</dc:format>
        <dc:type
           rdf:resource="http://purl.org/dc/dcmitype/StillImage" />
        <dc:title></dc:title>
      </cc:Work>
    </rdf:RDF>
  </metadata>
  <defs
     id="defs14" />
  <sodipodi:namedview
     pagecolor="#ffffff"
     bordercolor="#666666"
     borderopacity="1"
     objecttolerance="10"
     gridtolerance="10"
     guidetolerance="10"
     inkscape:pageopacity="0"
     inkscape:pageshadow="2"
     inkscape:window-width="1600"
     inkscape:window-height="837"
     id="namedview12"
     showgrid="false"
     inkscape:zoom="1.6253041"
     inkscape:cx="201.5"
     inkscape:cy="180.88922"
     inkscape:window-x="-8"
     inkscape:window-y="-8"
     inkscape:window-maximized="1"
     inkscape:current-layer="svg10" />
  <g
     id="g35">
    <path
       id="rect26"
       d="M 50.109375 -36.746094 L 50.109375 395.00391 L 338.74219 395.00391 L 338.74219 -36.746094 L 50.109375 -36.746094 z "
       style="fill:#ffffff;stroke-width:1.10615134" />
    <path
       inkscape:connector-curvature="0"
       id="path20"
       d="M 27.313203,405.13539 C 16.708023,397.92218 8.4814534,390.26663 4.0540634,383.4907 L 3.3532934e-6,377.28614 V 205.00284 32.719533 L 3.6192534,25.532646 C 8.5439034,15.753597 17.504103,6.8874843 27.118973,2.2796823 l 7.3246,-3.510221 h 184.278217 184.2782 v 205.4999987 205.5 H 218.56321 34.126413 Z M 276.49999,320.76946 v -45.5 l -13.92285,-0.27934 c -10.46753,-0.21002 -14.12432,0.0381 -14.73468,1 -0.44652,0.70363 -0.81874,8.81986 -0.82716,18.03605 L 247,310.78288 l -70.74999,-0.25671 -70.75,-0.25671 v -119 -118.999999 h 70.5 H 246.5 l 0.53798,29.499999 c 0.2959,16.225 0.6334,29.62486 0.75,29.77746 0.11661,0.1526 6.62452,0.1526 14.46202,0 l 14.25,-0.27746 v -44.499999 -44.5 H 176.00001 75.500009 l -0.25678,160.999999 c -0.141229,88.55 -0.04202,161.56466 0.220461,162.25481 0.379282,0.99725 21.060758,1.20251 100.75678,1 L 276.5,366.26946 Z m -119.0854,22.63803 c -0.28745,-0.74909 -0.38582,-4.01159 -0.21861,-7.25 l 0.30402,-5.88803 17.99581,-0.27408 C 195.8983,329.68466 196,329.72128 196,337.3788 c 0,7.74458 0.94044,7.39066 -19.63837,7.39066 -14.62488,0 -18.53218,-0.28087 -18.94704,-1.36197 z m 169.64338,-83.17386 c 0.57148,-0.3532 0.94202,-22.93745 0.94202,-57.4162 0,-50.90268 -0.16508,-56.89734 -1.58179,-57.44098 -2.06706,-0.79321 -161.76935,-0.79321 -163.83641,0 -1.41693,0.54372 -1.58179,6.58111 -1.58179,57.92667 0,52.88888 0.12988,57.34468 1.68026,57.64302 3.01929,0.58098 163.40968,-0.11424 164.37771,-0.71251 z M 176.97978,235.73169 c -1.80864,-3.37948 -0.2997,-5.42027 7.28378,-9.85108 3.98004,-2.32542 13.9574,-8.13924 22.17191,-12.9196 8.21452,-4.78035 15.09201,-9.18654 15.28333,-9.79153 0.19132,-0.605 -8.55464,-6.1745 -19.43547,-12.37669 C 179.75675,177.95241 176,175.39117 176,172.87356 c 0,-2.46915 3.53833,-5.45809 5.77034,-4.87441 1.00986,0.26409 15.2403,8.19544 31.62321,17.62523 16.38291,9.42979 30.26746,17.14508 30.85455,17.14508 0.58709,0 13.93394,-7.38818 29.65966,-16.41817 34.23987,-19.66114 33.17767,-19.14166 36.02414,-17.61827 1.65869,0.8877 2.11062,1.9164 1.87649,4.27133 -0.28835,2.90038 -1.62782,3.86566 -20.60787,14.85096 -27.46751,15.89769 -25.99235,14.86133 -23.6239,16.59666 1.05786,0.77508 10.24837,6.18445 20.42337,12.02084 10.175,5.83638 19.7375,11.47138 21.25,12.52222 4.48509,3.11611 3.21105,8.77443 -1.97568,8.77443 -1.27912,0 -13.22662,-6.2991 -26.55,-13.99801 -13.32337,-7.6989 -25.00094,-13.9989 -25.95015,-14 -0.94921,-10e-4 -3.19921,0.89633 -5,1.99427 -4.1092,2.50538 -5.86934,2.50599 -10.77416,0.004 -2.15618,-1.1 -4.60631,-2 -5.44474,-2 -0.83843,0 -12.48427,6.3 -25.87964,14 -14.36792,8.25904 -25.43166,14 -26.98024,14 -1.61778,0 -3.04348,-0.78191 -3.7156,-2.03777 z"
       style="fill:#439cda" />
    <path
       inkscape:connector-curvature="0"
       id="path22"
       d="m 161.83038,257.44968 c -0.57862,-4.82175 -0.10533,-111.06959 0.49746,-111.67209 0.282,-0.28186 37.16125,-0.51247 81.95389,-0.51247 66.01945,0 81.59264,0.15152 82.24102,0.80016 0.64462,0.64486 0.79985,11.71055 0.79985,57.01515 0,30.91825 -0.23065,56.44564 -0.51256,56.72753 -0.2819,0.2819 -37.42904,0.60503 -82.54919,0.71807 l -82.03663,0.20552 z m 25.68453,-22.43372 c 3.12343,-1.56596 12.18543,-6.50413 20.13778,-10.97371 20.64301,-11.60229 24.90566,-13.8662 26.10824,-13.8662 0.58575,0 2.95748,0.83061 5.27051,1.84581 2.31302,1.01519 4.85127,1.84476 5.64055,1.84349 0.78928,-0.001 3.09627,-0.83085 5.12666,-1.84349 2.03039,-1.01265 4.12994,-1.84223 4.66567,-1.8435 1.26313,-0.003 7.45056,3.25607 24.86727,13.09822 19.53569,11.03958 26.466,14.58659 28.49992,14.58659 1.06231,0 2.30533,-0.60026 3.18746,-1.53923 1.26135,-1.34265 1.37327,-1.83127 0.87633,-3.82565 -0.70759,-2.83978 -0.62935,-2.7865 -24.78484,-16.87953 -10.36955,-6.0499 -19.26903,-11.27314 -19.77663,-11.60721 -1.44044,-0.948 0.65109,-2.37154 20.2157,-13.75927 19.54535,-11.37651 23.46838,-14.04832 24.36321,-16.59274 0.76764,-2.18278 -0.55884,-4.75822 -2.8692,-5.57073 -2.04341,-0.71863 -5.77819,1.14486 -29.71195,14.8249 -26.11838,14.92873 -34.01654,19.26383 -35.09695,19.26383 -0.54166,0 -2.14162,-0.65909 -3.55547,-1.46465 -23.624,-13.46009 -56.83723,-32.02929 -58.22538,-32.55325 -1.40603,-0.53072 -2.1644,-0.48914 -3.42973,0.18804 -1.98743,1.06364 -3.56306,3.93535 -3.0486,5.55628 0.56237,1.77187 6.25103,5.55839 23.06346,15.35163 14.44659,8.41514 22.1497,13.24281 22.1497,13.88159 0,0.57405 -10.27819,6.95105 -25.67861,15.93204 -8.53967,4.98003 -16.36128,9.83425 -17.38136,10.78715 -2.22117,2.07489 -2.483,4.91742 -0.62416,6.77626 1.83422,1.83422 3.7419,1.52614 10.01042,-1.61667 z"
       style="fill:#ffffff;stroke-width:0.61526948" />
    <path
       inkscape:connector-curvature="0"
       id="path24"
       d="m 83.589029,365.99542 c -7.119187,-0.18393 -7.487305,-0.25716 -7.836284,-1.55896 -0.502214,-1.87339 -0.480682,-246.98804 0.02532,-288.287889 l 0.408309,-33.325817 h 99.880616 99.88061 v 43.906065 43.906071 l -3.23016,0.38798 c -1.77659,0.2134 -7.98923,0.3904 -13.80587,0.39334 l -10.57569,0.006 -0.34678,-2.6149 c -0.19073,-1.43819 -0.55378,-14.79723 -0.80678,-29.686749 L 246.72231,72.048054 176.12013,71.891641 105.51796,71.735228 V 190.99873 310.26224 l 53.067,0.40861 c 29.18684,0.22473 60.98306,0.40878 70.65825,0.409 l 17.59127,3.9e-4 0.37748,-16.97708 c 0.25627,-11.52663 0.60813,-17.25501 1.09596,-17.84281 0.57752,-0.69586 3.35974,-0.86574 14.17909,-0.86574 h 13.46059 v 45.12149 45.12149 l -36.09462,0.40845 C 205.39283,366.436 99.311463,366.40163 83.589029,365.9954 Z m 110.239861,-21.96687 2.13368,-0.89151 v -5.55463 c 0,-5.21049 -0.0931,-5.61562 -1.50215,-6.53889 -2.08026,-1.36304 -10.35693,-1.76472 -25.02473,-1.21447 l -12.06804,0.45272 -0.32808,4.78655 c -0.43709,6.37694 0.083,8.7641 2.02738,9.30607 0.83469,0.23265 8.51752,0.45061 17.07295,0.48434 12.29947,0.0485 16.00191,-0.12527 17.68899,-0.83018 z"
       style="fill:#ffffff;stroke-width:0.61526948" />
  </g>
</svg>
