<svg id="Футер" xmlns="http://www.w3.org/2000/svg" width="31" height="31" viewBox="0 0 31 31">
  <metadata><?xpacket begin="﻿" id="W5M0MpCehiHzreSzNTczkc9d"?>
<x:xmpmeta xmlns:x="adobe:ns:meta/" x:xmptk="Adobe XMP Core 5.6-c138 79.159824, 2016/09/14-01:09:01        ">
   <rdf:RDF xmlns:rdf="http://www.w3.org/1999/02/22-rdf-syntax-ns#">
      <rdf:Description rdf:about=""/>
   </rdf:RDF>
</x:xmpmeta>
                                                                                                    
                                                                                                    
                                                                                                    
                                                                                                    
                                                                                                    
                                                                                                    
                                                                                                    
                                                                                                    
                                                                                                    
                                                                                                    
                                                                                                    
                                                                                                    
                                                                                                    
                                                                                                    
                                                                                                    
                                                                                                    
                                                                                                    
                                                                                                    
                                                                                                    
                                                                                                    
                           
<?xpacket end="w"?></metadata>
<defs>
    <style>
      .cls-1 {
        fill: #d6d5d5;
        fill-rule: evenodd;
      }
    </style>
  </defs>
  <g id="Иконки_соц_сетей" data-name="Иконки соц сетей">
    <path class="cls-1" d="M24.132,15.2A9.07,9.07,0,1,1,6.163,13.456h-6.1V25.511A4.687,4.687,0,0,0,4.751,30.2H25.374a4.688,4.688,0,0,0,4.688-4.689V13.456h-6.1A9.12,9.12,0,0,1,24.132,15.2Zm1.242-15H4.751A4.689,4.689,0,0,0,.062,4.888V9.967H7.657a9.067,9.067,0,0,1,14.811,0h7.594V4.888A4.689,4.689,0,0,0,25.374.2Zm2.293,5.791a0.839,0.839,0,0,1-.837.838h-2.51a0.84,0.84,0,0,1-.837-0.838V3.479a0.84,0.84,0,0,1,.837-0.838h2.51a0.838,0.838,0,0,1,.837.838V5.991ZM20.644,15.2a5.582,5.582,0,1,0-5.581,5.581A5.581,5.581,0,0,0,20.644,15.2Z"/>
  </g>
</svg>
