<svg id="Футер" xmlns="http://www.w3.org/2000/svg" width="31" height="31" viewBox="0 0 31 31">
  <metadata><?xpacket begin="﻿" id="W5M0MpCehiHzreSzNTczkc9d"?>
<x:xmpmeta xmlns:x="adobe:ns:meta/" x:xmptk="Adobe XMP Core 5.6-c138 79.159824, 2016/09/14-01:09:01        ">
   <rdf:RDF xmlns:rdf="http://www.w3.org/1999/02/22-rdf-syntax-ns#">
      <rdf:Description rdf:about=""/>
   </rdf:RDF>
</x:xmpmeta>
                                                                                                    
                                                                                                    
                                                                                                    
                                                                                                    
                                                                                                    
                                                                                                    
                                                                                                    
                                                                                                    
                                                                                                    
                                                                                                    
                                                                                                    
                                                                                                    
                                                                                                    
                                                                                                    
                                                                                                    
                                                                                                    
                                                                                                    
                                                                                                    
                                                                                                    
                                                                                                    
                           
<?xpacket end="w"?></metadata>
<defs>
    <style>
      .cls-1 {
        fill: #d6d5d5;
        fill-rule: evenodd;
      }
    </style>
  </defs>
  <g id="Иконки_соц_сетей" data-name="Иконки соц сетей">
    <path id="Forma_1" data-name="Forma 1" class="cls-1" d="M17.417,16.734a3.477,3.477,0,0,0-1.693-.28H13.941v3.675h1.637a3.368,3.368,0,0,0,1.9-.323,1.907,1.907,0,0,0,.751-1.56A1.873,1.873,0,0,0,17.417,16.734ZM16.744,13.6a1.709,1.709,0,0,0,.6-1.337,1.547,1.547,0,0,0-.709-1.336,4.386,4.386,0,0,0-1.922-.215H13.941V13.94h1.028A2.824,2.824,0,0,0,16.744,13.6ZM25.527,0.2H6.073A5.273,5.273,0,0,0,.8,5.473V24.926A5.274,5.274,0,0,0,6.073,30.2H25.527A5.274,5.274,0,0,0,30.8,24.926V5.473A5.274,5.274,0,0,0,25.527.2ZM16.614,22.867H10.485V8.075h6.7a3.467,3.467,0,0,1,3.729,3.412,3.147,3.147,0,0,1-2.136,3.191v0.043a3.366,3.366,0,0,1,3.044,3.658C21.818,20.533,20.352,22.867,16.614,22.867Z"/>
  </g>
</svg>
