<?xml version="1.0" encoding="UTF-8" standalone="no"?>
<!-- Created with Inkscape (http://www.inkscape.org/) -->

<svg
   xmlns:dc="http://purl.org/dc/elements/1.1/"
   xmlns:cc="http://creativecommons.org/ns#"
   xmlns:rdf="http://www.w3.org/1999/02/22-rdf-syntax-ns#"
   xmlns:svg="http://www.w3.org/2000/svg"
   xmlns="http://www.w3.org/2000/svg"
   xmlns:sodipodi="http://sodipodi.sourceforge.net/DTD/sodipodi-0.dtd"
   xmlns:inkscape="http://www.inkscape.org/namespaces/inkscape"
   id="svg4136"
   version="1.1"
   inkscape:version="0.91 r13725"
   width="325"
   height="372"
   viewBox="0 0 325 372"
   sodipodi:docname="write_logo.png">
  <metadata
     id="metadata4142">
    <rdf:RDF>
      <cc:Work
         rdf:about="">
        <dc:format>image/svg+xml</dc:format>
        <dc:type
           rdf:resource="http://purl.org/dc/dcmitype/StillImage" />
        <dc:title></dc:title>
      </cc:Work>
    </rdf:RDF>
  </metadata>
  <defs
     id="defs4140" />
  <sodipodi:namedview
     pagecolor="#ffffff"
     bordercolor="#666666"
     borderopacity="1"
     objecttolerance="10"
     gridtolerance="10"
     guidetolerance="10"
     inkscape:pageopacity="0"
     inkscape:pageshadow="2"
     inkscape:window-width="1600"
     inkscape:window-height="837"
     id="namedview4138"
     showgrid="false"
     inkscape:zoom="1.7956989"
     inkscape:cx="162.5"
     inkscape:cy="186"
     inkscape:window-x="-8"
     inkscape:window-y="-8"
     inkscape:window-maximized="1"
     inkscape:current-layer="svg4136" />
  <path
     style="fill:#000000"
     d="m 137.89892,356.24761 c -13.04316,-7.49861 -23.73066,-13.97133 -23.75,-14.38383 -0.0193,-0.4125 22.01485,-0.75 48.96485,-0.75 26.95,0 49,0.36651 49,0.81448 0,0.44796 -1.6875,1.72868 -3.75,2.84603 -2.0625,1.11736 -5.325,2.95082 -7.25,4.07436 -19.90801,11.61942 -37.34047,21.24335 -38.30853,21.14896 -0.65531,-0.0639 -11.86315,-6.25139 -24.90632,-13.75 z M 85.74425,315.86378 c -0.7786,-1.2375 -8.27313,-14.175 -16.65451,-28.75 -19.043468,-33.11609 -17.352454,-30.18225 -25.937244,-45 -3.983092,-6.875 -12.851162,-22.25113 -19.706824,-34.16918 L 10.980833,186.27542 16.891235,175.9446 C 28.315984,155.97522 81.640075,63.630638 85.07664,57.863778 l 2.23469,-3.75 75.88703,0 75.88703,0 2.43423,3.75 c 1.33882,2.0625 12.52857,21.3 24.8661,42.750002 12.33754,21.45 28.34852,49.23233 35.57997,61.73852 7.23144,12.50618 13.14808,23.21192 13.14808,23.79053 0,0.79484 -36.84555,65.41055 -55.37377,97.1085 -1.16942,2.00065 -6.17493,10.66315 -11.12333,19.25 l -8.99711,15.61245 -76.22984,0 -76.22984,0 -1.41563,-2.25 z M 225.45918,248.5143 c 33.63502,-33.87971 61.26743,-61.89323 61.40535,-62.25227 0.13791,-0.35903 -27.64763,-28.54845 -61.74565,-62.64314 l -61.99641,-61.990362 -16.00435,15.9809 -16.00435,15.9809 0,26.261732 c 0,14.44395 0.34313,26.26172 0.7625,26.26172 0.41938,0 7.50125,-6.75 15.7375,-15 8.23625,-8.25 15.42731,-15 15.98014,-15 1.14357,0 50.51986,49.08843 50.51986,50.22533 0,0.40718 -11.3625,0.86055 -25.25,1.0075 l -25.25,0.26717 0,18.5 0,18.5 25.25,0.26717 c 13.8875,0.14695 25.25,0.60025 25.25,1.00735 0,0.40711 -11.48836,12.21188 -25.5297,26.23283 l -25.52969,25.49265 -15.5975,-15.75 c -8.57862,-8.6625 -15.76525,-15.75 -15.9703,-15.75 -0.20505,0 -0.37281,11.80738 -0.37281,26.23863 l 0,26.23863 15.73828,15.76137 c 8.65605,8.66875 16.12398,15.76137 16.5954,15.76137 0.47142,0 28.3767,-27.71976 62.01173,-61.59948 z m -113.34541,-16.29626 0,-25.89573 -9.5,-9.73449 c -5.225,-5.35396 -9.5,-10.02227 -9.5,-10.37401 0,-0.35174 4.275,-4.89676 9.5,-10.10003 l 9.5,-9.4605 0,-26.26975 c 0,-14.44836 -0.33984,-26.26975 -0.75521,-26.26975 -0.41536,0 -16.95052,16.2 -36.744787,36 l -35.989583,36 35.989583,36 c 19.794267,19.8 36.329427,36 36.744787,36 0.41537,0 0.75521,-11.65308 0.75521,-25.89574 z m -62.354078,73.42759 c -1.019745,-0.7725 -12.378905,-7.39569 -25.242577,-14.7182 l -23.3884956,-13.31365 -0.0074,-29.25 c -0.006,-23.51976 0.250393,-29.25 1.308603,-29.25 0.723814,0 10.0360486,15.1875 20.6938536,33.75 10.657806,18.5625 21.990594,38.14813 25.183974,43.52363 3.19338,5.37549 5.806146,9.98799 5.806146,10.25 0,0.95667 -2.54822,0.37623 -4.354081,-0.99178 z m 224.792738,-2.78185 c 1.4036,-2.3375 12.79161,-22.11903 25.30668,-43.95894 12.51506,-21.83992 23.09886,-39.72742 23.51954,-39.75 0.42068,-0.0226 0.64568,13.34644 0.5,29.70894 l -0.26488,29.75 -24.5,14.16372 c -13.475,7.79005 -25.08801,14.20255 -25.80668,14.25 -0.85873,0.0567 -0.43181,-1.37068 1.24534,-4.16372 z M 1.3487554,124.49234 1.6137724,94.694208 27.511005,79.884558 c 14.243477,-8.14531 26.071102,-14.63578 26.283611,-14.42328 0.298895,0.2989 -18.541571,33.51777 -34.68334,61.152502 -0.963785,1.65 -4.844999,8.36257 -8.624919,14.91682 -3.7799216,6.55425 -7.4418416,12.1065 -8.1376016,12.33834 -1.005059,0.3349 -1.210556,-5.7019 -1,-29.3766 z m 307.9636646,5.35185 c -7.31575,-12.77673 -18.64031,-32.455412 -25.1657,-43.730412 -6.52539,-11.275 -11.70276,-20.66202 -11.50528,-20.86004 0.19748,-0.19801 11.74705,6.1544 25.6657,14.11649 l 25.30663,14.47652 0.26488,29.633522 c 0.14568,16.29843 -0.0793,29.62469 -0.5,29.61392 -0.42068,-0.0108 -6.75049,-10.47328 -14.06623,-23.25 z M 114.66377,30.182487 c 0.5225,-0.512207 11.29382,-6.845183 23.93627,-14.07328 12.64245,-7.2280978 23.30248,-13.6536258 23.68895,-14.2789518 0.49799,-0.805766 1.23023,-0.665885 2.51373,0.480206 1.67652,1.497037 28.31599,17.0001098 41.55805,24.1850688 3.16085,1.715033 5.74835,3.455743 5.75,3.868243 0.002,0.4125 -22.137,0.75 -49.197,0.75 -30.39327,0 -48.83686,-0.355985 -48.25,-0.931286 z"
     id="path4146"
     inkscape:connector-curvature="0" />
</svg>
