<svg xmlns="http://www.w3.org/2000/svg" viewBox="0 0 32 33" id="telegram" width="100%" height="100%"><ellipse fill="#ececec" cx="16" cy="16.5" rx="16" ry="16.5"></ellipse><path fill="#000" d="M15.8 21.2c-.7.7-1.3 1.4-2 1.9-.2.2-.5.4-.8.4-.2 0-.4-.1-.4-.3l-1.5-4.8c-.1-.2-.1-.2-.3-.3l-3.6-1.2c-.2-.1-.4-.1-.6-.3-.3-.2-.3-.5-.1-.7.2-.2.5-.4.7-.5 1.4-.6 2.9-1.2 4.3-1.7 3.7-1.5 7.3-2.9 11-4.4.7-.3 1.2.1 1.1.9 0 .5-.2 1-.3 1.5-.8 3.9-1.6 7.8-2.4 11.6-.2.9-.8 1.2-1.6.6-1-.9-2.3-1.8-3.5-2.7.2.1.1 0 0 0zm-2.7 1.1c.1 0 .1-.1 0 0 .2-1 .3-1.8.3-2.7 0-.2.1-.3.2-.5C14.7 18 15.9 17 17 16c1.2-1.2 2.5-2.3 3.8-3.5.1-.1.1-.2.2-.3-.1 0-.3-.1-.4 0-.2 0-.3.1-.4.2-2.7 1.7-5.6 3.5-8.3 5.2-.2.1-.2.2-.1.4l.6 1.8c.2.9.4 1.7.7 2.5z"></path></svg>