<svg xmlns="http://www.w3.org/2000/svg" viewBox="0 0 32 33" id="whatsapp" width="100%" height="100%"><path fill="#ececec" d="M13.5.2C6.8 1.3 1.4 6.8.2 13.7c-.7 4.1.1 8 2.2 11.4.1.2.1.4.1.6L.8 30.4c-.5 1.2.7 2.3 1.8 1.9l4.7-1.7c.2-.1.4 0 .6.1 3.9 2.4 8.8 3.1 13.4 1.5 5.4-1.8 9.4-6.6 10.4-12.3C33.8 8.3 24.5-1.5 13.5.2z"></path><path fill="#000" d="M24.5 21c-.5-.6-2.2-2.5-3-3l-.7-.2h-.2c-.9 0-1.8.7-2.5 1.4-.7-.3-1.6-.8-2.4-1.6-.9-1-1.6-1.7-2-2.2.9-1 2.1-2.5 1.4-3.8-.4-.8-2.2-2.4-2.9-3l-.3-.2h-.4c-1.7 0-4 2.5-4 4.8s2.5 6.5 4.3 8.2c2 2 5.9 4.5 8 4.5 2.3 0 4.7-2.4 4.7-4.2V21zm-13-10.8c1 1 2 1.9 2.1 2.1 0 .2-.6 1.3-1.6 2.1l-.4.5.2.6c.2.8 2.7 3.4 2.7 3.4 1.6 1.6 3.5 2.2 3.8 2.3l.6.2.4-.4c.6-.6 1.2-1.1 1.5-1.2h.2c.4.3 1.3 1.3 2.1 2.1-.3.8-1.8 2-2.8 2-1.4 0-5-2-6.8-3.9-1.4-1.5-3.8-5.2-3.8-7-.2-1 1.1-2.4 1.8-2.8z"></path></svg>