<svg id="Товар" xmlns="http://www.w3.org/2000/svg" width="45" height="45" viewBox="0 0 45 45">
  <metadata><?xpacket begin="﻿" id="W5M0MpCehiHzreSzNTczkc9d"?>
<x:xmpmeta xmlns:x="adobe:ns:meta/" x:xmptk="Adobe XMP Core 5.6-c138 79.159824, 2016/09/14-01:09:01        ">
   <rdf:RDF xmlns:rdf="http://www.w3.org/1999/02/22-rdf-syntax-ns#">
      <rdf:Description rdf:about=""/>
   </rdf:RDF>
</x:xmpmeta>
                                                                                                    
                                                                                                    
                                                                                                    
                                                                                                    
                                                                                                    
                                                                                                    
                                                                                                    
                                                                                                    
                                                                                                    
                                                                                                    
                                                                                                    
                                                                                                    
                                                                                                    
                                                                                                    
                                                                                                    
                                                                                                    
                                                                                                    
                                                                                                    
                                                                                                    
                                                                                                    
                           
<?xpacket end="w"?></metadata>
<defs>
    <style>
      .cls-1 {
        fill: #00a6fb;
        fill-rule: evenodd;
      }
    </style>
  </defs>
  <path id="Forma_1" data-name="Forma 1" class="cls-1" d="M20.75,14h0a9.271,9.271,0,0,0,.5-2.25v-0.5a3.9,3.9,0,0,0,0-2.5V8.5L21,8.25h0a0.245,0.245,0,0,1-.25.25,10.169,10.169,0,0,0,0,5.5h0Zm-7.5,17.25A5.473,5.473,0,0,0,12,32a12.319,12.319,0,0,0-3.25,4h0c1.5-.25,3-1.75,4.5-4.75h0Zm23-3.75c-0.25-.25-1.25-1-4.75-1H31v0.25A13.419,13.419,0,0,0,35.75,28H36.5V27.75h0A0.245,0.245,0,0,1,36.25,27.5ZM40,0H5A5.015,5.015,0,0,0,0,5V40a5.015,5.015,0,0,0,5,5H40a5.015,5.015,0,0,0,5-5V5A5.015,5.015,0,0,0,40,0ZM37.25,29.5A4.994,4.994,0,0,1,35,30a18.025,18.025,0,0,1-7.5-1.75c-4.25.5-7.5,1-10,2a0.5,0.5,0,0,0-.5.25c-3,5.25-5.5,7.75-7.5,7.75a1.206,1.206,0,0,1-1-.25l-1.25-.75V37A2.255,2.255,0,0,1,7,35.75c0.25-1.25,1.75-3.5,4.75-5.25,0.5-.25,1.25-0.75,2.25-1.25,0.75-1.25,1.5-2.75,2.5-4.5a52.877,52.877,0,0,0,2.75-7.25h0c-1-3-1.5-4.75-.5-8.25a2.383,2.383,0,0,1,2-2h0.5a3.554,3.554,0,0,1,1.5.5c1.75,1.75,1,5.75,0,9V17a18.058,18.058,0,0,0,4,6.5A17.557,17.557,0,0,0,29,25c1.25,0,2.25-.25,3.25-0.25,3,0,5,.5,5.75,1.75a3.171,3.171,0,0,1,.25,1.5A15.315,15.315,0,0,1,37.25,29.5ZM21,19.75a52.046,52.046,0,0,1-2.5,6c-0.5,1-1,1.75-1.5,2.75h0.5a37.817,37.817,0,0,1,8.25-2.25,3.459,3.459,0,0,1-1-.75A25.424,25.424,0,0,1,21,19.75Z"/>
</svg>
