<svg width="14" height="13" viewBox="0 0 14 13" xmlns="http://www.w3.org/2000/svg"><title>CHECK_GRAY</title><path d="M13.077.464c-.336.352-.511.849-.864 1.217-.16.32-.416.576-.577.912-.095.24-.335.4-.448.641-.095.096-.047.191-.128.304l-.287.272a1.169 1.169 0 0 0-.113.288c-.128.048-.143.224-.288.272-.128.096-.016.272-.192.384-.176.128-.209.368-.352.528-.096.064-.16.177-.24.256-.208.176-.224.433-.401.657-.08.096-.143.208-.256.272-.047.08-.032.176-.064.256-.128.272-.368.4-.479.672a.644.644 0 0 0-.193.224c-.047.033-.064.128-.047.208-.081.193-.225.208-.289.368-.016.049-.08.065-.047.128-.049.113-.193.144-.225.24.016.049-.032.049-.032.08-.064.097-.096.209-.209.241-.095.032-.08.176-.111.256-.08.128-.24.176-.288.336 0 .048-.032.08-.032.128-.24.224-.305.56-.56.752.015.096-.113.16-.128.273-.304.191-.304.543-.561.784-.128.144-.208.32-.271.496-.225.208-.305.448-.546.608-.128.112-.383.048-.511.144-.385.017-.769.032-1.153.017-.576-.017-1.136.031-1.697-.081-.063-.032-.143-.08-.208-.112-.096-.16-.256-.304-.24-.56.016-.112-.016-.24-.096-.305-.015-.159.048-.383-.047-.48 0-.127-.128-.176-.081-.336.128-.288-.16-.32-.064-.608-.031-.128-.144-.271-.16-.416h.016c.048-.192-.048-.304-.032-.512-.112-.112-.063-.352-.16-.48-.016-.176.032-.385-.032-.544C.273 8.148.32 7.923.24 7.827c0-.08-.032-.16 0-.208.033-.224-.128-.336-.145-.544.05-.016.017-.08.017-.128C.08 6.883.032 6.851 0 6.771v-.368c.08-.033.064-.16.16-.16.063-.16.32-.032.448-.113.064.033.144.016.224.081.337 0 .688-.016 1.009.032.24-.048.511-.032.784-.032a.76.76 0 0 1 .273.048l.143.096c.16.176.048.56.192.768-.015.24.033.529.08.784-.047.016-.016.08-.016.128.177.273-.016.705.384.881.193.079.256-.096.369-.161a.36.36 0 0 1 .208-.192c.096-.031.208.08.24-.048-.032-.063-.144-.048-.16-.112-.032-.064 0-.128.016-.159.064-.257.4-.305.4-.545v-.047c.048-.081.08-.161.176-.224.016-.129.112-.177.112-.305.24-.176.288-.576.544-.736.048-.208.257-.4.337-.593.048-.159.239-.159.288-.335v-.193c.239-.16.336-.448.512-.672.144-.176.24-.384.384-.576.144-.096.112-.304.192-.416l.272-.257c.048-.159.176-.272.192-.432.129-.176.257-.352.368-.512.209-.272.288-.608.528-.848.08-.272.4-.48.4-.769a.942.942 0 0 1 .225-.336c.159-.176.32-.352.592-.384.304-.016.688.016 1.009-.032v.016c.223.016.512.032.72-.016.031.032.112 0 .144.032.256 0 .608.096.784-.064.096.032.256-.048.273.064.111.112.319.176.271.4zm-11.236 10.1v.048c.016.064.063.064.096.113h.256c.048-.049 0-.08 0-.129-.049-.112-.272-.064-.352-.032zm.8-1.36c-.096.016-.176.096-.289.032-.08-.016-.208 0-.303 0-.08 0-.033.096-.048.144.015 0 .063-.016.063.032.241-.144.593.128.753-.176-.016-.064-.112-.016-.176-.032zm-.384-.561c-.064.145.095.097.095.177.129.032.21 0 .257-.08 0-.049-.064-.049-.096-.097h-.256zm.848 1.537c-.048.097-.24 0-.304.08.032 0 .032.048.032.064.016 0 .065-.016.065.032.111.032.24.032.368.049.095.047.143-.065.223-.097.033-.031 0-.08.048-.096-.031-.064-.015-.192-.111-.208-.145-.016-.208.144-.321.176zm-.16-1.504c-.032.032-.064.032-.047.095h.079c0-.031.064-.016.032-.063-.032.016-.032-.032-.064-.032zm.288 1.04c-.032-.064-.112-.064-.208-.064-.048.032-.144.048-.112.16.016.064.096.016.112.08.113.033.16-.064.208-.128v-.048zm.048 1.456c-.063.016-.096.049-.096.129.033.08.144.048.209.048.032-.032.112-.081.095-.128-.015-.081-.143-.049-.208-.049zm.433-.223v.079c.031.065.095.016.128.065.111-.016.223.047.351.047 0-.047.065-.031.033-.079-.128 0-.273-.08-.417-.128-.048-.048-.032.048-.095.016zm.416-1.105c-.113.016-.273-.032-.353.016v.128c.032.048.065.016.08.065.096.015.176.031.273.047.143.032.256 0 .336-.08.016-.08-.065-.08-.096-.128-.097.016-.144-.032-.24-.032v-.016zm.368-.721c0 .017.015.049-.032.049-.048.16.08.176.144.24.208.032.336-.064.512-.016.048 0 .112.048.176.096.047.016.08-.016.097-.064-.017-.08-.128-.08-.161-.144l-.192-.016c-.112-.064-.288-.112-.416-.176-.08-.032-.064.048-.128.031zm1.184-1.52v.112c.064-.016.064.032.096.065.08 0 .145 0 .208-.065.016-.063-.063-.063-.032-.112-.031-.016-.063 0-.063-.032-.097-.032-.097.064-.209.032zm.417 1.168l.032.033c.063.016.111-.016.128-.064-.032-.08-.128-.016-.16.031zm.511-1.104c.017 0 .049-.015.049.032.096-.016.224.016.288-.032.048-.096-.08-.096-.112-.128-.097 0-.273-.032-.225.128zm.736-1.04v.032c.017.048.097.032.145.048 0-.048.064-.032.048-.08-.032 0-.065 0-.065-.032-.063-.016-.063.048-.128.032zm.097-1.089h.064-.064zM8.739 3.33a.05.05 0 0 0 0 .095c.048.016.08-.015.097-.047-.032-.033-.049-.065-.097-.048zm1.409-1.057c-.032.096.048.096.08.128h.161c.063-.016.048-.064.048-.128-.017 0-.048 0-.048-.032-.08.016-.193-.016-.241.032z" fill="#97908D" fill-rule="evenodd"/></svg>