<svg width="160" height="130" viewBox="0 0 160 130" xmlns="http://www.w3.org/2000/svg"><title>LOCKER</title><g fill="#554740" fill-rule="evenodd"><path d="M50.411 65.496c-15.809 0-28.624-13.036-28.624-29.114 0-10.9 5.891-20.392 14.606-25.382C23.964 15.209 15 27.128 15 41.183 15 58.755 29.004 73 46.279 73 61.546 73 74.25 61.872 77 47.158c-4.213 10.743-14.526 18.338-26.589 18.338M89.036 96c-.125 0-.25.013-.37.04-.678.146-1.2.672-1.471 1.481-.243.722-.259 1.607-.047 2.488.417 1.733 1.601 2.991 2.817 2.991.124 0 .248-.013.369-.04 1.317-.286 1.985-2.029 1.517-3.97-.418-1.732-1.602-2.99-2.815-2.99zm1.842 3.202c.129.534.148 1.027.092 1.452-.308-.315-.619-.821-.808-1.5-.157-.574-.189-1.15-.095-1.6.34.39.643.952.811 1.648zm-.766 2.836c-.657.138-1.63-.737-1.99-2.24-.172-.71-.163-1.435.024-1.99.156-.47.428-.777.742-.846a.734.734 0 0 1 .148-.015c.058 0 .12.015.183.03-.246.66-.267 1.532-.022 2.419.274.981.808 1.802 1.433 2.238-.145.213-.322.361-.518.404zM146.037 111c-.125 0-.25.013-.371.041-.677.146-1.2.673-1.47 1.482-.243.722-.26 1.605-.048 2.488.418 1.731 1.602 2.989 2.816 2.989.125 0 .25-.013.371-.04.676-.146 1.2-.672 1.47-1.481.243-.722.259-1.605.047-2.488-.418-1.733-1.602-2.991-2.815-2.991zm1.076 6.038c-.648.141-1.63-.735-1.992-2.238-.17-.71-.161-1.435.024-1.991.158-.469.429-.778.744-.845a.622.622 0 0 1 .33.013c-.247.66-.266 1.532-.021 2.419.272.983.808 1.803 1.434 2.24-.146.211-.321.36-.519.402zm.855-1.386c-.307-.316-.617-.82-.804-1.496-.16-.576-.19-1.15-.096-1.6.34.388.643.952.81 1.646.121.498.147 1.001.09 1.45z"/><path d="M150.315 91.412c.655 0 1.52-.312 1.953-1.49l2.511-7.952c.03-.083.71-2.016-.476-3.1l-.003-.419c-.07-1.004-.455-1.815-1.143-2.411-1.332-1.15-3.344-1.076-3.631-1.058-.409-.026-4.336-.239-7.645.277-1.345-1.038-2.967-.97-3-.964l-9.05-.42a5.648 5.648 0 0 0-1.07-1.005l-.103-.073-9.068-.45-5.54-1.467-2.772-6.961c-.575-1.798-1.453-2.252-1.89-2.366l-.303-3.033c-.022-.128-.512-2.865-2.288-3.211l.064-4.394c.013-.15.256-3.054-.644-5.095l.168-.01-.588-10.641c-.068-1.706-.5-2.892-1.283-3.53a2.102 2.102 0 0 0-.688-.373l-.509-7.146c-.052-1.894-.803-2.731-1.418-3.103l.141-.111-7.2-8.977-.035.029.094-1.82c.063-.263.282-1.403-.366-2.537-.562-.984-1.601-1.673-3.064-2.042l-1.747-.556c.134-1.448-1.226-2.066-1.97-2.189l-6.535-1.186c-1.559-.148-2.454.566-2.9 1.104l-3.216-.185a5.89 5.89 0 0 0-.907-.861c-5.968-4.29-10.87.956-10.92 1.008L59.02 7.317l.126.115a36.023 36.023 0 0 0-11.921-2.027C27.25 5.405 11 21.682 11 41.69c0 20.008 16.25 36.286 36.225 36.286S83.45 61.698 83.45 41.69c0-9.917-3.995-18.914-10.454-25.47l2.861-4.676.031-.056c.033-.073.06-.144.09-.215l4.347-.079c.046-.007.877-.15 1.305-1.215.257.609.503.828.567.876l6.863 2.494a1.78 1.78 0 0 0-.335.798c-.128.831.282 1.784 1.2 2.81l5.202 6.735c-.253.457-.548 1.27-.392 2.45l.64 7.967c-.004.075-.038 1.86.97 2.743.358.316.794.475 1.298.482l.057 6.94c.068 2.583 1.118 3.6 1.126 3.603.23.279.481.5.742.679l.118 7.212c-.06.344-.343 2.303.768 3.674l1.507 10.95c.014.07.114.425.562.702.35.216.817.324 1.392.324.455 0 .983-.07 1.573-.207l.604 1.298c-.287.583-.93 2.089-.56 3.33.18.61.569 1.072 1.158 1.373l7.883 2.433-.162.056c.535 1.528 2.614 1.7 3.52 1.7.242 0 .4-.012.422-.013l7.248-.071c.71.801 1.794 1.14 2.501 1.205l9.06.618c.214.632 1.006 2.01 3.872 2.19l.031.003 4.568-.372-.081.191c-.094-.025-1.476-.36-2.36.762l-3.564 2.843c-8.639-3.532-18.57 1.045-19.06 1.276a.626.626 0 0 0-.181.135 7.167 7.167 0 0 0-1.926-.255c-.12 0-.238.006-.356.01-1.052-3.924-7.022-6.407-8.143-6.656-8.959-1.995-14.458 3.022-15.886 4.501l-5.794-1.548-3.932 2.258c-.111.072 2.656 22.168 2.656 22.168l12.12 3.984-.027-.26c3.258-4.15 7.508-6.072 10.787-5.906 2.485.126 4.62 2.047 5.193 2.613l.004.061c0 1.582 2.016 2.82 4.587 2.82 2.574 0 4.59-1.238 4.588-2.861l-.025-.387c1.192-.586 5.568-2.52 8.643-1.124 1.493.678 2.487 2.092 2.958 4.205a.63.63 0 0 0 .21.343l.768 8.202 12.59 3.664 4.621-3.172-.846-21.512-9.133-1.592c1.937-1.06 2.138-3.046 1.716-4.838.277-.24 2.479-2.146 4.071-3.679l-.038.135c.142.042.32.07.52.07zm1.148-1.766c-.24.651-.638.85-.959.897.357-.362.642-.677.81-.904.133-.184.232-.378.294-.577.299-.972-.345-1.79-.713-2.16l.883-2.581-.379-.129 1.017-.157c.402-.064.716-.237.966-.466l-1.92 6.077zm-3.954-2.75c-.117.16-.345.54-.256 1.024.075.4.357.744.814 1.033l-1.193 1.064c-.815-.156-1.34-.46-1.557-.904-.32-.657.098-1.47.117-1.51l3.234-7.61c.815-1.263 1.37-1.367 1.488-1.315l.095.065.898.076c.027.231.016.45.002.563l-.008.048.005.047c.081.996-.147 1.28-.247 1.356-.165.123-.42.028-.42.028l-.076-.032h-.086c-.672 0-.968.97-1.048 1.334l-1.762 4.734zm-3.341 4.686l-.058-.058a15.995 15.995 0 0 0-1.376-1.068l1.645-1.555c.03.191.076.387.169.578.272.565.798.972 1.561 1.221l-1.56 1.392a5.007 5.007 0 0 0-.381-.51zm-.672-13.071l5.95-.512c-.5.248-1.008.77-1.515 1.563l-.79 1.858-4.262.377a3.69 3.69 0 0 0 .222-.332c.658-1.12.516-2.372.395-2.954zm5.806 6.004l1.593-.246-.734 2.148-1.3-.715.441-1.187zm.197-8.68l.03.002.03-.002c.019-.001 1.911-.129 3.045.854.507.44.793 1.054.845 1.795l.017 2.527c0 .02-.032 2-1.182 2.18l-2.641.408.442-1.19c.062-.267.182-.568.274-.697.244.055.661.09 1.04-.188.475-.347.678-1.043.601-2.072.03-.26.102-1.291-.512-1.921-.246-.25-.701-.53-1.46-.439l-8.518.735a1.62 1.62 0 0 0-1.107.467c-.3.303-.475.72-.528 1.24a2.608 2.608 0 0 1-.597.376l-1.68-.088c.139-.883.713-2.819 3.09-3.457l.13-.033c3.447-.812 8.63-.5 8.681-.497zm-18.524 1.794l6.359.361a5.81 5.81 0 0 0-.584 1.79l-6.427-.333a5.41 5.41 0 0 0 .652-1.818zm7.905-2.481a4.38 4.38 0 0 1 1.738.354l-.182.046c-1.198.323-2.007.938-2.56 1.618l-6.856-.39a3.92 3.92 0 0 0-.207-1.081 4.266 4.266 0 0 0-.388-.94l8.455.393zm-8.884.788c.501 1.435-.212 2.799-.617 3.414-.521-.112-.882-.326-1.07-.642-.366-.612-.049-1.472.018-1.634l.02-.001c-.148-1.444-1.1-1.645-1.194-1.66l-9.003-.565-.062.014c-.587.139-1.574.804-1.36 2.343a2.177 2.177 0 0 1-.296-.153l-1.51-.478.07-1.56c-.065-1.746 1.78-1.931 1.939-1.946l2.517.125.147.038.007-.03 8.76.435c1.29.977 1.619 2.248 1.634 2.3zm-4.912 2.366l-4.14-.14c.046-.164.089-.335.121-.515l.265-1.745 4.201.264-.447 2.136zm-6.595-2.578a.257.257 0 0 1-.216.015c-.02-.007-.03-.02-.044-.03l.004-.001.255.016h.001zm-.882 1.557c-.216-1.035.262-1.41.533-1.536a2.71 2.71 0 0 1-.044.464l-.431 1.039-.058.033zm-14.533-28.292l-.003 5.712c0 .187-.003.363-.007.532a3.62 3.62 0 0 0-.48.046l.072-6.187c.149-.03.287-.065.418-.103zm-.908-12.159l.447 7.086c-.783.153-1.269.46-1.563.746l-.426-7.68c.103.007.223.014.367.014.33 0 .752-.037 1.175-.166zm1.133 7.854c.63-.046 1.138.141 1.55.56 1.505 1.538 1.167 5.554 1.161 5.627l-.103 7.33c-.13.967-.465 1.627-1 1.957-.442.275-.946.276-1.291.233l-.232-1.516c.195-.399.528-1.474.54-4.171v-7.346c-.136-1.109-.378-1.5-.557-1.633l-.143-.108-.176.028c-.817.126-1.3.009-1.585-.156.102-.18.51-.713 1.836-.805zm.635 16.583c.428 0 .937-.085 1.415-.378.278-.17.515-.396.714-.671l.22 2.682-1.144.648a3.129 3.129 0 0 0-.965.483l-.425-2.77c.06.003.121.006.185.006zm.35 3.886c.346-.599 1.106-.79 1.114-.791l.961-.532.116 1.42c-.39.336-.706.893-.55 1.732.013.064.028.13.047.197.384 1.462 2.637 6.303 2.731 6.507l.058.123.117.067c.052.03.272.144.64.144.134 0 .288-.017.46-.057l.534-.296-.037-.06 1.706.436-.932.531c-1.357.913-2.131.949-2.541.82-.425-.137-.564-.49-.585-.538l-3.921-8.416c-.144-.509-.117-.941.083-1.287zm10.115 8.578l-4.461-1.143a.51.51 0 0 0-.194-.09c-.21-.05-.407.026-.583.145-.176-.387-.413-.907-.67-1.484l.078.02c.068-.28.185-.472.35-.568.252-.146.567-.058.583-.052l6.729 1.781c-.678.192-1.443.613-1.832 1.39zm-4.661-3.993a.046.046 0 0 1-.012-.003 2.2 2.2 0 0 0 .373-.534l.043-.1-.043-.422.546 1.3-.907-.241zm1.959 5.562l1.672-.953.793.205a3.071 3.071 0 0 0-.02.46l-.058 1.295-2.656-.844c.09-.056.176-.1.269-.163zm-1.22-11.092l2.549 6.401-1.34-.354-1.874-4.46-.326-3.247c.283.21.673.668.992 1.66zm-2.237-5.573l1.03 10.313c-.126.2-.522.687-1.406.778a55.177 55.177 0 0 1-.637-1.54l.019-.015c.251-.253.26-.652.259-.76l-.14-1.705c.008-.001.018-.006.023-.007l-.033-.12-.543-6.664-.186.015.186-.017-.057-.671.03-2.053c1.091.405 1.455 2.446 1.455 2.446zm-4.263-26.331c.403.326.897 1.093.97 2.905l.52 9.45-.009-.012c-.537-.548-1.213-.81-1.997-.808l-.468-7.408.018-.011c.578-.42.929-1.044 1.041-1.852l.008-.044-.163-2.278c.027.019.053.035.08.058zm-1.51-8.142l.736 10.33c-.086.555-.31.96-.69 1.235-.674.492-1.636.427-1.937.393l-.13-2.345c.176-.05.372-.15.55-.336.51-.537.6-1.502.273-2.948l-.528-6.322c-.005-.047-.108-1.141-.928-1.65-.451-.28-1.006-.321-1.65-.127l-.432-.519 3.323-.295c.215.042 1.351.372 1.412 2.584zm-3.792 7.064l-.447-5.308c.047.002.095.01.144.01.54 0 1.083-.16 1.621-.466l.43 5.13.008.059.003.015c-.748-.017-1.327.22-1.759.56zm-5.037-15.877l4.648 5.619-1.218.108-4.746-5.708c.2.037.432.067.677.067.211 0 .43-.027.639-.086zm7.178 5.394l-1.5.133-4.949-5.982a1.49 1.49 0 0 0 .321-.65l.055-1.074 6.073 7.573zM93.79 8.015c.546.946.28 1.931.278 1.939l-.218 4.136a.555.555 0 0 1-.272.374c-.416.233-1.184.064-1.486-.033.064-.31.245-.665.686-.963l.19-.13-.07-3.776c-.097-.747-.55-1.974-1.636-1.974h-.028l-4.85-1.368c-.083-.025-1.963-.565-2.741.45l-1.298-.263.024-.082c.657-1.96 2.917-1.772 3.233-1.737l5.635 1.79c1.248.318 2.107.868 2.553 1.637zm-11.658.728l-.035.007-4.265-.54c-.187-.11-.773-.491-.946-1.071-.006-.18-.01-.357-.028-.534.055-.318.225-.656.524-1.012l1.628-.031c.012.044.025.105.038.178l-.177-.036-.169.838 5.952 1.202c.171.04.74.157 1.327.157.463 0 .938-.074 1.239-.314a.91.91 0 0 0 .177-.195l1.088.307c-.015.343-.096 1.06-.523 1.438-.266.236-.639.304-1.157.21l-4.67-.592-.003-.012zM71.028 7.48l-.041-1.73c.024-.033.121-.1.357-.14.54.888.432 1.928.2 2.72-.263-.126-.547-.37-.516-.85zm.856-2.754c-.708-.022-1.212.122-1.502.423a.834.834 0 0 0-.247.588l.043 1.724c-.063.928.512 1.432 1.07 1.672a5.02 5.02 0 0 1-.21.417l-.365.626c-.754-.008-1.327-.204-1.685-.607-.68-.767-.466-2.032-.465-2.043l.09-1.876c.014-1.008.252-1.758.693-2.169.413-.386.876-.364.903-.363l4.09.236.053.064.068-.057 4.246.246.065.029.011-.024 2.115.121a.518.518 0 0 1 .422.212c.353.458.32 1.56.204 2.287l-1.55-.314c-.088-.762-.261-1.125-.593-1.232a.537.537 0 0 0-.384.021l-7.072.02zm-7.57 4.98l2.697-3.592c.24-.277.494-.513.76-.707-.003.072-.008.144-.01.218l-.081 1.78c-.037.241-.225 1.715.666 2.726.442.5 1.058.795 1.843.883l-1.047 1.81a36.27 36.27 0 0 0-4.827-3.117zM84.89 6.922c.455-.06 1.01.046 1.258.119l.01.003a5.367 5.367 0 0 1-1.268-.122zm3.636 2.855c.583-.515.75-1.327.796-1.841l1.819.513.074-.005c.648-.043.83 1.183.833 1.183v-.001l.024 1.271a2.248 2.248 0 0 0-.14.05l-3.498-1.103c.03-.023.064-.042.092-.067zm-6.15-5.18l.151.02c-.044.037-.09.068-.133.109-.004-.043-.012-.086-.018-.13zm-1.274-2.123l6.505 1.181c.13.024 1.181.24 1.258 1.076l-3.042-.966-.07-.016a4.625 4.625 0 0 0-2.147.24.407.407 0 0 0-.218-.11l-1.265-.182a1.766 1.766 0 0 0-.168-.271 1.378 1.378 0 0 0-1.051-.543l-1.38-.08c.37-.225.884-.393 1.578-.329zm-16.989.99c.169-.185 4.133-4.415 9.172-1.021l-3.016-.173a2.152 2.152 0 0 0-1.523.57c-.317.29-.558.669-.722 1.133-.685.293-1.317.76-1.896 1.428L63.29 9.18a35.835 35.835 0 0 0-3.162-1.387l3.985-4.33zm-16.887 72.52c-18.878 0-34.238-15.383-34.238-34.293S28.347 7.397 47.225 7.397c18.88 0 34.239 15.384 34.239 34.293 0 18.91-15.359 34.294-34.24 34.294zm24.937-60.575a36.302 36.302 0 0 0-2.118-1.873l1.97-3.403c.065-.11 1.43-2.424.581-4.554l2.907-.007c.488 1.636.278 3.453-.628 5.405l-2.712 4.432zm8.05-5.062l-3.887.067c.158-.44.285-.876.377-1.306h1.35v-.032l2.858.37c-.2.704-.599.872-.698.901zm2.197-.708l4.265.553c.19.034.371.052.543.052.022 0 .042-.005.062-.005l-.038.123 3.748 1.182-1.237 1.15-7.067-2.551a2.094 2.094 0 0 1-.276-.504zm7.158 4.657c.058-.42.352-.61.358-.614l1.727-1.589c.001-.003.18-.158.435-.286l.02 1.096a2.333 2.333 0 0 0-.78 2.562l6.568 7.939.286-.113c.506-.201.902-.216 1.18-.046.456.28.53.993.53.998l.021.25c-.6.433-1.191.629-1.758.565v-.001l-.016.001c-.01-.001-.02.002-.03 0-.965-.129-1.579-.944-1.59-.96l-5.937-7.685c-.936-1.047-1.069-1.73-1.014-2.117zm7.341 21.917c-.586-.513-.69-1.676-.684-2.125l-.64-8.035c-.095-.71.003-1.236.131-1.598l.122.156c.026.038.58.769 1.52 1.123l.538 6.397.028-.001a2.95 2.95 0 0 0-.308.822l-.008.043.03 3.486a1.11 1.11 0 0 1-.729-.268zm1.646 8.047l-.095-11.18c.064-.261.48-1.684 2.12-1.55.088.865-.091 1.2-.193 1.314a.385.385 0 0 1-.313.129l-.528-.093.685 12.323c.012.065.32 1.562 2.653 1.323.058.153.134.426.193.885v.682c-.564.204-2.384.705-3.63-.798-.007-.007-.835-.846-.892-3.035zm3.159 4.933c.031 0 .06-.005.089-.005l-.074 6.368a2.388 2.388 0 0 0-.534.354c-.338.305-.575.7-.717 1.183a5.07 5.07 0 0 1 .055-1.204l.009-.046-.112-6.858c.429.145.868.208 1.284.208zm1.08 21.007l-1.518-11.04.038-.04c-.019-.018-.034-.037-.051-.056l-.083-.606c-.042-.88.154-1.521.581-1.91.395-.36.92-.447 1.271-.46-.112 1.92-.417 2.426-.414 2.426l-.129.15.964 6.283c-.225.514-.253 1.104-.06 1.765l1.726 3.706c-1.638.337-2.227-.017-2.325-.218zm3.556 5.4c-.195-.653.005-1.456.226-2.055l.761 1.632c.095.276.432.802 1.086 1.021.209.07.432.105.67.105.388 0 .816-.098 1.273-.281l5.672 1.79c.499.29.916.388 1.254.388.676-.001 1.03-.392 1.05-.418l.56-1.29.028-.09a3.76 3.76 0 0 0 .063-.646l1.484.094-.25 1.657c-.164.904-.525 1.535-1.072 1.876-.804.503-1.785.233-1.788.231l-10.318-3.177a1.353 1.353 0 0 1-.699-.838zm11.966 4.936c-.021.002-1.809.125-2.688-.564l1.495.46c.028.008.383.109.876.109.464 0 1.049-.09 1.597-.429.421-.26.759-.632 1.013-1.105l4.3.144-.006.025-.008.075c-.015.464.06.867.195 1.219l-6.774.066zm7.43-1.224l.645-3.092.66.042c.07.03.313.173.417.685-.148.447-.364 1.399.106 2.195.397.668 1.16 1.05 2.278 1.137l9.574.495.086-.035c.102-.041.746-.317 1.16-.807h.032l.002-.042c.164-.206.29-.446.312-.728l-.176-.013a.832.832 0 0 1 .157-.24c.215-.222.488-.228.54-.23l1.101-.095c.093.387.284 1.5-.272 2.45-.428.727-1.218 1.213-2.35 1.447l-11.844-.808c-.1-.01-2.463-.264-2.429-2.36zm20.157 4.771l-4.843.395c-1.862-.125-2.618-.795-2.924-1.27l1.938.131.055-.01c.694-.138 1.287-.359 1.78-.663l.006.073 4.85-.428-.846 1.983-.016-.21zm-2.137 2.468l.076-.078c.433-.578 1.095-.555 1.37-.516l-.545 1.279c-.007.016-.078.156-.15.365l-2.513 2.372a15.954 15.954 0 0 0-1.493-.827l3.255-2.595zm-28.068 14.438l-.409-6.204c.82.477 1.93.769 3.174.769 1.383 0 2.599-.36 3.434-.935l.43 6.536c-.568.511-1.89 1.12-3.294 1.12-1.497 0-2.86-.74-3.335-1.286zm6.076-8.256c0 .728-1.416 1.54-3.31 1.54-1.868 0-3.268-.79-3.306-1.509l-.003-.04c.012-.724 1.422-1.53 3.308-1.53 1.895 0 3.31.813 3.31 1.54zm-33.304-5.32l6.106 1.636.045-.112c.248-.292 6.156-7.148 15.341-4.53.06.016 5.415 1.477 6.905 5.424l-.873.517a4.724 4.724 0 0 0-.898.457c-1.058-1.705-4.342-5.809-10.856-4.664-.252.043-4.792.738-8.373 5.175l-9.581-2.74 2.184-1.162zm-.499 22.2l-2.33-20.123 9.802 2.886c.019.042.04.082.065.119l2.086 20.347-9.623-3.23zm22.034-2.565c-3.639-.203-6.869 1.521-11.086 5.54l-2.073-20.313c2.116-3.729 7.579-4.723 7.637-4.734 6.315-1.107 9.043 3.276 9.602 4.334-.135.27-.209.557-.209.858l.002.033c.001.003-.002.006-.002.01l1.07 16.258c-.732-.66-2.384-1.843-4.94-1.986zm9.667 5.631c-1.894 0-3.31-.814-3.31-1.581l-.535-8.154c.805.47 1.928.753 3.206.753 1.388 0 2.587-.333 3.402-.876l.548 8.318c0 .726-1.416 1.54-3.31 1.54zm13.734-4.258c-3.266-1.482-7.49.106-9.262.916l-1.03-15.674c1.597-.617 8.225-2.892 13.465-.44.852.39 3.069 1.762 3.084 3.383.012 1.382-1.018 2.775-4.783 4.299l-.074-.014.878 9.383a5.787 5.787 0 0 0-2.278-1.853zm4.583 12.916l-2.13-19.37 11.627 2.071 1.018 20.494-10.515-3.195zm14.709.877l-3.07 2.235-.9-20.614 3.323-1.737.647 20.116zm-9.126-23.244l-1.434 1.217 8.988 1.478-3.351 1.562-10.788-1.946c2.627-1.476 3.968-3.012 3.953-4.687-.024-2.758-3.673-4.464-3.824-4.532-5.425-2.54-11.92-.543-14.114.271-.126-.566-.514-1.073-1.092-1.475 3.005-1.191 13.93-4.84 21.326 1.603.326.379 3.137 3.837.336 6.51zm1.985-5.035l-.255-.43a8.89 8.89 0 0 0-.31-.663l4.294-3.832v-.191c0-.085-.05-.789-1.186-1.211.03-.12.101-.21.101-.21l.055-.06.308-.827 1.598.875c.136.115.839.758.633 1.425-.034.109-.09.218-.169.325-.706.965-3.946 3.82-5.07 4.8z"/><path d="M67.734 70.285c-5.781 4.029-12.88 6.41-20.56 6.41-9.04 0-17.28-3.291-23.505-8.695C9.752 69.432 0 72.753 0 76.623 0 81.802 17.46 86 39 86c21.538 0 39-4.198 39-9.377 0-2.444-3.893-4.669-10.266-6.338"/></g></svg>