<svg xmlns="http://www.w3.org/2000/svg" viewBox="0 0 48 33" width="48" height="33"><path fill="#686461" d="M24 33l-.1-.1L0 16.5 24 0l.1.1L48 16.5 24 33zM.7 16.5l23.3 16 23.2-16L24 .5.7 16.5z"/><path fill="#686461" d="M24 31.6L2 16.5 24 1.4l22 15.1-22 15.1zM2.8 16.5L24 31.1l21.2-14.6L24 1.9 2.8 16.5z"/><path d="M9.7 15.4c.2 0 .4-.1.7-.1.3 0 .6.1.8.2.2.1.2.3.2.5 0 .3-.2.5-.5.6.3.1.6.3.6.7 0 .3-.1.4-.2.6-.2.2-.5.3-1 .3h-.6v-2.8zm.3 1.2h.3c.4 0 .6-.2.6-.5s-.3-.4-.6-.4H10v.9zm0 1.3h.3c.4 0 .7-.1.7-.5s-.3-.5-.7-.5H10v1zm2.4-.2c.2.1.4.2.6.2.4 0 .6-.2.6-.5s-.2-.4-.5-.5c-.4-.2-.7-.4-.7-.8s.3-.8.9-.8c.3 0 .5.1.6.1l-.1.3c-.1-.1-.3-.1-.5-.1-.4 0-.5.2-.5.4 0 .3.2.4.5.5.5.2.7.4.7.8s-.3.8-1 .8c-.3 0-.6-.1-.7-.2l.1-.2zm20.4-2.3h1.5v.3h-1.1v.9h1.1v.3h-1.1v1.3h-.3v-2.8zm2.1 0c.2 0 .4-.1.7-.1.4 0 .6.1.8.2.1.1.2.3.2.5 0 .4-.2.6-.5.7.2.1.3.3.4.6.1.4.2.7.2.8h-.4c0-.1-.1-.3-.2-.7-.1-.4-.2-.5-.6-.5h-.3v1.2h-.3v-2.7c-.1 0 0 0 0 0zm.3 1.3h.4c.4 0 .6-.2.6-.5s-.3-.5-.6-.5h-.3l-.1 1zm3.3.1h-1.1v1h1.2v.3H37v-2.8h1.5v.3h-1.1v.9h1.1v.3zm2.1 0h-1.1v1h1.2v.3h-1.6v-2.8h1.5v.3h-1.1v.9h1.1v.3zm-25.2-6.1c-.1 0-.2-.1-.3-.1-.1 0-.2 0-.2.1-.1.1-.2.1-.3.2-.1.1-.1.2-.2.3v.3c0 .1 0 .2.1.3.1.1.1.2.2.3.1.1.2.1.3.2.1 0 .2.1.3.1.1 0 .2 0 .3-.1.1 0 .2-.1.2-.2.1-.1.1-.2.1-.3l.4.1c0 .2-.1.3-.2.4-.1.1-.2.2-.4.3-.2.1-.3.1-.5.1s-.3 0-.4-.1c-.2-.1-.3-.1-.4-.2-.1-.1-.2-.3-.3-.4-.1-.2-.1-.3-.1-.5s0-.3.1-.4c.1-.1.1-.3.3-.4s.3-.2.4-.3c.1-.1.3-.1.4-.1.2 0 .3 0 .4.1l-.2.3zm.7-.8l.4-.1.3.9 1-.3-.3-.9.4-.1.7 2.2-.4.1-.3-.9-1 .3.3.9h-.4l-.7-2.1zm3.3-1l.3-.1 1.5 2.1-.4.1-.3-.5-1 .2-.1.6-.4.1.4-2.5zm.8 1.3l-.5-.9-.2 1 .7-.1zm1.1-1.6l.4-.1.3 2.3-.4.1-.3-2.3zm1.2-.2h1.1c.1 0 .2.1.3.1l.2.2c0 .1.1.2.1.3 0 .2 0 .3-.1.4-.1.1-.2.2-.4.2l.6 1h-.5l-.6-.9h-.3v1h-.4V8.4zm.8 1h.4c.1 0 .1-.1.1-.1v-.4l-.1-.1H23v.6h.3zm1.6-1l.6.1.5 1.6.7-1.5h.6l-.2 2.3h-.4l.2-1.9-.8 1.9h-.3l-.5-2-.2 1.9h-.4l.2-2.4zm4 .4l.3.1.6 2.4-.5-.1-.1-.6-1-.2-.2.6-.4-.1 1.3-2.1zm.3 1.5l-.2-1-.5.9.7.1zm1.6-1.2l.5.2.6 2 .5-1.6.4.1-.7 2.2-.5-.2-.6-2-.4 1.7-.4-.1.6-2.3zm3 1.1l.3.2-.6.6-.3-.2.6-.6zm1.8 1.7v-.2l-.2-.2-.1-.1h-.2s-.1 0-.1.1c-.1.1-.1.1-.1.2s0 .1.1.2c0 .1.1.2.2.2.1.1.1.2.1.3v.3c0 .1-.1.2-.2.3-.1.1-.2.2-.3.2-.1 0-.2.1-.3.1s-.2 0-.3-.1-.2-.1-.3-.2l-.3-.3c-.1-.1-.1-.3-.1-.4h.4v.3c0 .1.1.2.2.2l.1.1h.2s.1 0 .1-.1c.1-.1.1-.1.1-.2s0-.1-.1-.2-.1-.2-.2-.2c-.1-.1-.1-.2-.1-.3v-.3c0-.1.1-.2.2-.3.1-.1.2-.2.3-.2.1 0 .2-.1.3 0 .1 0 .2 0 .3.1.1 0 .2.1.3.2.1.1.2.2.2.3s.1.2.1.3l-.3-.1zM21.5 24.6c0-.1-.1-.1-.2-.2-.1 0-.1-.1-.2-.1h-.2s-.1 0-.1.1l-.1.1v.2c0 .1.1.1.2.2.1 0 .2.1.3.1.1 0 .2.1.2.2l.2.2v.3c0 .1-.1.2-.1.3-.1.1-.1.2-.2.2s-.2.1-.3.1h-.3c-.1 0-.3-.1-.4-.2-.2 0-.3-.1-.3-.2l.3-.2c0 .1.1.2.2.2.1.1.2.1.3.1h.3s.1 0 .1-.1.1-.1.1-.1v-.2c0-.1-.1-.1-.2-.2-.1 0-.2-.1-.3-.1-.1 0-.2-.1-.2-.2l-.2-.2v-.3c0-.1.1-.2.1-.3l.2-.2c.1-.1.2-.1.3-.1h.3c.1 0 .2.1.3.1.1.1.2.1.3.2l-.4.3zm.9-.4l1.5.1v.4l-1.1-.1v.6l1.1.1v.3l-1.1-.1v.6l1.2.1v.4l-1.6-.1v-2.3zm2.7.1h.3l1.1 2.2h-.4l-.2-.5h-1l-.2.5h-.4l.8-2.2zm.6 1.4l-.4-.9-.3.9h.7zm1.1-1.5l.4-.1.3 1.9 1-.2.1.4-1.4.2-.4-2.2zm-5.4-5c-1.3 0-2.4-1-2.4-2.3s1.1-2.3 2.4-2.3 2.4 1 2.4 2.3c-.1 1.3-1.1 2.3-2.4 2.3zm0-4.4c-1.2 0-2.1.9-2.1 2.1 0 1.2.9 2.1 2.1 2.1 1.2 0 2.1-.9 2.1-2.1 0-1.2-1-2.1-2.1-2.1z" fill="#686461"/><path fill="#686461" d="M24.3 19.2c-1.3 0-2.4-1-2.4-2.3 0-1.3 1-2.3 2.4-2.3 1.3 0 2.4 1 2.4 2.3-.1 1.3-1.1 2.3-2.4 2.3zm0-4.4c-1.2 0-2.1.9-2.1 2.1 0 1.2.9 2.1 2.1 2.1 1.2 0 2.1-.9 2.1-2.1 0-1.2-1-2.1-2.1-2.1z"/><path fill="#686461" d="M27.1 19.2c-1.3 0-2.4-1-2.4-2.3s1.1-2.3 2.4-2.3c1.3 0 2.4 1 2.4 2.3 0 1.3-1.1 2.3-2.4 2.3zm0-4.4c-1.2 0-2.1.9-2.1 2.1 0 1.1 1 2.1 2.1 2.1 1.2 0 2.1-.9 2.1-2.1 0-1.2-.9-2.1-2.1-2.1z"/></svg>